SplineFontDB: 3.0
FontName: Boon-300
FullName: Boon 300
FamilyName: Boon
Weight: 300
Copyright: Copyright 2013-2015, Sungsit Sawaiwan (https://fontuni.com | uni@fontuni.com). This Font Software is licensed under the SIL Open Font License, Version 1.1 (http://scripts.sil.org/OFL).
Version: 1.0
ItalicAngle: 0
UnderlinePosition: -120
UnderlineWidth: 60
Ascent: 960
Descent: 240
InvalidEm: 0
sfntRevision: 0x00010000
LayerCount: 2
Layer: 0 0 "Back" 1
Layer: 1 0 "Fore" 0
XUID: [1021 556 -266790205 12112623]
StyleMap: 0x0000
FSType: 0
OS2Version: 3
OS2_WeightWidthSlopeOnly: 0
OS2_UseTypoMetrics: 0
CreationTime: 1369324892
ModificationTime: 1445629899
PfmFamily: 17
TTFWeight: 300
TTFWidth: 5
LineGap: 90
VLineGap: 0
Panose: 2 0 5 3 0 0 0 0 0 0
OS2TypoAscent: 960
OS2TypoAOffset: 0
OS2TypoDescent: -240
OS2TypoDOffset: 0
OS2TypoLinegap: 90
OS2WinAscent: 1320
OS2WinAOffset: 0
OS2WinDescent: 480
OS2WinDOffset: 0
HheadAscent: 1320
HheadAOffset: 0
HheadDescent: -480
HheadDOffset: 0
OS2SubXSize: 780
OS2SubYSize: 840
OS2SubXOff: 0
OS2SubYOff: 168
OS2SupXSize: 780
OS2SupYSize: 840
OS2SupXOff: 0
OS2SupYOff: 576
OS2StrikeYSize: 59
OS2StrikeYPos: 310
OS2CapHeight: 780
OS2XHeight: 600
OS2Vendor: 'FUni'
OS2CodePages: 20010193.00000000
OS2UnicodeRanges: a30000ff.5000207b.00000000.00000000
Lookup: 1 0 0 "ThaiRC.rd" { "ThaiRC.rd subtable"  } ['ccmp' ('thai' <'PAL ' 'SAN ' > ) 'locl' ('thai' <'PAL ' 'SAN ' > ) 'ss01' ('thai' <'dflt' > ) ]
Lookup: 6 0 0 "ThaiContextRC.rd" { "ThaiContextRC.rd subtable"  } ['ccmp' ('thai' <'dflt' > ) ]
Lookup: 2 0 0 "ThaiDecomp" { "ThaiDecomp subtable"  } ['ccmp' ('thai' <'dflt' > ) ]
Lookup: 1 0 0 "ThaiT.0E4D" { "ThaiT.0E4D subtable"  } []
Lookup: 1 0 0 "Thai0E4D.0E48" { "Thai0E4D.0E48 subtable"  } []
Lookup: 1 0 0 "Thai0E4D.0E49" { "Thai0E4D.0E49 subtable"  } []
Lookup: 1 0 0 "Thai0E4D.0E4A" { "Thai0E4D.0E4A subtable"  } []
Lookup: 1 0 0 "Thai0E4D.0E4B" { "Thai0E4D.0E4B subtable"  } []

StartChar: .notdef
Encoding: 65536 -1 0
Width: 660
Flags: W
LayerCount: 2
Fore
SplineSet
110 0 m 1
 110 600 l 1
 330 600 l 1
 550 600 l 1
 550 0 l 1
 330 0 l 1
 110 0 l 1
330 52 m 1
 487 52 l 1
 487 548 l 1
 330 548 l 1
 173 548 l 1
 173 52 l 1
 330 52 l 1
EndSplineSet
EndChar

StartChar: exclam
Encoding: 33 33 5
Width: 330
GlyphClass: 2
Flags: W
LayerCount: 2
Fore
SplineSet
123 810 m 1
 207 810 l 1
 189 270 l 1
 141 270 l 1
 123 810 l 1
165 120 m 0
 202 120 230 96 230 59 c 0
 230 22 202 -2 165 -2 c 0
 128 -2 100 22 100 59 c 0
 100 96 128 120 165 120 c 0
EndSplineSet
EndChar

StartChar: quotedbl
Encoding: 34 34 6
Width: 540
GlyphClass: 2
Flags: W
LayerCount: 2
Fore
SplineSet
346 900 m 1
 414 900 l 1
 402 540 l 1
 357 540 l 1
 346 900 l 1
126 900 m 1
 194 900 l 1
 182 540 l 1
 137 540 l 1
 126 900 l 1
EndSplineSet
EndChar

StartChar: numbersign
Encoding: 35 35 7
Width: 810
GlyphClass: 2
Flags: W
LayerCount: 2
Fore
SplineSet
70 221 m 1
 70 269 l 1
 197 269 l 1
 263 511 l 1
 130 511 l 1
 130 559 l 1
 276 559 l 1
 335 780 l 1
 392 780 l 1
 332 559 l 1
 568 559 l 1
 628 780 l 1
 685 780 l 1
 626 559 l 1
 740 559 l 1
 740 511 l 1
 613 511 l 1
 547 269 l 1
 680 269 l 1
 680 221 l 1
 534 221 l 1
 475 0 l 1
 418 0 l 1
 478 221 l 1
 241 221 l 1
 182 0 l 1
 125 0 l 1
 184 221 l 1
 70 221 l 1
320 511 m 1
 254 269 l 1
 490 269 l 1
 556 511 l 1
 320 511 l 1
EndSplineSet
EndChar

StartChar: dollar
Encoding: 36 36 8
Width: 660
GlyphClass: 2
Flags: W
LayerCount: 2
Fore
SplineSet
75 178 m 1
 144 183 l 1
 153 120 209 49 309 40 c 1
 309 376 l 1
 281 387 253 398 230 407 c 0
 167 433 94 488 94 589 c 0
 94 698 173 783 309 791 c 1
 309 900 l 1
 361 900 l 1
 361 791 l 1
 496 778 558 675 568 606 c 1
 499 601 l 1
 490 662 443 726 361 739 c 1
 361 420 l 1
 391 409 420 398 443 391 c 0
 511 369 585 310 585 196 c 0
 585 87 508 -1 361 -11 c 1
 361 -120 l 1
 309 -120 l 1
 309 -11 l 1
 154 -2 86 105 75 178 c 1
309 440 m 1
 309 740 l 1
 223 732 162 679 162 589 c 0
 162 512 223 474 270 455 c 0
 282 450 295 445 309 440 c 1
361 356 m 1
 361 40 l 1
 460 49 516 106 516 196 c 0
 516 287 453 325 410 339 c 0
 395 344 379 350 361 356 c 1
EndSplineSet
EndChar

StartChar: percent
Encoding: 37 37 9
Width: 780
GlyphClass: 2
Flags: W
LayerCount: 2
Fore
SplineSet
484 187 m 2
 484 203 l 2
 484 293 509 399 615 399 c 0
 721 399 746 293 746 203 c 2
 746 187 l 2
 746 97 721 -9 615 -9 c 0
 509 -9 484 97 484 187 c 2
615 26 m 0
 669 26 700 89 700 187 c 2
 700 203 l 2
 700 301 669 364 615 364 c 0
 561 364 530 301 530 203 c 2
 530 187 l 2
 530 89 561 26 615 26 c 0
34 577 m 2
 34 593 l 2
 34 683 59 789 165 789 c 0
 271 789 296 683 296 593 c 2
 296 577 l 2
 296 487 271 381 165 381 c 0
 59 381 34 487 34 577 c 2
165 416 m 0
 219 416 250 479 250 577 c 2
 250 593 l 2
 250 691 219 754 165 754 c 0
 111 754 80 691 80 593 c 2
 80 577 l 2
 80 479 111 416 165 416 c 0
90 0 m 1
 90 4 l 1
 642 780 l 1
 690 780 l 1
 690 776 l 1
 138 0 l 1
 90 0 l 1
EndSplineSet
EndChar

StartChar: ampersand
Encoding: 38 38 10
Width: 810
GlyphClass: 2
Flags: W
LayerCount: 2
Fore
SplineSet
637 145 m 1
 714 66 775 4 775 4 c 1
 775 0 l 1
 695 0 l 1
 695 0 655 42 599 100 c 1
 531 30 437 -17 317 -17 c 0
 161 -17 80 62 80 161 c 0
 80 280 197 361 293 424 c 1
 244 484 203 560 203 628 c 0
 203 732 268 796 367 797 c 0
 474 797 522 727 522 656 c 0
 522 552 461 481 373 419 c 1
 431 358 520 266 599 184 c 1
 640 247 664 324 673 400 c 1
 733 391 l 1
 723 306 691 218 637 145 c 1
563 137 m 1
 485 219 389 319 326 387 c 1
 231 322 148 250 148 161 c 0
 148 84 208 36 317 36 c 0
 425 36 506 76 563 137 c 1
367 750 m 0
 295 750 265 693 265 627 c 0
 265 573 297 508 340 455 c 1
 415 510 462 574 462 656 c 0
 462 711 429 750 367 750 c 0
EndSplineSet
EndChar

StartChar: quotesingle
Encoding: 39 39 11
Width: 330
GlyphClass: 2
Flags: W
LayerCount: 2
Fore
SplineSet
131 900 m 1
 199 900 l 1
 187 540 l 1
 142 540 l 1
 131 900 l 1
EndSplineSet
EndChar

StartChar: parenleft
Encoding: 40 40 12
Width: 390
GlyphClass: 2
Flags: W
LayerCount: 2
Fore
SplineSet
80 390 m 0
 80 611 148 783 260 907 c 1
 304 890 l 1
 199 772 143 600 143 390 c 0
 143 180 199 8 304 -110 c 1
 260 -127 l 1
 148 -3 80 169 80 390 c 0
EndSplineSet
Substitution2: "Latin.subs subtable" parenleft.subs
Substitution2: "Latin.sups subtable" parenleft.sups
EndChar

StartChar: parenright
Encoding: 41 41 13
Width: 390
GlyphClass: 2
Flags: W
LayerCount: 2
Fore
SplineSet
310 390 m 0
 310 169 242 -3 130 -127 c 1
 86 -110 l 1
 191 8 247 180 247 390 c 0
 247 600 191 772 86 890 c 1
 130 907 l 1
 242 783 310 611 310 390 c 0
EndSplineSet
Substitution2: "Latin.subs subtable" parenright.subs
Substitution2: "Latin.sups subtable" parenright.sups
EndChar

StartChar: asterisk
Encoding: 42 42 14
Width: 570
GlyphClass: 2
Flags: W
LayerCount: 2
Fore
SplineSet
57 713 m 1
 76 770 l 1
 267 695 l 1
 255 900 l 1
 315 900 l 1
 303 695 l 1
 495 770 l 1
 513 713 l 1
 315 660 l 1
 445 502 l 1
 397 466 l 1
 285 639 l 1
 174 466 l 1
 125 502 l 1
 256 660 l 1
 57 713 l 1
EndSplineSet
EndChar

StartChar: plus
Encoding: 43 43 15
Width: 600
GlyphClass: 2
Flags: W
LayerCount: 2
Fore
SplineSet
105 336 m 1
 105 384 l 1
 269 384 l 1
 269 550 l 1
 332 550 l 1
 332 384 l 1
 495 384 l 1
 495 336 l 1
 332 336 l 1
 332 170 l 1
 269 170 l 1
 269 336 l 1
 105 336 l 1
EndSplineSet
EndChar

StartChar: comma
Encoding: 44 44 16
Width: 330
GlyphClass: 2
Flags: W
LayerCount: 2
Fore
SplineSet
100 57 m 0
 100 94 126 121 165 121 c 0
 221 121 245 74 245 19 c 0
 245 -78 183 -147 122 -190 c 1
 100 -160 l 1
 150 -124 193 -70 197 6 c 1
 187 1 175 -2 163 -2 c 0
 127 -2 100 20 100 57 c 0
EndSplineSet
EndChar

StartChar: hyphen
Encoding: 45 45 17
Width: 600
GlyphClass: 2
Flags: W
LayerCount: 2
Fore
SplineSet
105 386 m 1
 495 386 l 1
 495 334 l 1
 105 334 l 1
 105 386 l 1
EndSplineSet
EndChar

StartChar: period
Encoding: 46 46 18
Width: 330
GlyphClass: 2
Flags: W
LayerCount: 2
Fore
SplineSet
165 120 m 0
 202 120 230 96 230 59 c 0
 230 22 202 -2 165 -2 c 0
 128 -2 100 22 100 59 c 0
 100 96 128 120 165 120 c 0
EndSplineSet
EndChar

StartChar: slash
Encoding: 47 47 19
Width: 510
GlyphClass: 2
Flags: W
LayerCount: 2
Fore
SplineSet
60 0 m 1
 60 4 l 1
 389 780 l 1
 450 780 l 1
 450 776 l 1
 120 0 l 1
 60 0 l 1
EndSplineSet
Substitution2: "LatinSlash.frac subtable" fraction
EndChar

StartChar: zero
Encoding: 48 48 20
Width: 660
GlyphClass: 2
Flags: W
LayerCount: 2
Fore
SplineSet
74 376 m 2
 74 404 l 2
 74 592 127 797 329 797 c 0
 531 797 584 592 584 404 c 2
 584 376 l 2
 584 188 531 -17 329 -17 c 0
 127 -17 74 188 74 376 c 2
329 36 m 0
 454 36 514 177 514 376 c 2
 514 404 l 2
 514 603 454 744 329 744 c 0
 204 744 144 603 144 404 c 2
 144 376 l 2
 144 177 204 36 329 36 c 0
EndSplineSet
Substitution2: "Latin.dnom subtable" zero.dnom
Substitution2: "Latin.numr subtable" zero.numr
Substitution2: "Latin.subs subtable" zero.subs
Substitution2: "Latin.sups subtable" zero.sups
Substitution2: "Latin.pnum subtable" zero.pnum
EndChar

StartChar: one
Encoding: 49 49 21
Width: 660
GlyphClass: 2
Flags: W
LayerCount: 2
Fore
SplineSet
110 630 m 1
 370 786 l 1
 419 781 l 1
 419 56 l 1
 575 56 l 1
 575 0 l 1
 150 0 l 1
 150 56 l 1
 350 56 l 1
 350 706 l 1
 140 579 l 1
 110 630 l 1
EndSplineSet
Substitution2: "Latin.dnom subtable" one.dnom
Substitution2: "Latin.numr subtable" one.numr
Substitution2: "Latin.subs subtable" one.subs
Substitution2: "Latin.sups subtable" one.sups
Substitution2: "Latin.pnum subtable" one.pnum
EndChar

StartChar: two
Encoding: 50 50 22
Width: 660
GlyphClass: 2
Flags: W
LayerCount: 2
Fore
SplineSet
85 27 m 0
 85 203 228 302 338 377 c 0
 418 431 498 487 498 583 c 0
 498 646 467 744 330 744 c 0
 234 744 177 671 165 610 c 1
 94 617 l 1
 107 688 179 797 329 797 c 0
 530 797 566 650 566 583 c 0
 566 460 459 385 381 332 c 0
 278 262 171 186 161 55 c 1
 575 55 l 1
 575 0 l 1
 88 0 l 1
 88 0 85 11 85 27 c 0
EndSplineSet
Substitution2: "Latin.dnom subtable" two.dnom
Substitution2: "Latin.numr subtable" two.numr
Substitution2: "Latin.subs subtable" two.subs
Substitution2: "Latin.sups subtable" two.sups
Substitution2: "Latin.pnum subtable" two.pnum
EndChar

StartChar: three
Encoding: 51 51 23
Width: 660
GlyphClass: 2
Flags: W
LayerCount: 2
Fore
SplineSet
55 126 m 1
 123 139 l 1
 136 104 177 35 303 35 c 0
 467 35 500 141 500 210 c 0
 500 276 463 369 314 369 c 2
 219 369 l 1
 219 421 l 1
 305 421 l 2
 381 421 470 478 470 583 c 0
 470 646 440 744 303 744 c 0
 207 744 149 671 137 610 c 1
 66 617 l 1
 79 688 151 797 301 797 c 0
 502 797 538 650 538 583 c 0
 538 489 479 432 418 403 c 1
 536 372 570 277 570 213 c 0
 570 137 530 -17 303 -17 c 0
 132 -17 71 82 55 126 c 1
EndSplineSet
Substitution2: "Latin.dnom subtable" three.dnom
Substitution2: "Latin.numr subtable" three.numr
Substitution2: "Latin.subs subtable" three.subs
Substitution2: "Latin.sups subtable" three.sups
Substitution2: "Latin.pnum subtable" three.pnum
EndChar

StartChar: four
Encoding: 52 52 24
Width: 660
GlyphClass: 2
Flags: W
LayerCount: 2
Fore
SplineSet
423 214 m 1
 50 214 l 1
 45 246 l 1
 433 786 l 1
 489 781 l 1
 489 266 l 1
 615 266 l 1
 615 214 l 1
 489 214 l 1
 489 0 l 1
 423 0 l 1
 423 214 l 1
424 266 m 1
 424 688 l 1
 123 266 l 1
 424 266 l 1
EndSplineSet
Substitution2: "Latin.dnom subtable" four.dnom
Substitution2: "Latin.numr subtable" four.numr
Substitution2: "Latin.subs subtable" four.subs
Substitution2: "Latin.sups subtable" four.sups
Substitution2: "Latin.pnum subtable" four.pnum
EndChar

StartChar: five
Encoding: 53 53 25
Width: 660
GlyphClass: 2
Flags: W
LayerCount: 2
Fore
SplineSet
75 126 m 1
 143 139 l 1
 156 104 196 35 322 35 c 0
 486 35 519 149 519 228 c 0
 519 308 489 423 342 423 c 0
 260 423 187 367 160 326 c 1
 107 353 l 1
 120 780 l 1
 548 780 l 1
 548 728 l 1
 185 728 l 1
 175 406 l 1
 215 439 276 473 353 473 c 0
 552 473 590 311 590 232 c 0
 590 148 549 -17 322 -17 c 0
 151 -17 91 82 75 126 c 1
EndSplineSet
Substitution2: "Latin.dnom subtable" five.dnom
Substitution2: "Latin.numr subtable" five.numr
Substitution2: "Latin.subs subtable" five.subs
Substitution2: "Latin.sups subtable" five.sups
Substitution2: "Latin.pnum subtable" five.pnum
EndChar

StartChar: six
Encoding: 54 54 26
Width: 660
GlyphClass: 2
Flags: W
LayerCount: 2
Fore
SplineSet
95 292 m 2
 95 439 l 2
 95 576 124 797 343 797 c 0
 505 797 556 689 570 645 c 1
 503 634 l 1
 490 674 453 744 343 744 c 0
 200 744 165 592 165 439 c 2
 165 381 l 1
 203 433 266 471 353 471 c 0
 538 471 590 328 590 227 c 0
 590 91 501 -17 343 -17 c 0
 182 -17 95 91 95 292 c 2
166 263 m 1
 173 90 247 36 343 36 c 0
 448 36 521 104 521 227 c 0
 521 317 482 421 343 421 c 0
 246 421 182 351 166 263 c 1
EndSplineSet
Substitution2: "Latin.dnom subtable" six.dnom
Substitution2: "Latin.numr subtable" six.numr
Substitution2: "Latin.subs subtable" six.subs
Substitution2: "Latin.sups subtable" six.sups
Substitution2: "Latin.pnum subtable" six.pnum
EndChar

StartChar: seven
Encoding: 55 55 27
Width: 660
GlyphClass: 2
Flags: W
LayerCount: 2
Fore
SplineSet
80 724 m 1
 80 780 l 1
 565 780 l 1
 570 740 l 1
 455 582 330 280 330 40 c 2
 330 0 l 1
 257 0 l 1
 257 40 l 2
 257 270 378 560 486 724 c 1
 80 724 l 1
EndSplineSet
Substitution2: "Latin.dnom subtable" seven.dnom
Substitution2: "Latin.numr subtable" seven.numr
Substitution2: "Latin.subs subtable" seven.subs
Substitution2: "Latin.sups subtable" seven.sups
Substitution2: "Latin.pnum subtable" seven.pnum
EndChar

StartChar: eight
Encoding: 56 56 28
Width: 660
GlyphClass: 2
Flags: W
LayerCount: 2
Fore
SplineSet
330 -17 m 0
 167 -17 65 75 65 195 c 0
 65 332 165 384 238 401 c 1
 167 426 100 485 100 591 c 0
 100 709 192 797 330 797 c 0
 468 797 560 709 560 591 c 0
 560 485 493 426 422 401 c 1
 495 384 595 332 595 195 c 0
 595 75 493 -17 330 -17 c 0
330 34 m 0
 450 34 525 97 525 195 c 0
 525 304 454 348 388 362 c 0
 371 366 351 371 330 376 c 1
 309 371 289 366 272 362 c 0
 206 348 135 304 135 195 c 0
 135 97 210 34 330 34 c 0
330 747 m 0
 239 747 169 691 169 591 c 0
 169 500 230 448 288 435 c 0
 301 432 315 428 330 424 c 1
 345 428 359 432 372 435 c 0
 430 448 491 500 491 591 c 0
 491 691 421 747 330 747 c 0
EndSplineSet
Substitution2: "Latin.dnom subtable" eight.dnom
Substitution2: "Latin.numr subtable" eight.numr
Substitution2: "Latin.subs subtable" eight.subs
Substitution2: "Latin.sups subtable" eight.sups
Substitution2: "Latin.pnum subtable" eight.pnum
EndChar

StartChar: nine
Encoding: 57 57 29
Width: 660
GlyphClass: 2
Flags: W
LayerCount: 2
Fore
SplineSet
565 488 m 2
 565 341 l 2
 565 204 536 -17 317 -17 c 0
 155 -17 104 91 90 135 c 1
 157 146 l 1
 170 106 207 36 317 36 c 0
 460 36 495 188 495 341 c 2
 495 399 l 1
 457 347 394 309 307 309 c 0
 122 309 70 452 70 553 c 0
 70 689 159 797 317 797 c 0
 478 797 565 689 565 488 c 2
494 517 m 1
 487 690 413 744 317 744 c 0
 212 744 139 676 139 553 c 0
 139 463 178 359 317 359 c 0
 414 359 478 429 494 517 c 1
EndSplineSet
Substitution2: "Latin.dnom subtable" nine.dnom
Substitution2: "Latin.numr subtable" nine.numr
Substitution2: "Latin.subs subtable" nine.subs
Substitution2: "Latin.sups subtable" nine.sups
Substitution2: "Latin.pnum subtable" nine.pnum
EndChar

StartChar: colon
Encoding: 58 58 30
Width: 330
GlyphClass: 2
Flags: W
LayerCount: 2
Fore
SplineSet
165 540 m 0
 202 540 230 516 230 479 c 0
 230 442 202 418 165 418 c 0
 128 418 100 442 100 479 c 0
 100 516 128 540 165 540 c 0
165 120 m 0
 202 120 230 96 230 59 c 0
 230 22 202 -2 165 -2 c 0
 128 -2 100 22 100 59 c 0
 100 96 128 120 165 120 c 0
EndSplineSet
EndChar

StartChar: semicolon
Encoding: 59 59 31
Width: 330
GlyphClass: 2
Flags: W
LayerCount: 2
Fore
SplineSet
100 57 m 0
 100 94 126 121 165 121 c 0
 221 121 245 74 245 19 c 0
 245 -78 183 -147 122 -190 c 1
 100 -160 l 1
 150 -124 193 -70 197 6 c 1
 187 1 175 -2 163 -2 c 0
 127 -2 100 20 100 57 c 0
165 540 m 0
 202 540 230 516 230 479 c 0
 230 442 202 418 165 418 c 0
 128 418 100 442 100 479 c 0
 100 516 128 540 165 540 c 0
EndSplineSet
EndChar

StartChar: less
Encoding: 60 60 32
Width: 600
GlyphClass: 2
Flags: W
LayerCount: 2
Fore
SplineSet
105 341 m 1
 105 360 l 1
 105 379 l 1
 483 605 l 1
 495 552 l 1
 171 360 l 1
 495 168 l 1
 483 115 l 1
 105 341 l 1
EndSplineSet
EndChar

StartChar: equal
Encoding: 61 61 33
Width: 600
GlyphClass: 2
Flags: W
LayerCount: 2
Fore
SplineSet
105 423 m 1
 105 473 l 1
 495 473 l 1
 495 423 l 1
 105 423 l 1
105 247 m 1
 105 297 l 1
 495 297 l 1
 495 247 l 1
 105 247 l 1
EndSplineSet
EndChar

StartChar: greater
Encoding: 62 62 34
Width: 600
GlyphClass: 2
Flags: W
LayerCount: 2
Fore
SplineSet
495 379 m 1
 495 360 l 1
 495 341 l 1
 117 115 l 1
 105 168 l 1
 429 360 l 1
 105 552 l 1
 117 605 l 1
 495 379 l 1
EndSplineSet
EndChar

StartChar: question
Encoding: 63 63 35
Width: 570
GlyphClass: 2
Flags: W
LayerCount: 2
Fore
SplineSet
70 653 m 0
 70 754 155 827 285 827 c 0
 406 827 490 758 490 638 c 0
 490 473 281 430 281 302 c 0
 281 282 285 259 295 238 c 1
 239 232 l 1
 227 257 220 281 220 305 c 0
 220 462 420 498 420 636 c 0
 420 735 358 773 284 773 c 0
 200 773 141 729 141 653 c 0
 141 629 146 605 156 583 c 1
 90 565 l 1
 78 593 70 623 70 653 c 0
285 120 m 0
 322 120 350 96 350 59 c 0
 350 22 322 -2 285 -2 c 0
 248 -2 220 22 220 59 c 0
 220 96 248 120 285 120 c 0
EndSplineSet
EndChar

StartChar: at
Encoding: 64 64 36
Width: 1020
GlyphClass: 2
Flags: W
LayerCount: 2
Fore
SplineSet
90 235 m 0
 90 491 261 780 559 780 c 0
 809 780 930 601 930 400 c 0
 930 234 835 42 700 42 c 0
 638 42 622 85 620 139 c 1
 586 80 539 38 473 38 c 0
 351 38 304 136 304 229 c 0
 304 369 403 560 588 560 c 0
 672 560 706 498 706 442 c 0
 706 400 694 356 681 301 c 0
 668 234 663 186 663 152 c 0
 663 95 675 79 700 79 c 0
 789 79 888 236 888 400 c 0
 888 589 779 743 559 743 c 0
 296 743 132 481 132 235 c 0
 132 29 245 -153 502 -153 c 0
 575 -153 659 -115 686 -98 c 1
 710 -129 l 1
 677 -150 589 -190 502 -190 c 0
 214 -190 90 17 90 235 c 0
473 80 m 0
 557 80 605 178 633 307 c 0
 646 360 656 408 656 442 c 0
 656 490 631 518 588 518 c 0
 457 518 357 365 357 229 c 0
 357 139 400 80 473 80 c 0
EndSplineSet
EndChar

StartChar: A
Encoding: 65 65 37
Width: 750
GlyphClass: 2
Flags: W
AnchorPoint: "LatinOgonek.mark" 670 0 basechar 0
AnchorPoint: "LatinBelow.mark" 375 0 basechar 0
AnchorPoint: "LatinAbove.mark" 375 150 basechar 0
LayerCount: 2
Fore
SplineSet
720 0 m 1
 640 0 l 1
 570 184 l 1
 180 184 l 1
 110 0 l 1
 30 0 l 1
 30 5 l 1
 344 780 l 1
 406 780 l 1
 720 5 l 1
 720 0 l 1
550 236 m 1
 375 698 l 1
 200 236 l 1
 550 236 l 1
EndSplineSet
EndChar

StartChar: B
Encoding: 66 66 38
Width: 745
GlyphClass: 2
Flags: W
AnchorPoint: "LatinBelow.mark" 320 0 basechar 0
AnchorPoint: "LatinAbove.mark" 320 150 basechar 0
LayerCount: 2
Fore
SplineSet
478 426 m 1
 595 401 675 331 675 216 c 0
 675 68 543 -9 369 -9 c 0
 266 -9 142 -3 105 0 c 1
 105 780 l 1
 137 783 243 789 334 789 c 0
 480 789 600 725 600 595 c 0
 600 509 549 454 478 426 c 1
369 437 m 1
 453 446 532 494 532 590 c 0
 532 692 446 737 328 737 c 0
 269 737 207 735 172 733 c 1
 172 432 l 1
 225 435 300 437 369 437 c 1
172 47 m 1
 218 45 297 43 363 43 c 0
 500 43 606 94 606 216 c 0
 606 338 500 388 363 388 c 0
 297 388 218 386 172 384 c 1
 172 47 l 1
EndSplineSet
EndChar

StartChar: C
Encoding: 67 67 39
Width: 755
GlyphClass: 2
Flags: W
AnchorPoint: "LatinCedilla.mark" 412 0 basechar 0
AnchorPoint: "LatinBelow.mark" 410 0 basechar 0
AnchorPoint: "LatinAbove.mark" 410 150 basechar 0
LayerCount: 2
Fore
SplineSet
75 407 m 2
 75 599 158 797 413 797 c 0
 600 797 686 674 700 595 c 1
 627 588 l 1
 615 653 548 742 413 742 c 0
 229 742 149 597 149 407 c 2
 149 373 l 2
 149 183 229 38 413 38 c 0
 548 38 615 127 627 192 c 1
 700 185 l 1
 686 106 600 -17 413 -17 c 0
 158 -17 75 181 75 373 c 2
 75 407 l 2
EndSplineSet
EndChar

StartChar: D
Encoding: 68 68 40
Width: 770
GlyphClass: 2
Flags: W
AnchorPoint: "LatinBelow.mark" 320 0 basechar 0
AnchorPoint: "LatinAbove.mark" 320 150 basechar 0
LayerCount: 2
Fore
SplineSet
175 48 m 1
 207 46 255 44 287 44 c 0
 537 44 624 188 624 372 c 2
 624 408 l 2
 624 592 537 736 287 736 c 0
 255 736 207 734 175 732 c 1
 175 48 l 1
105 780 m 1
 105 780 213 789 287 789 c 0
 592 789 695 601 695 408 c 2
 695 372 l 2
 695 179 592 -9 287 -9 c 0
 213 -9 105 0 105 0 c 1
 105 780 l 1
EndSplineSet
EndChar

StartChar: E
Encoding: 69 69 41
Width: 675
GlyphClass: 2
Flags: W
AnchorPoint: "LatinOgonek.mark" 545 0 basechar 0
AnchorPoint: "LatinBelow.mark" 350 0 basechar 0
AnchorPoint: "LatinAbove.mark" 350 150 basechar 0
LayerCount: 2
Fore
SplineSet
105 0 m 1
 105 780 l 1
 590 780 l 1
 590 725 l 1
 176 725 l 1
 176 411 l 1
 558 411 l 1
 558 359 l 1
 176 359 l 1
 176 55 l 1
 605 55 l 1
 605 0 l 1
 105 0 l 1
EndSplineSet
EndChar

StartChar: F
Encoding: 70 70 42
Width: 640
GlyphClass: 2
Flags: W
AnchorPoint: "LatinBelow.mark" 160 0 basechar 0
AnchorPoint: "LatinAbove.mark" 340 150 basechar 0
LayerCount: 2
Fore
SplineSet
105 0 m 1
 105 780 l 1
 580 780 l 1
 580 725 l 1
 176 725 l 1
 176 413 l 1
 548 413 l 1
 548 357 l 1
 176 357 l 1
 176 0 l 1
 105 0 l 1
EndSplineSet
EndChar

StartChar: G
Encoding: 71 71 43
Width: 770
GlyphClass: 2
Flags: W
AnchorPoint: "LatinBelow.mark" 410 0 basechar 0
AnchorPoint: "LatinAbove.mark" 410 150 basechar 0
LayerCount: 2
Fore
SplineSet
424 320 m 1
 424 371 l 1
 695 371 l 1
 695 139 l 1
 669 76 584 -17 413 -17 c 0
 158 -17 75 181 75 373 c 2
 75 407 l 2
 75 599 158 797 413 797 c 0
 600 797 686 674 700 595 c 1
 628 588 l 1
 616 653 548 743 413 743 c 0
 227 743 148 599 148 407 c 2
 148 373 l 2
 148 181 227 37 413 37 c 0
 541 37 602 93 630 143 c 1
 630 320 l 1
 424 320 l 1
EndSplineSet
EndChar

StartChar: H
Encoding: 72 72 44
Width: 790
GlyphClass: 2
Flags: W
AnchorPoint: "LatinBelow.mark" 395 0 basechar 0
AnchorPoint: "LatinAbove.mark" 395 150 basechar 0
LayerCount: 2
Fore
SplineSet
105 0 m 1
 105 780 l 1
 176 780 l 1
 176 418 l 1
 614 418 l 1
 614 780 l 1
 685 780 l 1
 685 0 l 1
 614 0 l 1
 614 362 l 1
 176 362 l 1
 176 0 l 1
 105 0 l 1
EndSplineSet
EndChar

StartChar: I
Encoding: 73 73 45
Width: 320
GlyphClass: 2
Flags: W
AnchorPoint: "LatinOgonek.mark" 165 0 basechar 0
AnchorPoint: "LatinBelow.mark" 160 0 basechar 0
AnchorPoint: "LatinAbove.mark" 160 150 basechar 0
LayerCount: 2
Fore
SplineSet
125 0 m 1
 125 780 l 1
 195 780 l 1
 195 0 l 1
 125 0 l 1
EndSplineSet
EndChar

StartChar: J
Encoding: 74 74 46
Width: 520
GlyphClass: 2
Flags: W
AnchorPoint: "LatinBelow.mark" 230 0 basechar 0
AnchorPoint: "LatinAbove.mark" 360 150 basechar 0
LayerCount: 2
Fore
SplineSet
35 132 m 1
 106 138 l 1
 116 76 157 36 225 36 c 0
 292 36 344 74 344 158 c 2
 344 780 l 1
 415 780 l 1
 415 158 l 2
 415 58 344 -17 225 -17 c 0
 107 -17 46 57 35 132 c 1
EndSplineSet
EndChar

StartChar: K
Encoding: 75 75 47
Width: 715
GlyphClass: 2
Flags: W
AnchorPoint: "LatinBelow.mark" 360 0 basechar 0
AnchorPoint: "LatinAbove.mark" 360 150 basechar 0
LayerCount: 2
Fore
SplineSet
105 0 m 1
 105 780 l 1
 173 780 l 1
 173 350 l 1
 564 780 l 1
 642 774 l 1
 642 770 l 1
 343 454 l 1
 695 4 l 1
 695 0 l 1
 611 0 l 1
 298 407 l 1
 173 274 l 1
 173 0 l 1
 105 0 l 1
EndSplineSet
EndChar

StartChar: L
Encoding: 76 76 48
Width: 570
GlyphClass: 2
Flags: W
AnchorPoint: "LatinBelow.mark" 320 0 basechar 0
AnchorPoint: "LatinAbove.mark" 160 150 basechar 0
LayerCount: 2
Fore
SplineSet
105 0 m 1
 105 780 l 1
 176 780 l 1
 176 55 l 1
 530 55 l 1
 530 0 l 1
 105 0 l 1
EndSplineSet
EndChar

StartChar: M
Encoding: 77 77 49
Width: 880
GlyphClass: 2
Flags: W
AnchorPoint: "LatinBelow.mark" 440 0 basechar 0
AnchorPoint: "LatinAbove.mark" 440 150 basechar 0
LayerCount: 2
Fore
SplineSet
775 0 m 1
 706 0 l 1
 706 647 l 1
 459 195 l 1
 421 195 l 1
 174 647 l 1
 174 0 l 1
 105 0 l 1
 105 773 l 1
 164 780 l 1
 440 267 l 1
 716 780 l 1
 775 773 l 1
 775 0 l 1
EndSplineSet
EndChar

StartChar: N
Encoding: 78 78 50
Width: 790
GlyphClass: 2
Flags: W
AnchorPoint: "LatinBelow.mark" 395 0 basechar 0
AnchorPoint: "LatinAbove.mark" 395 150 basechar 0
LayerCount: 2
Fore
SplineSet
105 0 m 1
 105 773 l 1
 166 780 l 1
 616 113 l 1
 616 780 l 1
 685 780 l 1
 685 0 l 1
 624 0 l 1
 174 667 l 1
 174 0 l 1
 105 0 l 1
EndSplineSet
EndChar

StartChar: O
Encoding: 79 79 51
Width: 820
GlyphClass: 2
Flags: W
AnchorPoint: "LatinOgonek.mark" 480 0 basechar 0
AnchorPoint: "LatinBelow.mark" 410 0 basechar 0
AnchorPoint: "LatinAbove.mark" 410 150 basechar 0
LayerCount: 2
Fore
SplineSet
75 372 m 2
 75 408 l 2
 75 599 156 797 410 797 c 0
 664 797 745 599 745 408 c 2
 745 372 l 2
 745 181 664 -17 410 -17 c 0
 156 -17 75 181 75 372 c 2
410 37 m 0
 595 37 672 183 672 372 c 2
 672 408 l 2
 672 597 595 743 410 743 c 0
 225 743 148 597 148 408 c 2
 148 372 l 2
 148 183 225 37 410 37 c 0
EndSplineSet
EndChar

StartChar: P
Encoding: 80 80 52
Width: 710
GlyphClass: 2
Flags: W
AnchorPoint: "LatinBelow.mark" 160 0 basechar 0
AnchorPoint: "LatinAbove.mark" 360 150 basechar 0
LayerCount: 2
Fore
SplineSet
174 394 m 1
 215 392 279 390 343 390 c 0
 480 390 585 442 585 564 c 0
 585 686 480 737 343 737 c 0
 279 737 215 735 174 733 c 1
 174 394 l 1
174 343 m 1
 174 0 l 1
 105 0 l 1
 105 347 l 1
 105 780 l 1
 142 783 246 789 349 789 c 0
 523 789 655 712 655 564 c 0
 655 416 523 338 349 338 c 0
 286 338 222 341 174 343 c 1
EndSplineSet
EndChar

StartChar: Q
Encoding: 81 81 53
Width: 820
GlyphClass: 2
Flags: W
AnchorPoint: "LatinBelow.mark" 410 0 basechar 0
AnchorPoint: "LatinAbove.mark" 410 150 basechar 0
LayerCount: 2
Fore
SplineSet
75 372 m 2
 75 408 l 2
 75 599 156 797 410 797 c 0
 664 797 745 599 745 408 c 2
 745 372 l 2
 745 279 726 186 677 113 c 1
 790 23 l 1
 758 -19 l 1
 645 73 l 1
 593 18 517 -17 410 -17 c 0
 156 -17 75 181 75 372 c 2
395 276 m 1
 425 314 l 1
 624 155 l 1
 657 213 672 288 672 372 c 2
 672 408 l 2
 672 597 595 743 410 743 c 0
 225 743 148 597 148 408 c 2
 148 372 l 2
 148 183 225 37 410 37 c 0
 492 37 553 66 595 114 c 1
 395 276 l 1
EndSplineSet
EndChar

StartChar: R
Encoding: 82 82 54
Width: 730
GlyphClass: 2
Flags: W
AnchorPoint: "LatinBelow.mark" 360 0 basechar 0
AnchorPoint: "LatinAbove.mark" 360 150 basechar 0
LayerCount: 2
Fore
SplineSet
174 394 m 1
 215 392 279 390 343 390 c 0
 480 390 585 442 585 564 c 0
 585 686 480 737 343 737 c 0
 279 737 215 735 174 733 c 1
 174 394 l 1
329 338 m 1
 273 338 217 341 174 343 c 1
 174 0 l 1
 105 0 l 1
 105 347 l 1
 105 780 l 1
 142 783 246 789 349 789 c 0
 523 789 655 712 655 564 c 0
 655 432 550 356 405 341 c 1
 685 4 l 1
 685 0 l 1
 604 0 l 1
 329 338 l 1
EndSplineSet
EndChar

StartChar: S
Encoding: 83 83 55
Width: 710
GlyphClass: 2
Flags: W
AnchorPoint: "LatinCedilla.mark" 380 0 basechar 0
AnchorPoint: "LatinBelow.mark" 355 0 basechar 0
AnchorPoint: "LatinAbove.mark" 355 150 basechar 0
LayerCount: 2
Fore
SplineSet
70 175 m 1
 139 184 l 1
 150 119 218 36 356 36 c 0
 498 36 572 99 572 194 c 0
 572 283 505 321 453 336 c 0
 395 352 307 381 247 403 c 0
 179 428 90 482 90 588 c 0
 90 710 196 797 356 797 c 0
 522 797 606 687 620 609 c 1
 550 600 l 1
 538 665 474 744 356 744 c 0
 234 744 159 684 159 591 c 0
 159 515 222 481 278 460 c 0
 336 439 421 411 477 395 c 0
 552 373 640 314 640 196 c 0
 640 73 536 -17 356 -17 c 0
 172 -17 85 96 70 175 c 1
EndSplineSet
EndChar

StartChar: T
Encoding: 84 84 56
Width: 620
GlyphClass: 2
Flags: W
AnchorPoint: "LatinCedilla.mark" 320 0 basechar 0
AnchorPoint: "LatinBelow.mark" 310 0 basechar 0
AnchorPoint: "LatinAbove.mark" 310 150 basechar 0
LayerCount: 2
Fore
SplineSet
45 726 m 1
 45 780 l 1
 575 780 l 1
 575 726 l 1
 345 726 l 1
 345 0 l 1
 275 0 l 1
 275 726 l 1
 45 726 l 1
EndSplineSet
EndChar

StartChar: U
Encoding: 85 85 57
Width: 770
GlyphClass: 2
Flags: W
AnchorPoint: "LatinOgonek.mark" 480 0 basechar 0
AnchorPoint: "LatinBelow.mark" 385 0 basechar 0
AnchorPoint: "LatinAbove.mark" 385 150 basechar 0
LayerCount: 2
Fore
SplineSet
95 232 m 2
 95 780 l 1
 166 780 l 1
 166 232 l 2
 166 108 255 37 385 37 c 0
 515 37 604 108 604 232 c 2
 604 780 l 1
 675 780 l 1
 675 232 l 2
 675 86 560 -17 385 -17 c 0
 210 -17 95 86 95 232 c 2
EndSplineSet
EndChar

StartChar: V
Encoding: 86 86 58
Width: 750
GlyphClass: 2
Flags: W
AnchorPoint: "LatinBelow.mark" 375 0 basechar 0
AnchorPoint: "LatinAbove.mark" 375 150 basechar 0
LayerCount: 2
Fore
SplineSet
35 769 m 1
 35 774 l 1
 118 780 l 1
 375 84 l 1
 632 780 l 1
 715 774 l 1
 715 769 l 1
 406 0 l 1
 344 0 l 1
 35 769 l 1
EndSplineSet
EndChar

StartChar: W
Encoding: 87 87 59
Width: 1060
GlyphClass: 2
Flags: W
AnchorPoint: "LatinBelow.mark" 530 0 basechar 0
AnchorPoint: "LatinAbove.mark" 530 150 basechar 0
LayerCount: 2
Fore
SplineSet
1020 769 m 1
 788 0 l 1
 725 0 l 1
 530 659 l 1
 335 0 l 1
 272 0 l 1
 40 769 l 1
 40 773 l 1
 118 780 l 1
 308 96 l 1
 500 760 l 1
 560 760 l 1
 752 96 l 1
 942 780 l 1
 1020 773 l 1
 1020 769 l 1
EndSplineSet
EndChar

StartChar: X
Encoding: 88 88 60
Width: 740
GlyphClass: 2
Flags: W
AnchorPoint: "LatinBelow.mark" 370 0 basechar 0
AnchorPoint: "LatinAbove.mark" 370 150 basechar 0
LayerCount: 2
Fore
SplineSet
70 768 m 1
 70 773 l 1
 147 780 l 1
 370 459 l 1
 593 780 l 1
 670 773 l 1
 670 768 l 1
 410 415 l 1
 720 5 l 1
 720 0 l 1
 638 0 l 1
 370 361 l 1
 102 0 l 1
 20 0 l 1
 20 5 l 1
 330 415 l 1
 70 768 l 1
EndSplineSet
EndChar

StartChar: Y
Encoding: 89 89 61
Width: 670
GlyphClass: 2
Flags: W
AnchorPoint: "LatinBelow.mark" 335 0 basechar 0
AnchorPoint: "LatinAbove.mark" 335 150 basechar 0
LayerCount: 2
Fore
SplineSet
25 769 m 1
 25 774 l 1
 104 780 l 1
 335 373 l 1
 566 780 l 1
 645 774 l 1
 645 769 l 1
 370 304 l 1
 370 0 l 1
 300 0 l 1
 300 304 l 1
 25 769 l 1
EndSplineSet
EndChar

StartChar: Z
Encoding: 90 90 62
Width: 670
GlyphClass: 2
Flags: W
AnchorPoint: "LatinBelow.mark" 335 0 basechar 0
AnchorPoint: "LatinAbove.mark" 335 150 basechar 0
LayerCount: 2
Fore
SplineSet
50 41 m 1
 515 724 l 1
 72 724 l 1
 72 780 l 1
 604 780 l 1
 610 739 l 1
 145 56 l 1
 620 56 l 1
 620 0 l 1
 55 0 l 1
 50 41 l 1
EndSplineSet
EndChar

StartChar: bracketleft
Encoding: 91 91 63
Width: 435
GlyphClass: 2
Flags: W
LayerCount: 2
Fore
SplineSet
135 -120 m 1
 135 900 l 1
 330 900 l 1
 330 856 l 1
 193 856 l 1
 193 -76 l 1
 328 -76 l 1
 328 -120 l 1
 135 -120 l 1
EndSplineSet
EndChar

StartChar: backslash
Encoding: 92 92 64
Width: 510
GlyphClass: 2
Flags: W
LayerCount: 2
Fore
SplineSet
450 0 m 1
 390 0 l 1
 60 776 l 1
 60 780 l 1
 121 780 l 1
 450 4 l 1
 450 0 l 1
EndSplineSet
EndChar

StartChar: bracketright
Encoding: 93 93 65
Width: 435
GlyphClass: 2
Flags: W
LayerCount: 2
Fore
SplineSet
300 900 m 1
 300 -120 l 1
 105 -120 l 1
 105 -76 l 1
 242 -76 l 1
 242 856 l 1
 107 856 l 1
 107 900 l 1
 300 900 l 1
EndSplineSet
EndChar

StartChar: asciicircum
Encoding: 94 94 66
Width: 630
GlyphClass: 2
Flags: W
LayerCount: 2
Fore
SplineSet
45 582 m 1
 300 877 l 1
 330 877 l 1
 585 582 l 1
 550 557 l 1
 315 805 l 1
 80 557 l 1
 45 582 l 1
EndSplineSet
EndChar

StartChar: underscore
Encoding: 95 95 67
Width: 600
GlyphClass: 2
Flags: W
LayerCount: 2
Fore
SplineSet
0 0 m 1
 600 0 l 1
 600 -52 l 1
 0 -52 l 1
 0 0 l 1
EndSplineSet
EndChar

StartChar: grave
Encoding: 96 96 68
Width: 390
GlyphClass: 2
Flags: W
LayerCount: 2
Fore
SplineSet
15 837 m 1
 67 875 l 1
 345 582 l 1
 310 557 l 1
 15 837 l 1
EndSplineSet
EndChar

StartChar: a
Encoding: 97 97 69
Width: 625
GlyphClass: 2
Flags: W
AnchorPoint: "LatinOgonek.mark" 515 0 basechar 0
AnchorPoint: "LatinBelow.mark" 330 0 basechar 0
AnchorPoint: "LatinAbove.mark" 310 0 basechar 0
LayerCount: 2
Fore
SplineSet
70 171 m 0
 70 249 132 316 250 316 c 0
 331 316 408 309 460 302 c 1
 460 425 l 2
 460 519 394 567 300 567 c 0
 208 567 154 513 142 433 c 1
 75 438 l 1
 88 531 162 617 300 617 c 0
 436 617 525 539 525 425 c 2
 525 132 l 2
 525 67 546 39 600 33 c 1
 583 -12 l 1
 535 -6 477 19 470 103 c 1
 436 43 377 -12 277 -12 c 0
 154 -12 70 56 70 171 c 0
463 259 m 1
 417 265 343 275 253 275 c 0
 184 275 135 236 135 171 c 0
 135 77 202 31 283 31 c 0
 396 31 446 126 463 204 c 1
 463 259 l 1
EndSplineSet
Substitution2: "Latin.ss20 subtable" uni0251
Substitution2: "Latin.ss19 subtable" uni0251
EndChar

StartChar: b
Encoding: 98 98 70
Width: 675
GlyphClass: 2
Flags: W
AnchorPoint: "LatinBelow.mark" 360 0 basechar 0
AnchorPoint: "LatinAbove.mark" 135 180 basechar 0
LayerCount: 2
Fore
SplineSet
605 313 m 2
 605 287 l 2
 605 142 542 -12 357 -12 c 0
 259 -12 198 50 163 118 c 1
 157 0 l 1
 100 0 l 1
 100 810 l 1
 165 810 l 1
 165 489 l 1
 202 554 263 612 357 612 c 0
 542 612 605 458 605 313 c 2
165 385 m 1
 165 215 l 1
 185 134 242 38 350 38 c 0
 478 38 538 141 538 287 c 2
 538 313 l 2
 538 459 478 562 350 562 c 0
 242 562 185 466 165 385 c 1
EndSplineSet
EndChar

StartChar: c
Encoding: 99 99 71
Width: 605
GlyphClass: 2
Flags: W
AnchorPoint: "LatinCedilla.mark" 330 0 basechar 0
AnchorPoint: "LatinBelow.mark" 330 0 basechar 0
AnchorPoint: "LatinAbove.mark" 330 0 basechar 0
LayerCount: 2
Fore
SplineSet
70 287 m 2
 70 313 l 2
 70 460 131 617 331 617 c 0
 478 617 545 520 555 457 c 1
 488 451 l 1
 479 500 428 567 331 567 c 0
 198 567 138 459 138 313 c 2
 138 287 l 2
 138 141 198 33 331 33 c 0
 428 33 479 100 488 149 c 1
 555 143 l 1
 545 80 478 -17 331 -17 c 0
 131 -17 70 140 70 287 c 2
EndSplineSet
EndChar

StartChar: d
Encoding: 100 100 72
Width: 680
GlyphClass: 2
Flags: W
AnchorPoint: "LatinBelow.mark" 360 0 basechar 0
AnchorPoint: "LatinAbove.mark" 525 180 basechar 0
LayerCount: 2
Fore
SplineSet
70 287 m 2
 70 313 l 2
 70 458 133 612 318 612 c 0
 414 612 474 552 510 486 c 1
 510 810 l 1
 575 810 l 1
 575 132 l 2
 575 67 596 39 650 33 c 1
 633 -12 l 1
 581 -6 519 22 519 121 c 1
 515 120 l 1
 479 51 417 -12 318 -12 c 0
 133 -12 70 142 70 287 c 2
510 385 m 1
 490 466 433 562 325 562 c 0
 197 562 137 459 137 313 c 2
 137 287 l 2
 137 141 197 38 325 38 c 0
 433 38 490 134 510 215 c 1
 510 385 l 1
EndSplineSet
EndChar

StartChar: e
Encoding: 101 101 73
Width: 640
GlyphClass: 2
Flags: W
AnchorPoint: "LatinOgonek.mark" 410 0 basechar 0
AnchorPoint: "LatinBelow.mark" 330 0 basechar 0
AnchorPoint: "LatinAbove.mark" 330 0 basechar 0
LayerCount: 2
Fore
SplineSet
70 286 m 2
 70 314 l 2
 70 460 132 617 327 617 c 0
 486 617 570 501 570 364 c 0
 570 341 568 316 563 293 c 1
 135 293 l 1
 135 286 l 2
 135 140 193 32 327 32 c 0
 427 32 477 99 486 148 c 1
 551 142 l 1
 540 78 472 -17 327 -17 c 0
 130 -17 70 140 70 286 c 2
136 337 m 1
 506 337 l 1
 507 346 507 355 507 364 c 0
 507 492 436 569 327 569 c 0
 201 569 142 470 136 337 c 1
EndSplineSet
EndChar

StartChar: f
Encoding: 102 102 74
Width: 400
GlyphClass: 2
Flags: W
AnchorPoint: "LatinBelow.mark" 180 0 basechar 0
AnchorPoint: "LatinAbove.mark" 270 180 basechar 0
LayerCount: 2
Fore
SplineSet
40 556 m 1
 40 600 l 1
 140 600 l 1
 140 688 l 2
 140 748 176 827 283 827 c 0
 358 827 401 795 415 785 c 1
 384 748 l 1
 371 757 340 779 287 779 c 0
 231 779 205 737 205 688 c 2
 205 600 l 1
 370 600 l 1
 370 556 l 1
 207 556 l 1
 207 0 l 1
 140 0 l 1
 140 556 l 1
 40 556 l 1
EndSplineSet
EndChar

StartChar: g
Encoding: 103 103 75
Width: 670
GlyphClass: 2
Flags: W
AnchorPoint: "LatinBelow.mark" 360 -180 basechar 0
AnchorPoint: "LatinAbove.mark" 360 0 basechar 0
LayerCount: 2
Fore
SplineSet
70 315 m 0
 70 455 133 612 318 612 c 0
 416 612 476 548 512 479 c 1
 518 600 l 1
 575 600 l 1
 575 -36 l 2
 575 -149 486 -227 349 -227 c 0
 213 -227 139 -159 125 -112 c 1
 187 -95 l 1
 197 -127 248 -179 349 -179 c 0
 446 -179 512 -129 512 -36 c 2
 512 151 l 1
 477 82 416 18 318 18 c 0
 133 18 70 175 70 315 c 0
510 381 m 1
 490 463 433 562 325 562 c 0
 197 562 137 456 137 315 c 0
 137 174 197 68 325 68 c 0
 433 68 490 167 510 249 c 1
 510 381 l 1
EndSplineSet
Substitution2: "Latin.ss20 subtable" g.alt
Substitution2: "Latin.ss18 subtable" g.alt
EndChar

StartChar: h
Encoding: 104 104 76
Width: 665
GlyphClass: 2
Flags: W
AnchorPoint: "LatinBelow.mark" 360 0 basechar 0
AnchorPoint: "LatinAbove.mark" 135 180 basechar 0
LayerCount: 2
Fore
SplineSet
100 0 m 1
 100 810 l 1
 165 810 l 1
 165 414 l 1
 205 512 283 612 408 612 c 0
 524 612 580 530 580 426 c 2
 580 0 l 1
 513 0 l 1
 513 424 l 2
 513 516 465 558 393 558 c 0
 271 558 185 418 167 305 c 1
 167 0 l 1
 100 0 l 1
EndSplineSet
EndChar

StartChar: i
Encoding: 105 105 77
Width: 300
GlyphClass: 3
Flags: W
AnchorPoint: "LatinOgonek.mark" 155 0 basechar 0
AnchorPoint: "LatinBelow.mark" 150 0 basechar 0
AnchorPoint: "LatinAbove.mark" 150 180 basechar 0
LayerCount: 2
Fore
SplineSet
116 0 m 1
 116 600 l 1
 184 600 l 1
 184 0 l 1
 116 0 l 1
150 841 m 0
 187 841 215 817 215 780 c 0
 215 743 187 719 150 719 c 0
 113 719 85 743 85 780 c 0
 85 817 113 841 150 841 c 0
EndSplineSet
Substitution2: "Latin.ij.dotless subtable" dotlessi
Ligature2: "Latin.ij subtable" dotlessi uni0307
EndChar

StartChar: j
Encoding: 106 106 78
Width: 310
GlyphClass: 3
Flags: W
AnchorPoint: "LatinBelow.mark" 150 -180 basechar 0
AnchorPoint: "LatinAbove.mark" 150 180 basechar 0
LayerCount: 2
Fore
SplineSet
5 -178 m 1
 75 -151 127 -109 127 -24 c 2
 127 600 l 1
 193 600 l 1
 193 -27 l 2
 193 -132 116 -191 26 -222 c 1
 5 -178 l 1
160 841 m 0
 197 841 225 817 225 780 c 0
 225 743 197 719 160 719 c 0
 123 719 95 743 95 780 c 0
 95 817 123 841 160 841 c 0
EndSplineSet
Substitution2: "Latin.ij.dotless subtable" uni0237
Ligature2: "Latin.ij subtable" uni0237 uni0307
Ligature2: "Latin.ij subtable" uni0237 uni200D uni0307
Ligature2: "Latin.ij subtable" dotlessi uni200D uni0307
EndChar

StartChar: k
Encoding: 107 107 79
Width: 605
GlyphClass: 2
Flags: W
AnchorPoint: "LatinBelow.mark" 360 0 basechar 0
AnchorPoint: "LatinAbove.mark" 135 180 basechar 0
LayerCount: 2
Fore
SplineSet
110 0 m 1
 110 810 l 1
 174 810 l 1
 174 280 l 1
 473 600 l 1
 545 595 l 1
 545 592 l 1
 308 347 l 1
 585 3 l 1
 585 0 l 1
 508 0 l 1
 266 304 l 1
 174 208 l 1
 174 0 l 1
 110 0 l 1
EndSplineSet
EndChar

StartChar: l
Encoding: 108 108 80
Width: 315
GlyphClass: 2
Flags: W
AnchorPoint: "LatinBelow.mark" 190 0 basechar 0
AnchorPoint: "LatinAbove.mark" 140 180 basechar 0
LayerCount: 2
Fore
SplineSet
110 117 m 2
 110 810 l 1
 177 810 l 1
 177 122 l 2
 177 58 225 40 295 34 c 1
 281 -12 l 1
 205 -6 110 16 110 117 c 2
EndSplineSet
EndChar

StartChar: m
Encoding: 109 109 81
Width: 945
GlyphClass: 2
Flags: W
AnchorPoint: "LatinBelow.mark" 480 0 basechar 0
AnchorPoint: "LatinAbove.mark" 480 0 basechar 0
LayerCount: 2
Fore
SplineSet
90 597 m 1
 150 603 l 1
 164 447 l 1
 195 528 252 604 353 604 c 0
 451 604 504 538 512 449 c 1
 543 530 599 604 700 604 c 0
 807 604 860 525 860 425 c 2
 860 0 l 1
 793 0 l 1
 793 423 l 2
 793 512 749 551 685 551 c 0
 580 551 526 425 513 322 c 1
 513 0 l 1
 447 0 l 1
 447 423 l 2
 447 512 402 551 338 551 c 0
 233 551 180 425 167 322 c 1
 167 0 l 1
 100 0 l 1
 100 420 l 1
 90 597 l 1
EndSplineSet
EndChar

StartChar: n
Encoding: 110 110 82
Width: 655
GlyphClass: 2
Flags: W
AnchorPoint: "LatinBelow.mark" 360 0 basechar 0
AnchorPoint: "LatinAbove.mark" 330 0 basechar 0
LayerCount: 2
Fore
SplineSet
100 0 m 1
 100 420 l 1
 90 597 l 1
 150 603 l 1
 167 421 l 1
 207 517 283 612 402 612 c 0
 515 612 570 530 570 426 c 2
 570 0 l 1
 503 0 l 1
 503 424 l 2
 503 516 455 558 387 558 c 0
 268 558 184 418 167 305 c 1
 167 0 l 1
 100 0 l 1
EndSplineSet
Substitution2: "Latin.sups subtable" n.sups
EndChar

StartChar: o
Encoding: 111 111 83
Width: 660
GlyphClass: 2
Flags: W
AnchorPoint: "LatinOgonek.mark" 400 0 basechar 0
AnchorPoint: "LatinBelow.mark" 330 0 basechar 0
AnchorPoint: "LatinAbove.mark" 330 0 basechar 0
LayerCount: 2
Fore
SplineSet
70 286 m 2
 70 314 l 2
 70 460 130 617 330 617 c 0
 530 617 590 460 590 314 c 2
 590 286 l 2
 590 140 530 -17 330 -17 c 0
 130 -17 70 140 70 286 c 2
330 33 m 0
 464 33 523 140 523 286 c 2
 523 314 l 2
 523 460 464 567 330 567 c 0
 196 567 137 460 137 314 c 2
 137 286 l 2
 137 140 196 33 330 33 c 0
EndSplineSet
EndChar

StartChar: p
Encoding: 112 112 84
Width: 675
GlyphClass: 2
Flags: W
AnchorPoint: "LatinBelow.mark" 150 -180 basechar 0
AnchorPoint: "LatinAbove.mark" 330 0 basechar 0
LayerCount: 2
Fore
SplineSet
605 313 m 2
 605 287 l 2
 605 142 542 -12 357 -12 c 0
 263 -12 203 46 167 111 c 1
 167 -210 l 1
 100 -210 l 1
 100 420 l 1
 90 597 l 1
 150 603 l 1
 161 482 l 1
 197 550 260 612 357 612 c 0
 542 612 605 458 605 313 c 2
167 207 m 1
 189 127 245 38 350 38 c 0
 478 38 538 141 538 287 c 2
 538 313 l 2
 538 459 478 562 350 562 c 0
 245 562 189 473 167 393 c 1
 167 207 l 1
EndSplineSet
EndChar

StartChar: q
Encoding: 113 113 85
Width: 675
GlyphClass: 2
Flags: W
AnchorPoint: "LatinBelow.mark" 535 -240 basechar 0
AnchorPoint: "LatinAbove.mark" 360 0 basechar 0
LayerCount: 2
Fore
SplineSet
70 287 m 2
 70 313 l 2
 70 458 133 612 318 612 c 0
 416 612 477 550 512 482 c 1
 518 600 l 1
 575 600 l 1
 575 -210 l 1
 510 -210 l 1
 510 111 l 1
 473 46 412 -12 318 -12 c 0
 133 -12 70 142 70 287 c 2
510 215 m 1
 510 385 l 1
 490 466 433 562 325 562 c 0
 197 562 137 459 137 313 c 2
 137 287 l 2
 137 141 197 38 325 38 c 0
 433 38 490 134 510 215 c 1
EndSplineSet
EndChar

StartChar: r
Encoding: 114 114 86
Width: 435
GlyphClass: 2
Flags: W
AnchorPoint: "LatinBelow.mark" 170 0 basechar 0
AnchorPoint: "LatinAbove.mark" 240 0 basechar 0
LayerCount: 2
Fore
SplineSet
85 596 m 1
 142 603 l 1
 175 442 l 1
 198 528 248 612 350 612 c 0
 377 612 401 607 420 598 c 1
 394 542 l 1
 379 549 361 553 340 553 c 0
 241 553 199 439 187 338 c 1
 187 0 l 1
 120 0 l 1
 120 420 l 1
 85 596 l 1
EndSplineSet
EndChar

StartChar: s
Encoding: 115 115 87
Width: 570
GlyphClass: 2
Flags: W
AnchorPoint: "LatinCedilla.mark" 310 0 basechar 0
AnchorPoint: "LatinBelow.mark" 285 0 basechar 0
AnchorPoint: "LatinAbove.mark" 285 0 basechar 0
LayerCount: 2
Fore
SplineSet
60 134 m 1
 125 142 l 1
 133 92 184 32 287 32 c 0
 390 32 446 78 446 149 c 0
 446 214 395 245 357 256 c 0
 312 270 246 291 201 307 c 0
 147 326 76 366 76 452 c 0
 76 547 158 617 285 617 c 0
 418 617 483 531 494 469 c 1
 429 461 l 1
 420 510 375 568 285 568 c 0
 195 568 140 524 140 454 c 0
 140 398 188 369 228 356 c 0
 272 341 340 320 382 307 c 0
 442 289 510 246 510 151 c 0
 510 54 425 -17 285 -17 c 0
 139 -17 71 71 60 134 c 1
EndSplineSet
EndChar

StartChar: t
Encoding: 116 116 88
Width: 415
GlyphClass: 2
Flags: W
AnchorPoint: "LatinCedilla.mark" 270 0 basechar 0
AnchorPoint: "LatinBelow.mark" 280 0 basechar 0
AnchorPoint: "LatinAbove.mark" 180 120 basechar 0
LayerCount: 2
Fore
SplineSet
40 556 m 1
 40 600 l 1
 142 600 l 1
 142 730 l 1
 206 735 l 1
 206 600 l 1
 370 600 l 1
 370 556 l 1
 207 556 l 1
 207 123 l 2
 207 55 230 37 276 37 c 0
 323 37 368 54 384 65 c 1
 400 20 l 1
 375 4 325 -12 269 -12 c 0
 191 -12 140 24 140 115 c 2
 140 556 l 1
 40 556 l 1
EndSplineSet
EndChar

StartChar: u
Encoding: 117 117 89
Width: 620
GlyphClass: 2
Flags: W
AnchorPoint: "LatinOgonek.mark" 380 0 basechar 0
AnchorPoint: "LatinBelow.mark" 310 0 basechar 0
AnchorPoint: "LatinAbove.mark" 310 0 basechar 0
LayerCount: 2
Fore
SplineSet
80 181 m 2
 80 600 l 1
 147 600 l 1
 147 181 l 2
 147 86 214 33 310 33 c 0
 406 33 473 86 473 181 c 2
 473 600 l 1
 540 600 l 1
 540 181 l 2
 540 66 450 -17 310 -17 c 0
 170 -17 80 66 80 181 c 2
EndSplineSet
EndChar

StartChar: v
Encoding: 118 118 90
Width: 600
GlyphClass: 2
Flags: W
AnchorPoint: "LatinBelow.mark" 300 0 basechar 0
AnchorPoint: "LatinAbove.mark" 300 0 basechar 0
LayerCount: 2
Fore
SplineSet
22 588 m 1
 22 593 l 1
 120 600 l 1
 300 100 l 1
 480 600 l 1
 578 593 l 1
 578 588 l 1
 336 0 l 1
 264 0 l 1
 22 588 l 1
EndSplineSet
EndChar

StartChar: w
Encoding: 119 119 91
Width: 830
GlyphClass: 2
Flags: W
AnchorPoint: "LatinBelow.mark" 415 0 basechar 0
AnchorPoint: "LatinAbove.mark" 415 0 basechar 0
LayerCount: 2
Fore
SplineSet
795 590 m 1
 617 0 l 1
 559 0 l 1
 415 490 l 1
 271 0 l 1
 213 0 l 1
 35 590 l 1
 35 594 l 1
 106 600 l 1
 246 93 l 1
 387 585 l 1
 443 585 l 1
 584 93 l 1
 724 600 l 1
 795 594 l 1
 795 590 l 1
EndSplineSet
EndChar

StartChar: x
Encoding: 120 120 92
Width: 600
GlyphClass: 2
Flags: W
AnchorPoint: "LatinBelow.mark" 300 0 basechar 0
AnchorPoint: "LatinAbove.mark" 300 0 basechar 0
LayerCount: 2
Fore
SplineSet
65 591 m 1
 65 595 l 1
 136 600 l 1
 300 366 l 1
 464 600 l 1
 535 595 l 1
 535 591 l 1
 337 325 l 1
 575 3 l 1
 575 0 l 1
 501 0 l 1
 300 274 l 1
 99 0 l 1
 25 0 l 1
 25 3 l 1
 263 325 l 1
 65 591 l 1
EndSplineSet
EndChar

StartChar: y
Encoding: 121 121 93
Width: 600
GlyphClass: 2
Flags: W
AnchorPoint: "LatinBelow.mark" 300 -180 basechar 0
AnchorPoint: "LatinAbove.mark" 300 0 basechar 0
LayerCount: 2
Fore
SplineSet
30 591 m 1
 30 595 l 1
 102 600 l 1
 300 74 l 1
 498 600 l 1
 570 595 l 1
 570 591 l 1
 316 -34 l 2
 282 -110 235 -227 139 -227 c 0
 92 -227 62 -204 40 -185 c 1
 74 -143 l 1
 92 -161 110 -180 138 -180 c 0
 189 -180 225 -101 260 -21 c 2
 271 3 l 1
 30 591 l 1
EndSplineSet
EndChar

StartChar: z
Encoding: 122 122 94
Width: 530
GlyphClass: 2
Flags: W
AnchorPoint: "LatinBelow.mark" 265 0 basechar 0
AnchorPoint: "LatinAbove.mark" 265 0 basechar 0
LayerCount: 2
Fore
SplineSet
45 36 m 1
 389 551 l 1
 63 551 l 1
 63 600 l 1
 473 600 l 1
 478 564 l 1
 134 49 l 1
 485 49 l 1
 485 0 l 1
 49 0 l 1
 45 36 l 1
EndSplineSet
EndChar

StartChar: braceleft
Encoding: 123 123 95
Width: 390
GlyphClass: 2
Flags: W
LayerCount: 2
Fore
SplineSet
60 376 m 1
 60 390 l 1
 60 404 l 1
 101 409 158 450 158 537 c 0
 158 578 127 681 127 740 c 0
 127 840 178 900 260 900 c 2
 300 900 l 1
 300 863 l 1
 267 863 l 2
 225 863 187 835 187 737 c 0
 187 684 217 581 217 532 c 0
 217 457 176 410 131 390 c 1
 176 370 217 323 217 248 c 0
 217 199 187 96 187 43 c 0
 187 -55 225 -83 267 -83 c 2
 300 -83 l 1
 300 -120 l 1
 260 -120 l 2
 178 -120 127 -60 127 40 c 0
 127 99 158 202 158 243 c 0
 158 330 101 371 60 376 c 1
EndSplineSet
EndChar

StartChar: bar
Encoding: 124 124 96
Width: 360
GlyphClass: 2
Flags: W
LayerCount: 2
Fore
SplineSet
150 -120 m 1
 150 900 l 1
 210 900 l 1
 210 -120 l 1
 150 -120 l 1
EndSplineSet
EndChar

StartChar: braceright
Encoding: 125 125 97
Width: 390
GlyphClass: 2
Flags: W
LayerCount: 2
Fore
SplineSet
330 404 m 1
 330 390 l 1
 330 376 l 1
 289 371 232 330 232 243 c 0
 232 202 263 99 263 40 c 0
 263 -60 212 -120 130 -120 c 2
 90 -120 l 1
 90 -83 l 1
 123 -83 l 2
 165 -83 203 -55 203 43 c 0
 203 96 173 199 173 248 c 0
 173 323 214 370 259 390 c 1
 214 410 173 457 173 532 c 0
 173 581 203 684 203 737 c 0
 203 835 165 863 123 863 c 2
 90 863 l 1
 90 900 l 1
 130 900 l 2
 212 900 263 840 263 740 c 0
 263 681 232 578 232 537 c 0
 232 450 289 409 330 404 c 1
EndSplineSet
EndChar

StartChar: asciitilde
Encoding: 126 126 98
Width: 600
GlyphClass: 2
Flags: W
LayerCount: 2
Fore
SplineSet
60 334 m 1
 81 391 118 473 199 473 c 0
 254 473 290 437 319 408 c 0
 349 378 373 356 402 356 c 0
 448 356 481 414 495 460 c 1
 540 446 l 1
 521 389 482 307 401 307 c 0
 346 307 310 343 281 372 c 0
 251 402 227 424 198 424 c 0
 151 424 120 366 105 320 c 1
 60 334 l 1
EndSplineSet
EndChar

StartChar: exclamdown
Encoding: 161 161 100
Width: 330
GlyphClass: 2
Flags: W
LayerCount: 2
Fore
SplineSet
207 -210 m 1
 123 -210 l 1
 141 330 l 1
 189 330 l 1
 207 -210 l 1
165 480 m 0
 128 480 100 504 100 541 c 0
 100 578 128 602 165 602 c 0
 202 602 230 578 230 541 c 0
 230 504 202 480 165 480 c 0
EndSplineSet
EndChar

StartChar: cent
Encoding: 162 162 101
Width: 605
GlyphClass: 2
Flags: W
LayerCount: 2
Fore
SplineSet
70 317 m 2
 70 343 l 2
 70 483 126 633 305 646 c 1
 305 780 l 1
 357 780 l 1
 357 646 l 1
 486 635 546 546 555 487 c 1
 488 481 l 1
 480 525 437 584 357 595 c 1
 357 65 l 1
 437 76 480 135 488 179 c 1
 555 173 l 1
 546 114 486 25 357 14 c 1
 357 -120 l 1
 305 -120 l 1
 305 14 l 1
 126 27 70 177 70 317 c 2
305 64 m 1
 305 596 l 1
 190 583 138 479 138 343 c 2
 138 317 l 2
 138 181 190 77 305 64 c 1
EndSplineSet
EndChar

StartChar: sterling
Encoding: 163 163 102
Width: 660
GlyphClass: 2
Flags: W
LayerCount: 2
Fore
SplineSet
90 369 m 1
 90 411 l 1
 192 411 l 1
 192 563 l 2
 192 614 197 797 374 797 c 0
 515 797 551 683 560 642 c 1
 493 635 l 1
 483 680 459 748 374 748 c 0
 271 748 259 625 259 563 c 2
 259 411 l 1
 500 411 l 1
 500 369 l 1
 259 369 l 1
 259 294 l 2
 259 181 237 103 181 49 c 1
 590 49 l 1
 590 0 l 1
 96 0 l 1
 90 41 l 1
 159 95 192 165 192 294 c 2
 192 369 l 1
 90 369 l 1
EndSplineSet
EndChar

StartChar: currency
Encoding: 164 164 103
Width: 720
GlyphClass: 2
Flags: W
LayerCount: 2
Fore
SplineSet
649 139 m 1
 612 101 l 1
 501 212 l 1
 464 185 416 168 360 168 c 0
 304 168 256 185 219 212 c 1
 108 101 l 1
 71 139 l 1
 181 249 l 1
 150 288 133 337 133 390 c 0
 133 443 150 492 181 531 c 1
 71 641 l 1
 108 679 l 1
 219 568 l 1
 256 595 304 612 360 612 c 0
 416 612 464 595 501 568 c 1
 612 679 l 1
 649 641 l 1
 539 531 l 1
 570 492 587 443 587 390 c 0
 587 337 570 288 539 249 c 1
 649 139 l 1
360 220 m 0
 457 220 524 289 524 390 c 0
 524 491 457 560 360 560 c 0
 263 560 196 491 196 390 c 0
 196 289 263 220 360 220 c 0
EndSplineSet
EndChar

StartChar: yen
Encoding: 165 165 104
Width: 660
GlyphClass: 2
Flags: W
LayerCount: 2
Fore
SplineSet
110 324 m 1
 110 366 l 1
 263 366 l 1
 40 769 l 1
 40 774 l 1
 119 780 l 1
 330 373 l 1
 541 780 l 1
 620 774 l 1
 620 769 l 1
 397 366 l 1
 550 366 l 1
 550 324 l 1
 374 324 l 1
 365 308 l 1
 365 216 l 1
 550 216 l 1
 550 174 l 1
 365 174 l 1
 365 0 l 1
 295 0 l 1
 295 174 l 1
 110 174 l 1
 110 216 l 1
 295 216 l 1
 295 308 l 1
 286 324 l 1
 110 324 l 1
EndSplineSet
EndChar

StartChar: brokenbar
Encoding: 166 166 105
Width: 360
GlyphClass: 2
Flags: W
LayerCount: 2
Fore
SplineSet
150 450 m 1
 150 900 l 1
 210 900 l 1
 210 450 l 1
 150 450 l 1
150 -120 m 1
 150 330 l 1
 210 330 l 1
 210 -120 l 1
 150 -120 l 1
EndSplineSet
EndChar

StartChar: section
Encoding: 167 167 106
Width: 660
GlyphClass: 2
Flags: W
LayerCount: 2
Fore
SplineSet
117 622 m 0
 117 738 202 827 341 827 c 0
 486 827 553 715 564 639 c 1
 499 634 l 1
 489 701 437 778 341 778 c 0
 245 778 182 720 182 622 c 0
 182 543 236 506 281 486 c 0
 329 464 399 436 445 420 c 0
 508 398 580 339 580 226 c 0
 580 173 559 126 523 89 c 1
 540 60 550 25 550 -17 c 0
 550 -135 465 -227 311 -227 c 0
 154 -227 81 -113 70 -35 c 1
 135 -30 l 1
 145 -97 200 -178 311 -178 c 0
 423 -178 485 -119 485 -17 c 0
 485 76 430 114 386 130 c 0
 338 147 268 175 218 197 c 0
 160 223 87 277 87 378 c 0
 87 432 109 481 149 517 c 1
 130 544 117 579 117 622 c 0
487 134 m 1
 504 157 515 187 515 226 c 0
 515 319 461 358 418 373 c 0
 370 390 298 418 248 440 c 0
 228 449 205 462 185 479 c 1
 165 453 152 419 152 378 c 0
 152 299 210 262 255 242 c 0
 303 220 369 193 415 177 c 0
 439 169 465 155 487 134 c 1
EndSplineSet
EndChar

StartChar: dieresis
Encoding: 168 168 107
Width: 510
GlyphClass: 2
Flags: W
LayerCount: 2
Fore
SplineSet
311 780 m 0
 311 816 338 838 373 838 c 0
 408 838 435 816 435 780 c 0
 435 744 408 722 373 722 c 0
 338 722 311 744 311 780 c 0
75 780 m 0
 75 816 102 838 137 838 c 0
 172 838 199 816 199 780 c 0
 199 744 172 722 137 722 c 0
 102 722 75 744 75 780 c 0
EndSplineSet
EndChar

StartChar: copyright
Encoding: 169 169 108
Width: 1020
GlyphClass: 2
Flags: W
LayerCount: 2
Fore
SplineSet
345 411 m 2
 345 505 385 607 517 607 c 0
 614 607 658 544 665 504 c 1
 616 499 l 1
 610 529 578 571 517 571 c 0
 433 571 395 505 395 411 c 2
 395 395 l 2
 395 301 433 235 517 235 c 0
 578 235 610 277 616 307 c 1
 665 302 l 1
 658 262 614 199 517 199 c 0
 385 199 345 301 345 395 c 2
 345 411 l 2
510 1 m 0
 260 1 99 173 99 405 c 0
 99 637 260 809 510 809 c 0
 760 809 921 637 921 405 c 0
 921 173 760 1 510 1 c 0
510 39 m 0
 734 39 879 189 879 405 c 0
 879 621 734 771 510 771 c 0
 286 771 141 621 141 405 c 0
 141 189 286 39 510 39 c 0
EndSplineSet
EndChar

StartChar: ordfeminine
Encoding: 170 170 109
Width: 313
GlyphClass: 2
Flags: W
LayerCount: 2
Fore
SplineSet
29 596 m 0
 29 634 60 670 123 670 c 0
 159 670 194 667 220 664 c 1
 220 721 l 2
 220 765 189 786 147 786 c 0
 107 786 82 762 76 724 c 1
 31 728 l 1
 37 774 75 819 147 819 c 0
 218 819 263 778 263 721 c 2
 263 578 l 2
 263 548 273 537 299 534 c 1
 287 504 l 1
 265 506 235 516 228 554 c 1
 210 527 182 504 135 504 c 0
 71 504 29 538 29 596 c 0
222 636 m 1
 200 639 165 643 125 643 c 0
 96 643 73 626 73 596 c 0
 73 552 103 532 139 532 c 0
 193 532 215 577 222 615 c 1
 222 636 l 1
EndSplineSet
EndChar

StartChar: guillemotleft
Encoding: 171 171 110
Width: 780
GlyphClass: 2
Flags: W
LayerCount: 2
Fore
SplineSet
90 345 m 1
 90 375 l 1
 385 630 l 1
 410 595 l 1
 162 360 l 1
 410 125 l 1
 385 90 l 1
 90 345 l 1
370 345 m 1
 370 375 l 1
 665 630 l 1
 690 595 l 1
 442 360 l 1
 690 125 l 1
 665 90 l 1
 370 345 l 1
EndSplineSet
EndChar

StartChar: logicalnot
Encoding: 172 172 111
Width: 600
GlyphClass: 2
Flags: W
LayerCount: 2
Fore
SplineSet
105 334 m 1
 105 386 l 1
 495 386 l 1
 495 200 l 1
 432 200 l 1
 432 334 l 1
 105 334 l 1
EndSplineSet
EndChar

StartChar: uni00AD
Encoding: 173 173 112
Width: 450
GlyphClass: 2
Flags: W
LayerCount: 2
Fore
SplineSet
90 386 m 1
 360 386 l 1
 360 334 l 1
 90 334 l 1
 90 386 l 1
EndSplineSet
EndChar

StartChar: registered
Encoding: 174 174 113
Width: 870
GlyphClass: 2
Flags: W
LayerCount: 2
Fore
SplineSet
435 274 m 0
 232 274 102 413 102 600 c 0
 102 787 232 926 435 926 c 0
 638 926 768 787 768 600 c 0
 768 413 638 274 435 274 c 0
435 304 m 0
 614 304 732 425 732 600 c 0
 732 775 614 896 435 896 c 0
 256 896 138 775 138 600 c 0
 138 425 256 304 435 304 c 0
419 565 m 1
 396 565 374 565 356 566 c 1
 356 400 l 1
 309 400 l 1
 309 569 l 1
 309 790 l 1
 323 791 379 794 435 794 c 0
 525 794 592 754 592 680 c 0
 592 616 542 576 470 567 c 1
 606 402 l 1
 606 400 l 1
 552 400 l 1
 419 565 l 1
356 601 m 1
 374 600 402 599 430 599 c 0
 494 599 544 622 544 680 c 0
 544 738 494 760 430 760 c 0
 402 760 374 759 356 758 c 1
 356 601 l 1
EndSplineSet
EndChar

StartChar: macron
Encoding: 175 175 114
Width: 510
GlyphClass: 2
Flags: W
LayerCount: 2
Fore
SplineSet
75 757 m 1
 75 803 l 1
 435 803 l 1
 435 757 l 1
 75 757 l 1
EndSplineSet
EndChar

StartChar: degree
Encoding: 176 176 115
Width: 330
GlyphClass: 2
Flags: W
LayerCount: 2
Fore
SplineSet
165 664 m 0
 90 664 45 718 45 780 c 0
 45 842 90 896 165 896 c 0
 240 896 285 842 285 780 c 0
 285 718 240 664 165 664 c 0
165 698 m 0
 209 698 242 730 242 780 c 0
 242 830 209 862 165 862 c 0
 121 862 88 830 88 780 c 0
 88 730 121 698 165 698 c 0
EndSplineSet
EndChar

StartChar: plusminus
Encoding: 177 177 116
Width: 600
GlyphClass: 2
Flags: W
LayerCount: 2
Fore
SplineSet
105 199 m 1
 105 247 l 1
 495 247 l 1
 495 199 l 1
 105 199 l 1
105 473 m 1
 105 521 l 1
 270 521 l 1
 270 647 l 1
 330 647 l 1
 330 521 l 1
 495 521 l 1
 495 473 l 1
 330 473 l 1
 330 347 l 1
 270 347 l 1
 270 473 l 1
 105 473 l 1
EndSplineSet
EndChar

StartChar: two.sups
Encoding: 178 178 117
Width: 330
GlyphClass: 2
Flags: W
LayerCount: 2
Fore
SplineSet
38 528 m 0
 38 616 111 666 166 703 c 0
 205 729 241 756 241 800 c 0
 241 831 226 874 165 874 c 0
 123 874 96 841 90 812 c 1
 42 817 l 1
 49 853 85 909 164 909 c 0
 269 909 287 833 287 800 c 0
 287 738 232 700 194 674 c 0
 144 640 96 605 90 547 c 1
 291 547 l 1
 291 510 l 1
 41 510 l 1
 41 510 38 518 38 528 c 0
EndSplineSet
EndChar

StartChar: three.sups
Encoding: 179 179 118
Width: 330
GlyphClass: 2
Flags: W
LayerCount: 2
Fore
SplineSet
24 571 m 1
 70 580 l 1
 76 564 94 532 151 532 c 0
 225 532 241 578 241 612 c 0
 241 645 222 686 156 686 c 2
 106 686 l 1
 106 720 l 1
 151 720 l 2
 189 720 228 748 228 796 c 0
 228 827 213 870 152 870 c 0
 110 870 82 837 76 808 c 1
 28 814 l 1
 35 850 71 906 150 906 c 0
 255 906 273 829 273 796 c 0
 273 751 246 724 217 708 c 1
 272 691 288 646 288 615 c 0
 288 576 268 498 151 498 c 0
 63 498 32 549 24 571 c 1
EndSplineSet
EndChar

StartChar: acute
Encoding: 180 180 119
Width: 390
GlyphClass: 2
Flags: W
LayerCount: 2
Fore
SplineSet
375 837 m 1
 80 557 l 1
 45 582 l 1
 323 875 l 1
 375 837 l 1
EndSplineSet
EndChar

StartChar: mu
Encoding: 181 181 120
Width: 665
GlyphClass: 2
Flags: W
LayerCount: 2
Fore
SplineSet
100 600 m 1
 167 600 l 1
 167 295 l 1
 185 182 271 42 393 42 c 0
 465 42 513 84 513 176 c 2
 513 600 l 1
 580 600 l 1
 580 174 l 2
 580 70 524 -12 408 -12 c 0
 283 -12 205 88 165 186 c 1
 165 -210 l 1
 100 -210 l 1
 100 600 l 1
EndSplineSet
EndChar

StartChar: paragraph
Encoding: 182 182 121
Width: 725
GlyphClass: 2
Flags: W
LayerCount: 2
Fore
SplineSet
340 391 m 1
 340 736 l 1
 219 728 130 676 130 564 c 0
 130 452 219 399 340 391 c 1
550 732 m 1
 515 734 459 737 400 737 c 1
 400 -210 l 1
 340 -210 l 1
 340 339 l 1
 179 346 60 423 60 564 c 0
 60 712 192 789 366 789 c 0
 469 789 573 783 610 780 c 1
 610 -210 l 1
 550 -210 l 1
 550 732 l 1
EndSplineSet
EndChar

StartChar: periodcentered
Encoding: 183 183 122
Width: 330
GlyphClass: 2
Flags: W
LayerCount: 2
Fore
SplineSet
165 421 m 0
 202 421 230 397 230 360 c 0
 230 323 202 299 165 299 c 0
 128 299 100 323 100 360 c 0
 100 397 128 421 165 421 c 0
EndSplineSet
EndChar

StartChar: cedilla
Encoding: 184 184 123
Width: 330
GlyphClass: 2
Flags: W
LayerCount: 2
Fore
SplineSet
60 -291 m 1
 122 -275 213 -246 213 -175 c 0
 213 -149 195 -124 132 -124 c 0
 114 -124 93 -126 82 -128 c 1
 60 -106 l 1
 122 5 l 1
 163 5 l 1
 110 -91 l 1
 119 -90 130 -90 140 -90 c 0
 217 -90 260 -122 260 -175 c 0
 260 -281 125 -310 72 -325 c 1
 60 -291 l 1
EndSplineSet
EndChar

StartChar: one.sups
Encoding: 185 185 124
Width: 330
GlyphClass: 2
Flags: W
LayerCount: 2
Fore
SplineSet
51 825 m 1
 182 903 l 1
 215 900 l 1
 215 547 l 1
 291 547 l 1
 291 510 l 1
 71 510 l 1
 71 547 l 1
 168 547 l 1
 168 850 l 1
 71 791 l 1
 51 825 l 1
EndSplineSet
EndChar

StartChar: ordmasculine
Encoding: 186 186 125
Width: 330
GlyphClass: 2
Flags: W
LayerCount: 2
Fore
SplineSet
31 653 m 2
 31 667 l 2
 31 738 61 819 165 819 c 0
 269 819 299 738 299 667 c 2
 299 653 l 2
 299 582 269 501 165 501 c 0
 61 501 31 582 31 653 c 2
165 534 m 0
 225 534 254 581 254 653 c 2
 254 667 l 2
 254 739 225 786 165 786 c 0
 105 786 76 739 76 667 c 2
 76 653 l 2
 76 581 105 534 165 534 c 0
EndSplineSet
EndChar

StartChar: guillemotright
Encoding: 187 187 126
Width: 780
GlyphClass: 2
Flags: W
LayerCount: 2
Fore
SplineSet
690 375 m 1
 690 345 l 1
 395 90 l 1
 370 125 l 1
 618 360 l 1
 370 595 l 1
 395 630 l 1
 690 375 l 1
410 375 m 1
 410 345 l 1
 115 90 l 1
 90 125 l 1
 338 360 l 1
 90 595 l 1
 115 630 l 1
 410 375 l 1
EndSplineSet
EndChar

StartChar: onequarter
Encoding: 188 188 127
Width: 780
GlyphClass: 3
Flags: W
LayerCount: 2
Fore
SplineSet
654 103 m 1
 472 103 l 1
 469 125 l 1
 660 393 l 1
 699 390 l 1
 699 137 l 1
 762 137 l 1
 762 103 l 1
 699 103 l 1
 699 0 l 1
 654 0 l 1
 654 103 l 1
655 137 m 1
 655 328 l 1
 520 137 l 1
 655 137 l 1
51 705 m 1
 182 783 l 1
 215 780 l 1
 215 427 l 1
 291 427 l 1
 291 390 l 1
 71 390 l 1
 71 427 l 1
 168 427 l 1
 168 730 l 1
 71 671 l 1
 51 705 l 1
90 0 m 1
 90 4 l 1
 642 780 l 1
 690 780 l 1
 690 776 l 1
 138 0 l 1
 90 0 l 1
EndSplineSet
Ligature2: "LatinLiga.frac subtable" one.numr fraction four.dnom
Ligature2: "LatinLiga.frac subtable" one.numr fraction four
Ligature2: "LatinLiga.frac subtable" one fraction four.dnom
Ligature2: "LatinLiga.frac subtable" one fraction four
EndChar

StartChar: onehalf
Encoding: 189 189 128
Width: 780
GlyphClass: 3
Flags: W
LayerCount: 2
Fore
SplineSet
488 18 m 0
 488 106 561 156 616 193 c 0
 655 219 691 246 691 290 c 0
 691 321 676 364 615 364 c 0
 573 364 546 331 540 302 c 1
 492 307 l 1
 499 343 535 399 614 399 c 0
 719 399 737 323 737 290 c 0
 737 228 682 190 644 164 c 0
 594 130 546 95 540 37 c 1
 741 37 l 1
 741 0 l 1
 491 0 l 1
 491 0 488 8 488 18 c 0
90 0 m 1
 90 4 l 1
 642 780 l 1
 690 780 l 1
 690 776 l 1
 138 0 l 1
 90 0 l 1
51 705 m 1
 182 783 l 1
 215 780 l 1
 215 427 l 1
 291 427 l 1
 291 390 l 1
 71 390 l 1
 71 427 l 1
 168 427 l 1
 168 730 l 1
 71 671 l 1
 51 705 l 1
EndSplineSet
Ligature2: "LatinLiga.frac subtable" one.numr fraction two.dnom
Ligature2: "LatinLiga.frac subtable" one.numr fraction two
Ligature2: "LatinLiga.frac subtable" one fraction two.dnom
Ligature2: "LatinLiga.frac subtable" one fraction two
EndChar

StartChar: threequarters
Encoding: 190 190 129
Width: 780
GlyphClass: 3
Flags: W
LayerCount: 2
Fore
SplineSet
24 451 m 1
 70 460 l 1
 76 444 94 412 151 412 c 0
 225 412 241 458 241 492 c 0
 241 525 222 566 156 566 c 2
 106 566 l 1
 106 600 l 1
 151 600 l 2
 189 600 228 628 228 676 c 0
 228 707 213 750 152 750 c 0
 110 750 82 717 76 688 c 1
 28 694 l 1
 35 730 71 786 150 786 c 0
 255 786 273 709 273 676 c 0
 273 631 246 604 217 588 c 1
 272 571 288 526 288 495 c 0
 288 456 268 378 151 378 c 0
 63 378 32 429 24 451 c 1
90 0 m 1
 90 4 l 1
 642 780 l 1
 690 780 l 1
 690 776 l 1
 138 0 l 1
 90 0 l 1
654 103 m 1
 472 103 l 1
 469 125 l 1
 660 393 l 1
 699 390 l 1
 699 137 l 1
 762 137 l 1
 762 103 l 1
 699 103 l 1
 699 0 l 1
 654 0 l 1
 654 103 l 1
655 137 m 1
 655 328 l 1
 520 137 l 1
 655 137 l 1
EndSplineSet
Ligature2: "LatinLiga.frac subtable" three.numr fraction four.dnom
Ligature2: "LatinLiga.frac subtable" three.numr fraction four
Ligature2: "LatinLiga.frac subtable" three fraction four.dnom
Ligature2: "LatinLiga.frac subtable" three fraction four
EndChar

StartChar: questiondown
Encoding: 191 191 130
Width: 570
GlyphClass: 2
Flags: W
LayerCount: 2
Fore
SplineSet
500 -53 m 0
 500 -154 415 -227 285 -227 c 0
 164 -227 80 -158 80 -38 c 0
 80 127 289 170 289 298 c 0
 289 318 285 341 275 362 c 1
 331 368 l 1
 343 343 350 319 350 295 c 0
 350 138 150 102 150 -36 c 0
 150 -135 212 -173 286 -173 c 0
 370 -173 429 -129 429 -53 c 0
 429 -29 424 -5 414 17 c 1
 480 35 l 1
 492 7 500 -23 500 -53 c 0
285 480 m 0
 248 480 220 504 220 541 c 0
 220 578 248 602 285 602 c 0
 322 602 350 578 350 541 c 0
 350 504 322 480 285 480 c 0
EndSplineSet
EndChar

StartChar: Agrave
Encoding: 192 192 131
Width: 750
GlyphClass: 2
Flags: W
AnchorPoint: "LatinBelow.mark" 375 0 basechar 0
AnchorPoint: "LatinAbove.mark" 375 330 basechar 0
LayerCount: 2
Fore
SplineSet
230 1002 m 1
 262 1050 l 1
 475 879 l 1
 454 850 l 1
 230 1002 l 1
720 0 m 1
 640 0 l 1
 570 184 l 1
 180 184 l 1
 110 0 l 1
 30 0 l 1
 30 5 l 1
 344 780 l 1
 406 780 l 1
 720 5 l 1
 720 0 l 1
550 236 m 1
 375 698 l 1
 200 236 l 1
 550 236 l 1
EndSplineSet
EndChar

StartChar: Aacute
Encoding: 193 193 132
Width: 750
GlyphClass: 2
Flags: W
AnchorPoint: "LatinBelow.mark" 375 0 basechar 0
AnchorPoint: "LatinAbove.mark" 375 330 basechar 0
LayerCount: 2
Fore
SplineSet
520 1002 m 1
 296 850 l 1
 275 879 l 1
 488 1050 l 1
 520 1002 l 1
720 0 m 1
 640 0 l 1
 570 184 l 1
 180 184 l 1
 110 0 l 1
 30 0 l 1
 30 5 l 1
 344 780 l 1
 406 780 l 1
 720 5 l 1
 720 0 l 1
550 236 m 1
 375 698 l 1
 200 236 l 1
 550 236 l 1
EndSplineSet
EndChar

StartChar: Acircumflex
Encoding: 194 194 133
Width: 750
GlyphClass: 2
Flags: W
AnchorPoint: "LatinBelow.mark" 375 0 basechar 0
AnchorPoint: "LatinAbove.mark" 375 330 basechar 0
LayerCount: 2
Fore
SplineSet
195 859 m 1
 365 1010 l 1
 385 1010 l 1
 555 859 l 1
 532 835 l 1
 375 950 l 1
 218 835 l 1
 195 859 l 1
720 0 m 1
 640 0 l 1
 570 184 l 1
 180 184 l 1
 110 0 l 1
 30 0 l 1
 30 5 l 1
 344 780 l 1
 406 780 l 1
 720 5 l 1
 720 0 l 1
550 236 m 1
 375 698 l 1
 200 236 l 1
 550 236 l 1
EndSplineSet
EndChar

StartChar: Atilde
Encoding: 195 195 134
Width: 750
GlyphClass: 2
Flags: W
AnchorPoint: "LatinBelow.mark" 375 0 basechar 0
AnchorPoint: "LatinAbove.mark" 375 330 basechar 0
LayerCount: 2
Fore
SplineSet
195 887 m 1
 212 933 238 1005 298 1005 c 0
 344 1005 371 974 393 951 c 0
 415 929 431 905 453 905 c 0
 487 905 508 970 518 997 c 1
 555 983 l 1
 539 936 511 865 452 865 c 0
 406 865 379 896 357 919 c 0
 335 941 319 965 297 965 c 0
 262 965 243 901 232 873 c 1
 195 887 l 1
720 0 m 1
 640 0 l 1
 570 184 l 1
 180 184 l 1
 110 0 l 1
 30 0 l 1
 30 5 l 1
 344 780 l 1
 406 780 l 1
 720 5 l 1
 720 0 l 1
550 236 m 1
 375 698 l 1
 200 236 l 1
 550 236 l 1
EndSplineSet
EndChar

StartChar: Adieresis
Encoding: 196 196 135
Width: 750
GlyphClass: 2
Flags: W
AnchorPoint: "LatinBelow.mark" 375 0 basechar 0
AnchorPoint: "LatinAbove.mark" 375 330 basechar 0
LayerCount: 2
Fore
SplineSet
431 930 m 0
 431 966 458 988 493 988 c 0
 528 988 555 966 555 930 c 0
 555 894 528 872 493 872 c 0
 458 872 431 894 431 930 c 0
195 930 m 0
 195 966 222 988 257 988 c 0
 292 988 319 966 319 930 c 0
 319 894 292 872 257 872 c 0
 222 872 195 894 195 930 c 0
720 0 m 1
 640 0 l 1
 570 184 l 1
 180 184 l 1
 110 0 l 1
 30 0 l 1
 30 5 l 1
 344 780 l 1
 406 780 l 1
 720 5 l 1
 720 0 l 1
550 236 m 1
 375 698 l 1
 200 236 l 1
 550 236 l 1
EndSplineSet
EndChar

StartChar: Aring
Encoding: 197 197 136
Width: 750
GlyphClass: 2
Flags: W
AnchorPoint: "LatinBelow.mark" 375 0 basechar 0
AnchorPoint: "LatinAbove.mark" 375 330 basechar 0
LayerCount: 2
Fore
SplineSet
375 812 m 0
 310 812 265 854 265 915 c 0
 265 976 310 1018 375 1018 c 0
 440 1018 485 976 485 915 c 0
 485 854 440 812 375 812 c 0
375 846 m 0
 418 846 446 875 446 915 c 0
 446 955 418 984 375 984 c 0
 332 984 304 955 304 915 c 0
 304 875 332 846 375 846 c 0
720 0 m 1
 640 0 l 1
 570 184 l 1
 180 184 l 1
 110 0 l 1
 30 0 l 1
 30 5 l 1
 344 780 l 1
 406 780 l 1
 720 5 l 1
 720 0 l 1
550 236 m 1
 375 698 l 1
 200 236 l 1
 550 236 l 1
EndSplineSet
EndChar

StartChar: AE
Encoding: 198 198 137
Width: 980
GlyphClass: 2
Flags: W
AnchorPoint: "LatinBelow.mark" 510 0 basechar 0
AnchorPoint: "LatinAbove.mark" 510 150 basechar 0
LayerCount: 2
Fore
SplineSet
35 0 m 1
 35 5 l 1
 443 780 l 1
 470 780 l 1
 504 780 l 1
 895 780 l 1
 895 725 l 1
 541 725 l 1
 541 411 l 1
 863 411 l 1
 863 359 l 1
 541 359 l 1
 541 55 l 1
 910 55 l 1
 910 0 l 1
 470 0 l 1
 470 184 l 1
 208 184 l 1
 116 0 l 1
 35 0 l 1
470 712 m 1
 233 236 l 1
 470 236 l 1
 470 712 l 1
EndSplineSet
EndChar

StartChar: Ccedilla
Encoding: 199 199 138
Width: 755
GlyphClass: 2
Flags: W
AnchorPoint: "LatinAbove.mark" 410 150 basechar 0
LayerCount: 2
Fore
SplineSet
327 -291 m 1
 389 -275 480 -246 480 -175 c 0
 480 -149 462 -124 399 -124 c 0
 381 -124 360 -126 349 -128 c 1
 327 -106 l 1
 377 -16 l 1
 150 2 75 190 75 373 c 2
 75 407 l 2
 75 599 158 797 413 797 c 0
 600 797 686 674 700 595 c 1
 627 588 l 1
 615 653 548 742 413 742 c 0
 229 742 149 597 149 407 c 2
 149 373 l 2
 149 183 229 38 413 38 c 0
 548 38 615 127 627 192 c 1
 700 185 l 1
 686 107 602 -15 418 -17 c 1
 377 -91 l 1
 386 -90 397 -90 407 -90 c 0
 484 -90 527 -122 527 -175 c 0
 527 -281 392 -310 339 -325 c 1
 327 -291 l 1
EndSplineSet
EndChar

StartChar: Egrave
Encoding: 200 200 139
Width: 675
GlyphClass: 2
Flags: W
AnchorPoint: "LatinBelow.mark" 350 0 basechar 0
AnchorPoint: "LatinAbove.mark" 350 330 basechar 0
LayerCount: 2
Fore
SplineSet
205 1002 m 1
 237 1050 l 1
 450 879 l 1
 429 850 l 1
 205 1002 l 1
105 0 m 1
 105 780 l 1
 590 780 l 1
 590 725 l 1
 176 725 l 1
 176 411 l 1
 558 411 l 1
 558 359 l 1
 176 359 l 1
 176 55 l 1
 605 55 l 1
 605 0 l 1
 105 0 l 1
EndSplineSet
EndChar

StartChar: Eacute
Encoding: 201 201 140
Width: 675
GlyphClass: 2
Flags: W
AnchorPoint: "LatinBelow.mark" 350 0 basechar 0
AnchorPoint: "LatinAbove.mark" 350 330 basechar 0
LayerCount: 2
Fore
SplineSet
495 1002 m 1
 271 850 l 1
 250 879 l 1
 463 1050 l 1
 495 1002 l 1
105 0 m 1
 105 780 l 1
 590 780 l 1
 590 725 l 1
 176 725 l 1
 176 411 l 1
 558 411 l 1
 558 359 l 1
 176 359 l 1
 176 55 l 1
 605 55 l 1
 605 0 l 1
 105 0 l 1
EndSplineSet
EndChar

StartChar: Ecircumflex
Encoding: 202 202 141
Width: 675
GlyphClass: 2
Flags: W
AnchorPoint: "LatinBelow.mark" 350 0 basechar 0
AnchorPoint: "LatinAbove.mark" 350 330 basechar 0
LayerCount: 2
Fore
SplineSet
170 859 m 1
 340 1010 l 1
 360 1010 l 1
 530 859 l 1
 507 835 l 1
 350 950 l 1
 193 835 l 1
 170 859 l 1
105 0 m 1
 105 780 l 1
 590 780 l 1
 590 725 l 1
 176 725 l 1
 176 411 l 1
 558 411 l 1
 558 359 l 1
 176 359 l 1
 176 55 l 1
 605 55 l 1
 605 0 l 1
 105 0 l 1
EndSplineSet
EndChar

StartChar: Edieresis
Encoding: 203 203 142
Width: 675
GlyphClass: 2
Flags: W
AnchorPoint: "LatinBelow.mark" 350 0 basechar 0
AnchorPoint: "LatinAbove.mark" 350 330 basechar 0
LayerCount: 2
Fore
SplineSet
406 930 m 0
 406 966 433 988 468 988 c 0
 503 988 530 966 530 930 c 0
 530 894 503 872 468 872 c 0
 433 872 406 894 406 930 c 0
170 930 m 0
 170 966 197 988 232 988 c 0
 267 988 294 966 294 930 c 0
 294 894 267 872 232 872 c 0
 197 872 170 894 170 930 c 0
105 0 m 1
 105 780 l 1
 590 780 l 1
 590 725 l 1
 176 725 l 1
 176 411 l 1
 558 411 l 1
 558 359 l 1
 176 359 l 1
 176 55 l 1
 605 55 l 1
 605 0 l 1
 105 0 l 1
EndSplineSet
EndChar

StartChar: Igrave
Encoding: 204 204 143
Width: 320
GlyphClass: 2
Flags: W
AnchorPoint: "LatinBelow.mark" 160 0 basechar 0
AnchorPoint: "LatinAbove.mark" 160 330 basechar 0
LayerCount: 2
Fore
SplineSet
15 1002 m 1
 47 1050 l 1
 260 879 l 1
 239 850 l 1
 15 1002 l 1
125 0 m 1
 125 780 l 1
 195 780 l 1
 195 0 l 1
 125 0 l 1
EndSplineSet
EndChar

StartChar: Iacute
Encoding: 205 205 144
Width: 320
GlyphClass: 2
Flags: W
AnchorPoint: "LatinBelow.mark" 160 0 basechar 0
AnchorPoint: "LatinAbove.mark" 160 330 basechar 0
LayerCount: 2
Fore
SplineSet
305 1002 m 1
 81 850 l 1
 60 879 l 1
 273 1050 l 1
 305 1002 l 1
125 0 m 1
 125 780 l 1
 195 780 l 1
 195 0 l 1
 125 0 l 1
EndSplineSet
EndChar

StartChar: Icircumflex
Encoding: 206 206 145
Width: 320
GlyphClass: 2
Flags: W
AnchorPoint: "LatinBelow.mark" 160 0 basechar 0
AnchorPoint: "LatinAbove.mark" 160 330 basechar 0
LayerCount: 2
Fore
SplineSet
-20 859 m 1
 150 1010 l 1
 170 1010 l 1
 340 859 l 1
 317 835 l 1
 160 950 l 1
 3 835 l 1
 -20 859 l 1
125 0 m 1
 125 780 l 1
 195 780 l 1
 195 0 l 1
 125 0 l 1
EndSplineSet
EndChar

StartChar: Idieresis
Encoding: 207 207 146
Width: 320
GlyphClass: 2
Flags: W
AnchorPoint: "LatinBelow.mark" 160 0 basechar 0
AnchorPoint: "LatinAbove.mark" 160 330 basechar 0
LayerCount: 2
Fore
SplineSet
216 930 m 0
 216 966 243 988 278 988 c 0
 313 988 340 966 340 930 c 0
 340 894 313 872 278 872 c 0
 243 872 216 894 216 930 c 0
-20 930 m 0
 -20 966 7 988 42 988 c 0
 77 988 104 966 104 930 c 0
 104 894 77 872 42 872 c 0
 7 872 -20 894 -20 930 c 0
125 0 m 1
 125 780 l 1
 195 780 l 1
 195 0 l 1
 125 0 l 1
EndSplineSet
EndChar

StartChar: Eth
Encoding: 208 208 147
Width: 770
GlyphClass: 2
Flags: W
AnchorPoint: "LatinBelow.mark" 320 0 basechar 0
AnchorPoint: "LatinAbove.mark" 320 150 basechar 0
LayerCount: 2
Fore
SplineSet
15 369 m 1
 15 411 l 1
 105 411 l 1
 105 780 l 1
 105 780 213 789 287 789 c 0
 592 789 695 601 695 408 c 2
 695 372 l 2
 695 179 592 -9 287 -9 c 0
 213 -9 105 0 105 0 c 1
 105 369 l 1
 15 369 l 1
175 48 m 1
 207 46 255 44 287 44 c 0
 537 44 624 188 624 372 c 2
 624 408 l 2
 624 592 537 736 287 736 c 0
 255 736 207 734 175 732 c 1
 175 411 l 1
 395 411 l 1
 395 369 l 1
 175 369 l 1
 175 48 l 1
EndSplineSet
EndChar

StartChar: Ntilde
Encoding: 209 209 148
Width: 790
GlyphClass: 2
Flags: W
AnchorPoint: "LatinBelow.mark" 395 0 basechar 0
LayerCount: 2
Fore
SplineSet
215 887 m 1
 232 933 258 1005 318 1005 c 0
 364 1005 391 974 413 951 c 0
 435 929 451 905 473 905 c 0
 507 905 528 970 538 997 c 1
 575 983 l 1
 559 936 531 865 472 865 c 0
 426 865 399 896 377 919 c 0
 355 941 339 965 317 965 c 0
 282 965 263 901 252 873 c 1
 215 887 l 1
105 0 m 1
 105 773 l 1
 166 780 l 1
 616 113 l 1
 616 780 l 1
 685 780 l 1
 685 0 l 1
 624 0 l 1
 174 667 l 1
 174 0 l 1
 105 0 l 1
EndSplineSet
EndChar

StartChar: Ograve
Encoding: 210 210 149
Width: 820
GlyphClass: 2
Flags: W
AnchorPoint: "LatinBelow.mark" 410 0 basechar 0
AnchorPoint: "LatinAbove.mark" 410 330 basechar 0
LayerCount: 2
Fore
SplineSet
265 1002 m 1
 297 1050 l 1
 510 879 l 1
 489 850 l 1
 265 1002 l 1
75 372 m 2
 75 408 l 2
 75 599 156 797 410 797 c 0
 664 797 745 599 745 408 c 2
 745 372 l 2
 745 181 664 -17 410 -17 c 0
 156 -17 75 181 75 372 c 2
410 37 m 0
 595 37 672 183 672 372 c 2
 672 408 l 2
 672 597 595 743 410 743 c 0
 225 743 148 597 148 408 c 2
 148 372 l 2
 148 183 225 37 410 37 c 0
EndSplineSet
EndChar

StartChar: Oacute
Encoding: 211 211 150
Width: 820
GlyphClass: 2
Flags: W
AnchorPoint: "LatinBelow.mark" 410 0 basechar 0
AnchorPoint: "LatinAbove.mark" 410 330 basechar 0
LayerCount: 2
Fore
SplineSet
555 1002 m 1
 331 850 l 1
 310 879 l 1
 523 1050 l 1
 555 1002 l 1
75 372 m 2
 75 408 l 2
 75 599 156 797 410 797 c 0
 664 797 745 599 745 408 c 2
 745 372 l 2
 745 181 664 -17 410 -17 c 0
 156 -17 75 181 75 372 c 2
410 37 m 0
 595 37 672 183 672 372 c 2
 672 408 l 2
 672 597 595 743 410 743 c 0
 225 743 148 597 148 408 c 2
 148 372 l 2
 148 183 225 37 410 37 c 0
EndSplineSet
EndChar

StartChar: Ocircumflex
Encoding: 212 212 151
Width: 820
GlyphClass: 2
Flags: W
AnchorPoint: "LatinBelow.mark" 410 0 basechar 0
AnchorPoint: "LatinAbove.mark" 410 330 basechar 0
LayerCount: 2
Fore
SplineSet
230 859 m 1
 400 1010 l 1
 420 1010 l 1
 590 859 l 1
 567 835 l 1
 410 950 l 1
 253 835 l 1
 230 859 l 1
75 372 m 2
 75 408 l 2
 75 599 156 797 410 797 c 0
 664 797 745 599 745 408 c 2
 745 372 l 2
 745 181 664 -17 410 -17 c 0
 156 -17 75 181 75 372 c 2
410 37 m 0
 595 37 672 183 672 372 c 2
 672 408 l 2
 672 597 595 743 410 743 c 0
 225 743 148 597 148 408 c 2
 148 372 l 2
 148 183 225 37 410 37 c 0
EndSplineSet
EndChar

StartChar: Otilde
Encoding: 213 213 152
Width: 820
GlyphClass: 2
Flags: W
AnchorPoint: "LatinBelow.mark" 410 0 basechar 0
AnchorPoint: "LatinAbove.mark" 410 330 basechar 0
LayerCount: 2
Fore
SplineSet
230 887 m 1
 247 933 273 1005 333 1005 c 0
 379 1005 406 974 428 951 c 0
 450 929 466 905 488 905 c 0
 522 905 543 970 553 997 c 1
 590 983 l 1
 574 936 546 865 487 865 c 0
 441 865 414 896 392 919 c 0
 370 941 354 965 332 965 c 0
 297 965 278 901 267 873 c 1
 230 887 l 1
75 372 m 2
 75 408 l 2
 75 599 156 797 410 797 c 0
 664 797 745 599 745 408 c 2
 745 372 l 2
 745 181 664 -17 410 -17 c 0
 156 -17 75 181 75 372 c 2
410 37 m 0
 595 37 672 183 672 372 c 2
 672 408 l 2
 672 597 595 743 410 743 c 0
 225 743 148 597 148 408 c 2
 148 372 l 2
 148 183 225 37 410 37 c 0
EndSplineSet
EndChar

StartChar: Odieresis
Encoding: 214 214 153
Width: 820
GlyphClass: 2
Flags: W
AnchorPoint: "LatinBelow.mark" 410 0 basechar 0
AnchorPoint: "LatinAbove.mark" 410 330 basechar 0
LayerCount: 2
Fore
SplineSet
466 930 m 0
 466 966 493 988 528 988 c 0
 563 988 590 966 590 930 c 0
 590 894 563 872 528 872 c 0
 493 872 466 894 466 930 c 0
230 930 m 0
 230 966 257 988 292 988 c 0
 327 988 354 966 354 930 c 0
 354 894 327 872 292 872 c 0
 257 872 230 894 230 930 c 0
75 372 m 2
 75 408 l 2
 75 599 156 797 410 797 c 0
 664 797 745 599 745 408 c 2
 745 372 l 2
 745 181 664 -17 410 -17 c 0
 156 -17 75 181 75 372 c 2
410 37 m 0
 595 37 672 183 672 372 c 2
 672 408 l 2
 672 597 595 743 410 743 c 0
 225 743 148 597 148 408 c 2
 148 372 l 2
 148 183 225 37 410 37 c 0
EndSplineSet
EndChar

StartChar: multiply
Encoding: 215 215 154
Width: 600
GlyphClass: 2
Flags: W
LayerCount: 2
Fore
SplineSet
118 505 m 1
 156 542 l 1
 300 398 l 1
 444 542 l 1
 482 505 l 1
 337 360 l 1
 482 215 l 1
 445 178 l 1
 300 323 l 1
 155 178 l 1
 118 215 l 1
 263 360 l 1
 118 505 l 1
EndSplineSet
EndChar

StartChar: Oslash
Encoding: 216 216 155
Width: 820
GlyphClass: 2
Flags: W
AnchorPoint: "LatinBelow.mark" 410 0 basechar 0
AnchorPoint: "LatinAbove.mark" 410 150 basechar 0
LayerCount: 2
Fore
SplineSet
75 372 m 2
 75 408 l 2
 75 599 156 797 410 797 c 0
 512 797 587 765 639 714 c 1
 706 799 l 1
 740 775 l 1
 667 682 l 1
 724 608 745 507 745 408 c 2
 745 372 l 2
 745 181 664 -17 410 -17 c 0
 307 -17 232 16 180 68 c 1
 114 -15 l 1
 80 9 l 1
 152 100 l 1
 97 174 75 274 75 372 c 2
598 663 m 1
 556 713 494 743 410 743 c 0
 225 743 148 597 148 408 c 2
 148 372 l 2
 148 288 163 213 196 155 c 1
 598 663 l 1
623 627 m 1
 220 119 l 1
 262 67 325 37 410 37 c 0
 595 37 672 183 672 372 c 2
 672 408 l 2
 672 493 657 569 623 627 c 1
EndSplineSet
EndChar

StartChar: Ugrave
Encoding: 217 217 156
Width: 770
GlyphClass: 2
Flags: W
AnchorPoint: "LatinBelow.mark" 385 0 basechar 0
AnchorPoint: "LatinAbove.mark" 385 330 basechar 0
LayerCount: 2
Fore
SplineSet
240 1002 m 1
 272 1050 l 1
 485 879 l 1
 464 850 l 1
 240 1002 l 1
95 232 m 2
 95 780 l 1
 166 780 l 1
 166 232 l 2
 166 108 255 37 385 37 c 0
 515 37 604 108 604 232 c 2
 604 780 l 1
 675 780 l 1
 675 232 l 2
 675 86 560 -17 385 -17 c 0
 210 -17 95 86 95 232 c 2
EndSplineSet
EndChar

StartChar: Uacute
Encoding: 218 218 157
Width: 770
GlyphClass: 2
Flags: W
AnchorPoint: "LatinBelow.mark" 385 0 basechar 0
AnchorPoint: "LatinAbove.mark" 385 330 basechar 0
LayerCount: 2
Fore
SplineSet
530 1002 m 1
 306 850 l 1
 285 879 l 1
 498 1050 l 1
 530 1002 l 1
95 232 m 2
 95 780 l 1
 166 780 l 1
 166 232 l 2
 166 108 255 37 385 37 c 0
 515 37 604 108 604 232 c 2
 604 780 l 1
 675 780 l 1
 675 232 l 2
 675 86 560 -17 385 -17 c 0
 210 -17 95 86 95 232 c 2
EndSplineSet
EndChar

StartChar: Ucircumflex
Encoding: 219 219 158
Width: 770
GlyphClass: 2
Flags: W
AnchorPoint: "LatinBelow.mark" 385 0 basechar 0
AnchorPoint: "LatinAbove.mark" 385 330 basechar 0
LayerCount: 2
Fore
SplineSet
205 859 m 1
 375 1010 l 1
 395 1010 l 1
 565 859 l 1
 542 835 l 1
 385 950 l 1
 228 835 l 1
 205 859 l 1
95 232 m 2
 95 780 l 1
 166 780 l 1
 166 232 l 2
 166 108 255 37 385 37 c 0
 515 37 604 108 604 232 c 2
 604 780 l 1
 675 780 l 1
 675 232 l 2
 675 86 560 -17 385 -17 c 0
 210 -17 95 86 95 232 c 2
EndSplineSet
EndChar

StartChar: Udieresis
Encoding: 220 220 159
Width: 770
GlyphClass: 2
Flags: W
AnchorPoint: "LatinBelow.mark" 385 0 basechar 0
AnchorPoint: "LatinAbove.mark" 385 330 basechar 0
LayerCount: 2
Fore
SplineSet
441 930 m 0
 441 966 468 988 503 988 c 0
 538 988 565 966 565 930 c 0
 565 894 538 872 503 872 c 0
 468 872 441 894 441 930 c 0
205 930 m 0
 205 966 232 988 267 988 c 0
 302 988 329 966 329 930 c 0
 329 894 302 872 267 872 c 0
 232 872 205 894 205 930 c 0
95 232 m 2
 95 780 l 1
 166 780 l 1
 166 232 l 2
 166 108 255 37 385 37 c 0
 515 37 604 108 604 232 c 2
 604 780 l 1
 675 780 l 1
 675 232 l 2
 675 86 560 -17 385 -17 c 0
 210 -17 95 86 95 232 c 2
EndSplineSet
EndChar

StartChar: Yacute
Encoding: 221 221 160
Width: 670
GlyphClass: 2
Flags: W
AnchorPoint: "LatinBelow.mark" 335 0 basechar 0
AnchorPoint: "LatinAbove.mark" 345 330 basechar 0
LayerCount: 2
Fore
SplineSet
480 1002 m 1
 256 850 l 1
 235 879 l 1
 448 1050 l 1
 480 1002 l 1
25 769 m 1
 25 774 l 1
 104 780 l 1
 335 373 l 1
 566 780 l 1
 645 774 l 1
 645 769 l 1
 370 304 l 1
 370 0 l 1
 300 0 l 1
 300 304 l 1
 25 769 l 1
EndSplineSet
EndChar

StartChar: Thorn
Encoding: 222 222 161
Width: 725
GlyphClass: 2
Flags: W
AnchorPoint: "LatinBelow.mark" 160 0 basechar 0
AnchorPoint: "LatinAbove.mark" 160 150 basechar 0
LayerCount: 2
Fore
SplineSet
174 252 m 1
 215 250 279 248 343 248 c 0
 480 248 585 300 585 422 c 0
 585 544 480 595 343 595 c 0
 279 595 215 593 174 591 c 1
 174 252 l 1
174 642 m 1
 222 644 286 647 349 647 c 0
 523 647 655 570 655 422 c 0
 655 274 523 196 349 196 c 0
 286 196 222 199 174 201 c 1
 174 0 l 1
 105 0 l 1
 105 205 l 1
 105 638 l 1
 105 780 l 1
 174 780 l 1
 174 642 l 1
EndSplineSet
EndChar

StartChar: germandbls
Encoding: 223 223 162
Width: 780
GlyphClass: 2
Flags: W
AnchorPoint: "LatinBelow.mark" 350 0 basechar 0
AnchorPoint: "LatinAbove.mark" 350 180 basechar 0
LayerCount: 2
Fore
SplineSet
350 133 m 1
 413 137 l 1
 420 87 461 32 537 32 c 0
 614 32 662 74 662 146 c 0
 662 209 615 239 586 250 c 0
 550 264 503 285 468 300 c 0
 421 320 362 362 362 448 c 0
 362 538 426 598 527 598 c 0
 541 598 554 596 565 594 c 1
 545 720 459 778 357 778 c 0
 261 778 172 728 172 582 c 2
 172 0 l 1
 105 0 l 1
 105 582 l 2
 105 743 215 827 357 827 c 0
 513 827 613 721 624 571 c 1
 590 542 l 1
 581 546 561 553 528 553 c 0
 468 553 426 521 426 453 c 0
 426 386 471 360 501 347 c 0
 536 332 583 311 617 298 c 0
 665 279 725 234 725 146 c 0
 725 57 659 -17 537 -17 c 0
 411 -17 358 74 350 133 c 1
EndSplineSet
EndChar

StartChar: agrave
Encoding: 224 224 163
Width: 625
GlyphClass: 2
Flags: W
AnchorPoint: "LatinBelow.mark" 330 0 basechar 0
AnchorPoint: "LatinAbove.mark" 310 180 basechar 0
LayerCount: 2
Fore
SplineSet
165 852 m 1
 197 900 l 1
 410 729 l 1
 389 700 l 1
 165 852 l 1
70 171 m 0
 70 249 132 316 250 316 c 0
 331 316 408 309 460 302 c 1
 460 425 l 2
 460 519 394 567 300 567 c 0
 208 567 154 513 142 433 c 1
 75 438 l 1
 88 531 162 617 300 617 c 0
 436 617 525 539 525 425 c 2
 525 132 l 2
 525 67 546 39 600 33 c 1
 583 -12 l 1
 535 -6 477 19 470 103 c 1
 436 43 377 -12 277 -12 c 0
 154 -12 70 56 70 171 c 0
463 259 m 1
 417 265 343 275 253 275 c 0
 184 275 135 236 135 171 c 0
 135 77 202 31 283 31 c 0
 396 31 446 126 463 204 c 1
 463 259 l 1
EndSplineSet
MultipleSubs2: "Latin.a.decomp subtable" uni0251 uni0300
EndChar

StartChar: aacute
Encoding: 225 225 164
Width: 625
GlyphClass: 2
Flags: W
AnchorPoint: "LatinBelow.mark" 330 0 basechar 0
AnchorPoint: "LatinAbove.mark" 310 180 basechar 0
LayerCount: 2
Fore
SplineSet
455 852 m 1
 231 700 l 1
 210 729 l 1
 423 900 l 1
 455 852 l 1
70 171 m 0
 70 249 132 316 250 316 c 0
 331 316 408 309 460 302 c 1
 460 425 l 2
 460 519 394 567 300 567 c 0
 208 567 154 513 142 433 c 1
 75 438 l 1
 88 531 162 617 300 617 c 0
 436 617 525 539 525 425 c 2
 525 132 l 2
 525 67 546 39 600 33 c 1
 583 -12 l 1
 535 -6 477 19 470 103 c 1
 436 43 377 -12 277 -12 c 0
 154 -12 70 56 70 171 c 0
463 259 m 1
 417 265 343 275 253 275 c 0
 184 275 135 236 135 171 c 0
 135 77 202 31 283 31 c 0
 396 31 446 126 463 204 c 1
 463 259 l 1
EndSplineSet
MultipleSubs2: "Latin.a.decomp subtable" uni0251 uni0301
EndChar

StartChar: acircumflex
Encoding: 226 226 165
Width: 625
GlyphClass: 2
Flags: W
AnchorPoint: "LatinBelow.mark" 330 0 basechar 0
AnchorPoint: "LatinAbove.mark" 310 180 basechar 0
LayerCount: 2
Fore
SplineSet
130 709 m 1
 300 860 l 1
 320 860 l 1
 490 709 l 1
 467 685 l 1
 310 800 l 1
 153 685 l 1
 130 709 l 1
70 171 m 0
 70 249 132 316 250 316 c 0
 331 316 408 309 460 302 c 1
 460 425 l 2
 460 519 394 567 300 567 c 0
 208 567 154 513 142 433 c 1
 75 438 l 1
 88 531 162 617 300 617 c 0
 436 617 525 539 525 425 c 2
 525 132 l 2
 525 67 546 39 600 33 c 1
 583 -12 l 1
 535 -6 477 19 470 103 c 1
 436 43 377 -12 277 -12 c 0
 154 -12 70 56 70 171 c 0
463 259 m 1
 417 265 343 275 253 275 c 0
 184 275 135 236 135 171 c 0
 135 77 202 31 283 31 c 0
 396 31 446 126 463 204 c 1
 463 259 l 1
EndSplineSet
MultipleSubs2: "Latin.a.decomp subtable" uni0251 uni0302
EndChar

StartChar: atilde
Encoding: 227 227 166
Width: 625
GlyphClass: 2
Flags: W
AnchorPoint: "LatinBelow.mark" 330 0 basechar 0
AnchorPoint: "LatinAbove.mark" 310 180 basechar 0
LayerCount: 2
Fore
SplineSet
130 737 m 1
 147 783 173 855 233 855 c 0
 279 855 306 824 328 801 c 0
 350 779 366 755 388 755 c 0
 422 755 443 820 453 847 c 1
 490 833 l 1
 474 786 446 715 387 715 c 0
 341 715 314 746 292 769 c 0
 270 791 254 815 232 815 c 0
 197 815 178 751 167 723 c 1
 130 737 l 1
70 171 m 0
 70 249 132 316 250 316 c 0
 331 316 408 309 460 302 c 1
 460 425 l 2
 460 519 394 567 300 567 c 0
 208 567 154 513 142 433 c 1
 75 438 l 1
 88 531 162 617 300 617 c 0
 436 617 525 539 525 425 c 2
 525 132 l 2
 525 67 546 39 600 33 c 1
 583 -12 l 1
 535 -6 477 19 470 103 c 1
 436 43 377 -12 277 -12 c 0
 154 -12 70 56 70 171 c 0
463 259 m 1
 417 265 343 275 253 275 c 0
 184 275 135 236 135 171 c 0
 135 77 202 31 283 31 c 0
 396 31 446 126 463 204 c 1
 463 259 l 1
EndSplineSet
MultipleSubs2: "Latin.a.decomp subtable" uni0251 uni0303
EndChar

StartChar: adieresis
Encoding: 228 228 167
Width: 625
GlyphClass: 2
Flags: W
AnchorPoint: "LatinBelow.mark" 330 0 basechar 0
AnchorPoint: "LatinAbove.mark" 310 180 basechar 0
LayerCount: 2
Fore
SplineSet
366 780 m 0
 366 816 393 838 428 838 c 0
 463 838 490 816 490 780 c 0
 490 744 463 722 428 722 c 0
 393 722 366 744 366 780 c 0
130 780 m 0
 130 816 157 838 192 838 c 0
 227 838 254 816 254 780 c 0
 254 744 227 722 192 722 c 0
 157 722 130 744 130 780 c 0
70 171 m 0
 70 249 132 316 250 316 c 0
 331 316 408 309 460 302 c 1
 460 425 l 2
 460 519 394 567 300 567 c 0
 208 567 154 513 142 433 c 1
 75 438 l 1
 88 531 162 617 300 617 c 0
 436 617 525 539 525 425 c 2
 525 132 l 2
 525 67 546 39 600 33 c 1
 583 -12 l 1
 535 -6 477 19 470 103 c 1
 436 43 377 -12 277 -12 c 0
 154 -12 70 56 70 171 c 0
463 259 m 1
 417 265 343 275 253 275 c 0
 184 275 135 236 135 171 c 0
 135 77 202 31 283 31 c 0
 396 31 446 126 463 204 c 1
 463 259 l 1
EndSplineSet
MultipleSubs2: "Latin.a.decomp subtable" uni0251 uni0308
EndChar

StartChar: aring
Encoding: 229 229 168
Width: 625
GlyphClass: 2
Flags: W
AnchorPoint: "LatinBelow.mark" 330 0 basechar 0
AnchorPoint: "LatinAbove.mark" 310 180 basechar 0
LayerCount: 2
Fore
SplineSet
310 662 m 0
 245 662 200 704 200 765 c 0
 200 826 245 868 310 868 c 0
 375 868 420 826 420 765 c 0
 420 704 375 662 310 662 c 0
310 696 m 0
 353 696 381 725 381 765 c 0
 381 805 353 834 310 834 c 0
 267 834 239 805 239 765 c 0
 239 725 267 696 310 696 c 0
70 171 m 0
 70 249 132 316 250 316 c 0
 331 316 408 309 460 302 c 1
 460 425 l 2
 460 519 394 567 300 567 c 0
 208 567 154 513 142 433 c 1
 75 438 l 1
 88 531 162 617 300 617 c 0
 436 617 525 539 525 425 c 2
 525 132 l 2
 525 67 546 39 600 33 c 1
 583 -12 l 1
 535 -6 477 19 470 103 c 1
 436 43 377 -12 277 -12 c 0
 154 -12 70 56 70 171 c 0
463 259 m 1
 417 265 343 275 253 275 c 0
 184 275 135 236 135 171 c 0
 135 77 202 31 283 31 c 0
 396 31 446 126 463 204 c 1
 463 259 l 1
EndSplineSet
MultipleSubs2: "Latin.a.decomp subtable" uni0251 uni030A
EndChar

StartChar: ae
Encoding: 230 230 169
Width: 960
GlyphClass: 2
Flags: W
AnchorPoint: "LatinBelow.mark" 480 0 basechar 0
AnchorPoint: "LatinAbove.mark" 480 0 basechar 0
LayerCount: 2
Fore
SplineSet
70 171 m 0
 70 251 126 316 242 316 c 0
 316 316 385 309 433 302 c 1
 433 425 l 2
 433 519 373 567 288 567 c 0
 201 567 154 513 142 433 c 1
 75 438 l 1
 88 531 155 617 288 617 c 0
 383 617 451 573 479 503 c 1
 513 570 571 617 664 617 c 0
 816 617 890 502 890 364 c 0
 890 342 886 316 883 293 c 1
 499 293 l 1
 499 286 l 2
 499 140 551 31 664 31 c 0
 756 31 801 98 809 148 c 1
 874 142 l 1
 864 79 798 -17 664 -17 c 0
 559 -17 499 42 468 121 c 1
 440 52 381 -17 268 -17 c 0
 147 -17 70 51 70 171 c 0
499 337 m 1
 825 337 l 1
 826 346 827 354 827 363 c 0
 827 489 768 569 664 569 c 0
 560 569 505 471 499 337 c 1
437 259 m 1
 393 265 332 275 247 275 c 0
 178 275 135 238 135 171 c 0
 135 73 197 29 275 29 c 0
 382 29 427 124 437 205 c 1
 437 259 l 1
EndSplineSet
EndChar

StartChar: ccedilla
Encoding: 231 231 170
Width: 605
GlyphClass: 2
Flags: W
AnchorPoint: "LatinAbove.mark" 330 0 basechar 0
LayerCount: 2
Fore
SplineSet
245 -291 m 1
 307 -275 398 -246 398 -175 c 0
 398 -149 380 -124 317 -124 c 0
 299 -124 278 -126 267 -128 c 1
 245 -106 l 1
 296 -15 l 1
 124 3 70 149 70 287 c 2
 70 313 l 2
 70 460 131 617 331 617 c 0
 478 617 545 520 555 457 c 1
 488 451 l 1
 479 500 428 567 331 567 c 0
 198 567 138 459 138 313 c 2
 138 287 l 2
 138 141 198 33 331 33 c 0
 428 33 479 100 488 149 c 1
 555 143 l 1
 545 81 480 -15 336 -17 c 1
 295 -91 l 1
 304 -90 315 -90 325 -90 c 0
 402 -90 445 -122 445 -175 c 0
 445 -281 310 -310 257 -325 c 1
 245 -291 l 1
EndSplineSet
EndChar

StartChar: egrave
Encoding: 232 232 171
Width: 640
GlyphClass: 2
Flags: W
AnchorPoint: "LatinBelow.mark" 330 0 basechar 0
AnchorPoint: "LatinAbove.mark" 330 180 basechar 0
LayerCount: 2
Fore
SplineSet
185 852 m 1
 217 900 l 1
 430 729 l 1
 409 700 l 1
 185 852 l 1
70 286 m 2
 70 314 l 2
 70 460 132 617 327 617 c 0
 486 617 570 501 570 364 c 0
 570 341 568 316 563 293 c 1
 135 293 l 1
 135 286 l 2
 135 140 193 32 327 32 c 0
 427 32 477 99 486 148 c 1
 551 142 l 1
 540 78 472 -17 327 -17 c 0
 130 -17 70 140 70 286 c 2
136 337 m 1
 506 337 l 1
 507 346 507 355 507 364 c 0
 507 492 436 569 327 569 c 0
 201 569 142 470 136 337 c 1
EndSplineSet
EndChar

StartChar: eacute
Encoding: 233 233 172
Width: 640
GlyphClass: 2
Flags: W
AnchorPoint: "LatinBelow.mark" 330 0 basechar 0
AnchorPoint: "LatinAbove.mark" 330 180 basechar 0
LayerCount: 2
Fore
SplineSet
475 852 m 1
 251 700 l 1
 230 729 l 1
 443 900 l 1
 475 852 l 1
70 286 m 2
 70 314 l 2
 70 460 132 617 327 617 c 0
 486 617 570 501 570 364 c 0
 570 341 568 316 563 293 c 1
 135 293 l 1
 135 286 l 2
 135 140 193 32 327 32 c 0
 427 32 477 99 486 148 c 1
 551 142 l 1
 540 78 472 -17 327 -17 c 0
 130 -17 70 140 70 286 c 2
136 337 m 1
 506 337 l 1
 507 346 507 355 507 364 c 0
 507 492 436 569 327 569 c 0
 201 569 142 470 136 337 c 1
EndSplineSet
EndChar

StartChar: ecircumflex
Encoding: 234 234 173
Width: 640
GlyphClass: 2
Flags: W
AnchorPoint: "LatinBelow.mark" 330 0 basechar 0
AnchorPoint: "LatinAbove.mark" 330 180 basechar 0
LayerCount: 2
Fore
SplineSet
150 709 m 1
 320 860 l 1
 340 860 l 1
 510 709 l 1
 487 685 l 1
 330 800 l 1
 173 685 l 1
 150 709 l 1
70 286 m 2
 70 314 l 2
 70 460 132 617 327 617 c 0
 486 617 570 501 570 364 c 0
 570 341 568 316 563 293 c 1
 135 293 l 1
 135 286 l 2
 135 140 193 32 327 32 c 0
 427 32 477 99 486 148 c 1
 551 142 l 1
 540 78 472 -17 327 -17 c 0
 130 -17 70 140 70 286 c 2
136 337 m 1
 506 337 l 1
 507 346 507 355 507 364 c 0
 507 492 436 569 327 569 c 0
 201 569 142 470 136 337 c 1
EndSplineSet
EndChar

StartChar: edieresis
Encoding: 235 235 174
Width: 640
GlyphClass: 2
Flags: W
AnchorPoint: "LatinBelow.mark" 330 0 basechar 0
AnchorPoint: "LatinAbove.mark" 330 180 basechar 0
LayerCount: 2
Fore
SplineSet
386 780 m 0
 386 816 413 838 448 838 c 0
 483 838 510 816 510 780 c 0
 510 744 483 722 448 722 c 0
 413 722 386 744 386 780 c 0
150 780 m 0
 150 816 177 838 212 838 c 0
 247 838 274 816 274 780 c 0
 274 744 247 722 212 722 c 0
 177 722 150 744 150 780 c 0
70 286 m 2
 70 314 l 2
 70 460 132 617 327 617 c 0
 486 617 570 501 570 364 c 0
 570 341 568 316 563 293 c 1
 135 293 l 1
 135 286 l 2
 135 140 193 32 327 32 c 0
 427 32 477 99 486 148 c 1
 551 142 l 1
 540 78 472 -17 327 -17 c 0
 130 -17 70 140 70 286 c 2
136 337 m 1
 506 337 l 1
 507 346 507 355 507 364 c 0
 507 492 436 569 327 569 c 0
 201 569 142 470 136 337 c 1
EndSplineSet
EndChar

StartChar: igrave
Encoding: 236 236 175
Width: 300
GlyphClass: 2
Flags: W
AnchorPoint: "LatinBelow.mark" 150 0 basechar 0
AnchorPoint: "LatinAbove.mark" 150 180 basechar 0
LayerCount: 2
Fore
SplineSet
5 852 m 1
 37 900 l 1
 250 729 l 1
 229 700 l 1
 5 852 l 1
116 0 m 1
 116 600 l 1
 184 600 l 1
 184 0 l 1
 116 0 l 1
EndSplineSet
EndChar

StartChar: iacute
Encoding: 237 237 176
Width: 300
GlyphClass: 2
Flags: W
AnchorPoint: "LatinBelow.mark" 150 0 basechar 0
AnchorPoint: "LatinAbove.mark" 150 180 basechar 0
LayerCount: 2
Fore
SplineSet
295 852 m 1
 71 700 l 1
 50 729 l 1
 263 900 l 1
 295 852 l 1
116 0 m 1
 116 600 l 1
 184 600 l 1
 184 0 l 1
 116 0 l 1
EndSplineSet
EndChar

StartChar: icircumflex
Encoding: 238 238 177
Width: 300
GlyphClass: 2
Flags: W
AnchorPoint: "LatinBelow.mark" 150 0 basechar 0
AnchorPoint: "LatinAbove.mark" 150 180 basechar 0
LayerCount: 2
Fore
SplineSet
-30 709 m 1
 140 860 l 1
 160 860 l 1
 330 709 l 1
 307 685 l 1
 150 800 l 1
 -7 685 l 1
 -30 709 l 1
116 0 m 1
 116 600 l 1
 184 600 l 1
 184 0 l 1
 116 0 l 1
EndSplineSet
EndChar

StartChar: idieresis
Encoding: 239 239 178
Width: 300
GlyphClass: 2
Flags: W
AnchorPoint: "LatinBelow.mark" 150 0 basechar 0
AnchorPoint: "LatinAbove.mark" 150 180 basechar 0
LayerCount: 2
Fore
SplineSet
206 780 m 0
 206 816 233 838 268 838 c 0
 303 838 330 816 330 780 c 0
 330 744 303 722 268 722 c 0
 233 722 206 744 206 780 c 0
-30 780 m 0
 -30 816 -3 838 32 838 c 0
 67 838 94 816 94 780 c 0
 94 744 67 722 32 722 c 0
 -3 722 -30 744 -30 780 c 0
116 0 m 1
 116 600 l 1
 184 600 l 1
 184 0 l 1
 116 0 l 1
EndSplineSet
EndChar

StartChar: eth
Encoding: 240 240 179
Width: 660
GlyphClass: 2
Flags: W
AnchorPoint: "LatinBelow.mark" 330 0 basechar 0
AnchorPoint: "LatinAbove.mark" 350 180 basechar 0
LayerCount: 2
Fore
SplineSet
380 775 m 1
 521 810 l 1
 530 773 l 1
 413 744 l 1
 538 619 590 469 590 301 c 2
 590 274 l 2
 590 134 530 -17 330 -17 c 0
 130 -17 70 134 70 274 c 2
 70 310 l 2
 70 455 133 607 318 607 c 0
 392 607 448 572 487 526 c 1
 460 601 416 668 353 729 c 1
 139 675 l 1
 130 712 l 1
 319 759 l 1
 289 785 254 809 216 832 c 1
 253 867 l 1
 301 838 343 808 380 775 c 1
519 383 m 0
 498 464 433 557 325 557 c 0
 197 557 137 456 137 310 c 2
 137 274 l 2
 137 134 196 32 330 32 c 0
 464 32 523 134 523 274 c 2
 523 301 l 2
 523 329 522 357 519 383 c 0
EndSplineSet
EndChar

StartChar: ntilde
Encoding: 241 241 180
Width: 655
GlyphClass: 2
Flags: W
AnchorPoint: "LatinBelow.mark" 360 0 basechar 0
LayerCount: 2
Fore
SplineSet
150 737 m 1
 167 783 193 855 253 855 c 0
 299 855 326 824 348 801 c 0
 370 779 386 755 408 755 c 0
 442 755 463 820 473 847 c 1
 510 833 l 1
 494 786 466 715 407 715 c 0
 361 715 334 746 312 769 c 0
 290 791 274 815 252 815 c 0
 217 815 198 751 187 723 c 1
 150 737 l 1
100 0 m 1
 100 420 l 1
 90 597 l 1
 150 603 l 1
 167 421 l 1
 207 517 283 612 402 612 c 0
 515 612 570 530 570 426 c 2
 570 0 l 1
 503 0 l 1
 503 424 l 2
 503 516 455 558 387 558 c 0
 268 558 184 418 167 305 c 1
 167 0 l 1
 100 0 l 1
EndSplineSet
EndChar

StartChar: ograve
Encoding: 242 242 181
Width: 660
GlyphClass: 2
Flags: W
AnchorPoint: "LatinBelow.mark" 330 0 basechar 0
AnchorPoint: "LatinAbove.mark" 330 180 basechar 0
LayerCount: 2
Fore
SplineSet
185 852 m 1
 217 900 l 1
 430 729 l 1
 409 700 l 1
 185 852 l 1
70 286 m 2
 70 314 l 2
 70 460 130 617 330 617 c 0
 530 617 590 460 590 314 c 2
 590 286 l 2
 590 140 530 -17 330 -17 c 0
 130 -17 70 140 70 286 c 2
330 33 m 0
 464 33 523 140 523 286 c 2
 523 314 l 2
 523 460 464 567 330 567 c 0
 196 567 137 460 137 314 c 2
 137 286 l 2
 137 140 196 33 330 33 c 0
EndSplineSet
EndChar

StartChar: oacute
Encoding: 243 243 182
Width: 660
GlyphClass: 2
Flags: W
AnchorPoint: "LatinBelow.mark" 330 0 basechar 0
AnchorPoint: "LatinAbove.mark" 330 180 basechar 0
LayerCount: 2
Fore
SplineSet
475 852 m 1
 251 700 l 1
 230 729 l 1
 443 900 l 1
 475 852 l 1
70 286 m 2
 70 314 l 2
 70 460 130 617 330 617 c 0
 530 617 590 460 590 314 c 2
 590 286 l 2
 590 140 530 -17 330 -17 c 0
 130 -17 70 140 70 286 c 2
330 33 m 0
 464 33 523 140 523 286 c 2
 523 314 l 2
 523 460 464 567 330 567 c 0
 196 567 137 460 137 314 c 2
 137 286 l 2
 137 140 196 33 330 33 c 0
EndSplineSet
EndChar

StartChar: ocircumflex
Encoding: 244 244 183
Width: 660
GlyphClass: 2
Flags: W
AnchorPoint: "LatinBelow.mark" 330 0 basechar 0
AnchorPoint: "LatinAbove.mark" 330 180 basechar 0
LayerCount: 2
Fore
SplineSet
150 709 m 1
 320 860 l 1
 340 860 l 1
 510 709 l 1
 487 685 l 1
 330 800 l 1
 173 685 l 1
 150 709 l 1
70 286 m 2
 70 314 l 2
 70 460 130 617 330 617 c 0
 530 617 590 460 590 314 c 2
 590 286 l 2
 590 140 530 -17 330 -17 c 0
 130 -17 70 140 70 286 c 2
330 33 m 0
 464 33 523 140 523 286 c 2
 523 314 l 2
 523 460 464 567 330 567 c 0
 196 567 137 460 137 314 c 2
 137 286 l 2
 137 140 196 33 330 33 c 0
EndSplineSet
EndChar

StartChar: otilde
Encoding: 245 245 184
Width: 660
GlyphClass: 2
Flags: W
AnchorPoint: "LatinBelow.mark" 330 0 basechar 0
AnchorPoint: "LatinAbove.mark" 330 180 basechar 0
LayerCount: 2
Fore
SplineSet
150 737 m 1
 167 783 193 855 253 855 c 0
 299 855 326 824 348 801 c 0
 370 779 386 755 408 755 c 0
 442 755 463 820 473 847 c 1
 510 833 l 1
 494 786 466 715 407 715 c 0
 361 715 334 746 312 769 c 0
 290 791 274 815 252 815 c 0
 217 815 198 751 187 723 c 1
 150 737 l 1
70 286 m 2
 70 314 l 2
 70 460 130 617 330 617 c 0
 530 617 590 460 590 314 c 2
 590 286 l 2
 590 140 530 -17 330 -17 c 0
 130 -17 70 140 70 286 c 2
330 33 m 0
 464 33 523 140 523 286 c 2
 523 314 l 2
 523 460 464 567 330 567 c 0
 196 567 137 460 137 314 c 2
 137 286 l 2
 137 140 196 33 330 33 c 0
EndSplineSet
EndChar

StartChar: odieresis
Encoding: 246 246 185
Width: 660
GlyphClass: 2
Flags: W
AnchorPoint: "LatinBelow.mark" 330 0 basechar 0
AnchorPoint: "LatinAbove.mark" 330 180 basechar 0
LayerCount: 2
Fore
SplineSet
386 780 m 0
 386 816 413 838 448 838 c 0
 483 838 510 816 510 780 c 0
 510 744 483 722 448 722 c 0
 413 722 386 744 386 780 c 0
150 780 m 0
 150 816 177 838 212 838 c 0
 247 838 274 816 274 780 c 0
 274 744 247 722 212 722 c 0
 177 722 150 744 150 780 c 0
70 286 m 2
 70 314 l 2
 70 460 130 617 330 617 c 0
 530 617 590 460 590 314 c 2
 590 286 l 2
 590 140 530 -17 330 -17 c 0
 130 -17 70 140 70 286 c 2
330 33 m 0
 464 33 523 140 523 286 c 2
 523 314 l 2
 523 460 464 567 330 567 c 0
 196 567 137 460 137 314 c 2
 137 286 l 2
 137 140 196 33 330 33 c 0
EndSplineSet
EndChar

StartChar: divide
Encoding: 247 247 186
Width: 600
GlyphClass: 2
Flags: W
LayerCount: 2
Fore
SplineSet
105 336 m 1
 105 384 l 1
 495 384 l 1
 495 336 l 1
 105 336 l 1
240 235 m 0
 240 270 266 291 300 291 c 0
 334 291 360 270 360 235 c 0
 360 200 334 179 300 179 c 0
 266 179 240 200 240 235 c 0
240 485 m 0
 240 520 266 541 300 541 c 0
 334 541 360 520 360 485 c 0
 360 450 334 429 300 429 c 0
 266 429 240 450 240 485 c 0
EndSplineSet
EndChar

StartChar: oslash
Encoding: 248 248 187
Width: 660
GlyphClass: 2
Flags: W
AnchorPoint: "LatinBelow.mark" 330 0 basechar 0
AnchorPoint: "LatinAbove.mark" 330 0 basechar 0
LayerCount: 2
Fore
SplineSet
70 286 m 2
 70 314 l 2
 70 460 130 617 330 617 c 0
 408 617 465 593 505 555 c 1
 554 617 l 1
 585 595 l 1
 531 526 l 1
 574 468 590 389 590 314 c 2
 590 286 l 2
 590 140 530 -17 330 -17 c 0
 252 -17 195 7 155 45 c 1
 106 -17 l 1
 75 5 l 1
 129 74 l 1
 86 132 70 211 70 286 c 2
468 507 m 1
 437 545 391 567 330 567 c 0
 196 567 137 460 137 314 c 2
 137 286 l 2
 137 224 148 169 170 126 c 1
 468 507 l 1
490 474 m 1
 192 93 l 1
 223 55 269 33 330 33 c 0
 464 33 523 140 523 286 c 2
 523 314 l 2
 523 376 512 431 490 474 c 1
EndSplineSet
EndChar

StartChar: ugrave
Encoding: 249 249 188
Width: 620
GlyphClass: 2
Flags: W
AnchorPoint: "LatinBelow.mark" 310 0 basechar 0
AnchorPoint: "LatinAbove.mark" 310 180 basechar 0
LayerCount: 2
Fore
SplineSet
165 852 m 1
 197 900 l 1
 410 729 l 1
 389 700 l 1
 165 852 l 1
80 181 m 2
 80 600 l 1
 147 600 l 1
 147 181 l 2
 147 86 214 33 310 33 c 0
 406 33 473 86 473 181 c 2
 473 600 l 1
 540 600 l 1
 540 181 l 2
 540 66 450 -17 310 -17 c 0
 170 -17 80 66 80 181 c 2
EndSplineSet
EndChar

StartChar: uacute
Encoding: 250 250 189
Width: 620
GlyphClass: 2
Flags: W
AnchorPoint: "LatinBelow.mark" 310 0 basechar 0
AnchorPoint: "LatinAbove.mark" 310 180 basechar 0
LayerCount: 2
Fore
SplineSet
455 852 m 1
 231 700 l 1
 210 729 l 1
 423 900 l 1
 455 852 l 1
80 181 m 2
 80 600 l 1
 147 600 l 1
 147 181 l 2
 147 86 214 33 310 33 c 0
 406 33 473 86 473 181 c 2
 473 600 l 1
 540 600 l 1
 540 181 l 2
 540 66 450 -17 310 -17 c 0
 170 -17 80 66 80 181 c 2
EndSplineSet
EndChar

StartChar: ucircumflex
Encoding: 251 251 190
Width: 620
GlyphClass: 2
Flags: W
AnchorPoint: "LatinBelow.mark" 310 0 basechar 0
AnchorPoint: "LatinAbove.mark" 310 180 basechar 0
LayerCount: 2
Fore
SplineSet
130 709 m 1
 300 860 l 1
 320 860 l 1
 490 709 l 1
 467 685 l 1
 310 800 l 1
 153 685 l 1
 130 709 l 1
80 181 m 2
 80 600 l 1
 147 600 l 1
 147 181 l 2
 147 86 214 33 310 33 c 0
 406 33 473 86 473 181 c 2
 473 600 l 1
 540 600 l 1
 540 181 l 2
 540 66 450 -17 310 -17 c 0
 170 -17 80 66 80 181 c 2
EndSplineSet
EndChar

StartChar: udieresis
Encoding: 252 252 191
Width: 620
GlyphClass: 2
Flags: W
AnchorPoint: "LatinBelow.mark" 310 0 basechar 0
AnchorPoint: "LatinAbove.mark" 310 180 basechar 0
LayerCount: 2
Fore
SplineSet
366 780 m 0
 366 816 393 838 428 838 c 0
 463 838 490 816 490 780 c 0
 490 744 463 722 428 722 c 0
 393 722 366 744 366 780 c 0
130 780 m 0
 130 816 157 838 192 838 c 0
 227 838 254 816 254 780 c 0
 254 744 227 722 192 722 c 0
 157 722 130 744 130 780 c 0
80 181 m 2
 80 600 l 1
 147 600 l 1
 147 181 l 2
 147 86 214 33 310 33 c 0
 406 33 473 86 473 181 c 2
 473 600 l 1
 540 600 l 1
 540 181 l 2
 540 66 450 -17 310 -17 c 0
 170 -17 80 66 80 181 c 2
EndSplineSet
EndChar

StartChar: yacute
Encoding: 253 253 192
Width: 600
GlyphClass: 2
Flags: W
AnchorPoint: "LatinBelow.mark" 300 -180 basechar 0
AnchorPoint: "LatinAbove.mark" 300 180 basechar 0
LayerCount: 2
Fore
SplineSet
445 852 m 1
 221 700 l 1
 200 729 l 1
 413 900 l 1
 445 852 l 1
30 591 m 1
 30 595 l 1
 102 600 l 1
 300 74 l 1
 498 600 l 1
 570 595 l 1
 570 591 l 1
 316 -34 l 2
 282 -110 235 -227 139 -227 c 0
 92 -227 62 -204 40 -185 c 1
 74 -143 l 1
 92 -161 110 -180 138 -180 c 0
 189 -180 225 -101 260 -21 c 2
 271 3 l 1
 30 591 l 1
EndSplineSet
EndChar

StartChar: thorn
Encoding: 254 254 193
Width: 675
GlyphClass: 2
Flags: W
AnchorPoint: "LatinBelow.mark" 150 -180 basechar 0
AnchorPoint: "LatinAbove.mark" 135 180 basechar 0
LayerCount: 2
Fore
SplineSet
605 313 m 2
 605 287 l 2
 605 142 542 -12 357 -12 c 0
 263 -12 203 46 167 111 c 1
 167 -210 l 1
 100 -210 l 1
 100 810 l 1
 165 810 l 1
 165 489 l 1
 202 554 263 612 357 612 c 0
 542 612 605 458 605 313 c 2
167 207 m 1
 189 127 245 38 350 38 c 0
 478 38 538 141 538 287 c 2
 538 313 l 2
 538 459 478 562 350 562 c 0
 245 562 189 473 167 393 c 1
 167 207 l 1
EndSplineSet
EndChar

StartChar: ydieresis
Encoding: 255 255 194
Width: 600
GlyphClass: 2
Flags: W
AnchorPoint: "LatinBelow.mark" 300 -180 basechar 0
AnchorPoint: "LatinAbove.mark" 300 180 basechar 0
LayerCount: 2
Fore
SplineSet
356 780 m 0
 356 816 383 838 418 838 c 0
 453 838 480 816 480 780 c 0
 480 744 453 722 418 722 c 0
 383 722 356 744 356 780 c 0
120 780 m 0
 120 816 147 838 182 838 c 0
 217 838 244 816 244 780 c 0
 244 744 217 722 182 722 c 0
 147 722 120 744 120 780 c 0
30 591 m 1
 30 595 l 1
 102 600 l 1
 300 74 l 1
 498 600 l 1
 570 595 l 1
 570 591 l 1
 316 -34 l 2
 282 -110 235 -227 139 -227 c 0
 92 -227 62 -204 40 -185 c 1
 74 -143 l 1
 92 -161 110 -180 138 -180 c 0
 189 -180 225 -101 260 -21 c 2
 271 3 l 1
 30 591 l 1
EndSplineSet
EndChar

StartChar: Amacron
Encoding: 256 256 195
Width: 750
GlyphClass: 2
Flags: W
AnchorPoint: "LatinBelow.mark" 375 0 basechar 0
AnchorPoint: "LatinAbove.mark" 375 330 basechar 0
LayerCount: 2
Fore
SplineSet
195 907 m 1
 195 953 l 1
 555 953 l 1
 555 907 l 1
 195 907 l 1
720 0 m 1
 640 0 l 1
 570 184 l 1
 180 184 l 1
 110 0 l 1
 30 0 l 1
 30 5 l 1
 344 780 l 1
 406 780 l 1
 720 5 l 1
 720 0 l 1
550 236 m 1
 375 698 l 1
 200 236 l 1
 550 236 l 1
EndSplineSet
EndChar

StartChar: amacron
Encoding: 257 257 196
Width: 625
GlyphClass: 2
Flags: W
AnchorPoint: "LatinBelow.mark" 330 0 basechar 0
AnchorPoint: "LatinAbove.mark" 310 180 basechar 0
LayerCount: 2
Fore
SplineSet
130 757 m 1
 130 803 l 1
 490 803 l 1
 490 757 l 1
 130 757 l 1
70 171 m 0
 70 249 132 316 250 316 c 0
 331 316 408 309 460 302 c 1
 460 425 l 2
 460 519 394 567 300 567 c 0
 208 567 154 513 142 433 c 1
 75 438 l 1
 88 531 162 617 300 617 c 0
 436 617 525 539 525 425 c 2
 525 132 l 2
 525 67 546 39 600 33 c 1
 583 -12 l 1
 535 -6 477 19 470 103 c 1
 436 43 377 -12 277 -12 c 0
 154 -12 70 56 70 171 c 0
463 259 m 1
 417 265 343 275 253 275 c 0
 184 275 135 236 135 171 c 0
 135 77 202 31 283 31 c 0
 396 31 446 126 463 204 c 1
 463 259 l 1
EndSplineSet
MultipleSubs2: "Latin.a.decomp subtable" uni0251 uni0304
EndChar

StartChar: Abreve
Encoding: 258 258 197
Width: 750
GlyphClass: 2
Flags: W
AnchorPoint: "LatinBelow.mark" 375 0 basechar 0
AnchorPoint: "LatinAbove.mark" 375 330 basechar 0
LayerCount: 2
Fore
SplineSet
195 989 m 1
 239 1005 l 1
 252 953 284 895 375 895 c 0
 466 895 498 953 511 1005 c 1
 555 989 l 1
 537 920 488 850 375 850 c 0
 262 850 213 920 195 989 c 1
720 0 m 1
 640 0 l 1
 570 184 l 1
 180 184 l 1
 110 0 l 1
 30 0 l 1
 30 5 l 1
 344 780 l 1
 406 780 l 1
 720 5 l 1
 720 0 l 1
550 236 m 1
 375 698 l 1
 200 236 l 1
 550 236 l 1
EndSplineSet
EndChar

StartChar: abreve
Encoding: 259 259 198
Width: 625
GlyphClass: 2
Flags: W
AnchorPoint: "LatinBelow.mark" 330 0 basechar 0
AnchorPoint: "LatinAbove.mark" 310 180 basechar 0
LayerCount: 2
Fore
SplineSet
130 839 m 1
 174 855 l 1
 187 803 219 745 310 745 c 0
 401 745 433 803 446 855 c 1
 490 839 l 1
 472 770 423 700 310 700 c 0
 197 700 148 770 130 839 c 1
70 171 m 0
 70 249 132 316 250 316 c 0
 331 316 408 309 460 302 c 1
 460 425 l 2
 460 519 394 567 300 567 c 0
 208 567 154 513 142 433 c 1
 75 438 l 1
 88 531 162 617 300 617 c 0
 436 617 525 539 525 425 c 2
 525 132 l 2
 525 67 546 39 600 33 c 1
 583 -12 l 1
 535 -6 477 19 470 103 c 1
 436 43 377 -12 277 -12 c 0
 154 -12 70 56 70 171 c 0
463 259 m 1
 417 265 343 275 253 275 c 0
 184 275 135 236 135 171 c 0
 135 77 202 31 283 31 c 0
 396 31 446 126 463 204 c 1
 463 259 l 1
EndSplineSet
MultipleSubs2: "Latin.a.decomp subtable" uni0251 uni0306
EndChar

StartChar: Aogonek
Encoding: 260 260 199
Width: 750
GlyphClass: 2
Flags: W
AnchorPoint: "LatinAbove.mark" 375 150 basechar 0
LayerCount: 2
Fore
SplineSet
550 236 m 1
 375 698 l 1
 200 236 l 1
 550 236 l 1
651 0 m 1
 640 0 l 1
 570 184 l 1
 180 184 l 1
 110 0 l 1
 30 0 l 1
 30 5 l 1
 344 780 l 1
 406 780 l 1
 720 5 l 1
 720 0 l 1
 695 0 l 1
 666 -35 643 -76 643 -138 c 0
 643 -188 670 -212 708 -212 c 0
 737 -212 759 -204 773 -196 c 1
 786 -231 l 1
 762 -244 736 -250 701 -250 c 0
 632 -250 596 -206 596 -143 c 0
 596 -80 621 -36 651 0 c 1
EndSplineSet
EndChar

StartChar: aogonek
Encoding: 261 261 200
Width: 625
GlyphClass: 2
Flags: W
AnchorPoint: "LatinAbove.mark" 310 0 basechar 0
LayerCount: 2
Fore
SplineSet
463 259 m 1
 417 265 343 275 253 275 c 0
 184 275 135 236 135 171 c 0
 135 77 202 31 283 31 c 0
 396 31 446 126 463 204 c 1
 463 259 l 1
70 171 m 0
 70 249 132 316 250 316 c 0
 331 316 408 309 460 302 c 1
 460 425 l 2
 460 519 394 567 300 567 c 0
 208 567 154 513 142 433 c 1
 75 438 l 1
 88 531 162 617 300 617 c 0
 436 617 525 539 525 425 c 2
 525 132 l 2
 525 67 546 39 600 33 c 1
 583 -12 l 1
 569 -10 554 -7 540 -1 c 1
 511 -35 488 -77 488 -138 c 0
 488 -188 515 -212 553 -212 c 0
 582 -212 604 -204 618 -196 c 1
 631 -231 l 1
 607 -244 581 -250 546 -250 c 0
 477 -250 441 -206 441 -143 c 0
 441 -70 475 -22 511 16 c 1
 490 34 473 61 470 103 c 1
 436 43 377 -12 277 -12 c 0
 154 -12 70 56 70 171 c 0
EndSplineSet
MultipleSubs2: "Latin.a.decomp subtable" uni0251 uni0328
EndChar

StartChar: Cacute
Encoding: 262 262 201
Width: 755
GlyphClass: 2
Flags: W
AnchorPoint: "LatinBelow.mark" 410 0 basechar 0
LayerCount: 2
Fore
SplineSet
555 1002 m 1
 331 850 l 1
 310 879 l 1
 523 1050 l 1
 555 1002 l 1
75 407 m 2
 75 599 158 797 413 797 c 0
 600 797 686 674 700 595 c 1
 627 588 l 1
 615 653 548 742 413 742 c 0
 229 742 149 597 149 407 c 2
 149 373 l 2
 149 183 229 38 413 38 c 0
 548 38 615 127 627 192 c 1
 700 185 l 1
 686 106 600 -17 413 -17 c 0
 158 -17 75 181 75 373 c 2
 75 407 l 2
EndSplineSet
EndChar

StartChar: cacute
Encoding: 263 263 202
Width: 605
GlyphClass: 2
Flags: W
AnchorPoint: "LatinBelow.mark" 330 0 basechar 0
LayerCount: 2
Fore
SplineSet
475 852 m 1
 251 700 l 1
 230 729 l 1
 443 900 l 1
 475 852 l 1
70 287 m 2
 70 313 l 2
 70 460 131 617 331 617 c 0
 478 617 545 520 555 457 c 1
 488 451 l 1
 479 500 428 567 331 567 c 0
 198 567 138 459 138 313 c 2
 138 287 l 2
 138 141 198 33 331 33 c 0
 428 33 479 100 488 149 c 1
 555 143 l 1
 545 80 478 -17 331 -17 c 0
 131 -17 70 140 70 287 c 2
EndSplineSet
EndChar

StartChar: Ccircumflex
Encoding: 264 264 203
Width: 755
GlyphClass: 2
Flags: W
AnchorPoint: "LatinBelow.mark" 410 0 basechar 0
LayerCount: 2
Fore
SplineSet
230 859 m 1
 400 1010 l 1
 420 1010 l 1
 590 859 l 1
 567 835 l 1
 410 950 l 1
 253 835 l 1
 230 859 l 1
75 407 m 2
 75 599 158 797 413 797 c 0
 600 797 686 674 700 595 c 1
 627 588 l 1
 615 653 548 742 413 742 c 0
 229 742 149 597 149 407 c 2
 149 373 l 2
 149 183 229 38 413 38 c 0
 548 38 615 127 627 192 c 1
 700 185 l 1
 686 106 600 -17 413 -17 c 0
 158 -17 75 181 75 373 c 2
 75 407 l 2
EndSplineSet
EndChar

StartChar: ccircumflex
Encoding: 265 265 204
Width: 605
GlyphClass: 2
Flags: W
AnchorPoint: "LatinBelow.mark" 330 0 basechar 0
LayerCount: 2
Fore
SplineSet
150 709 m 1
 320 860 l 1
 340 860 l 1
 510 709 l 1
 487 685 l 1
 330 800 l 1
 173 685 l 1
 150 709 l 1
70 287 m 2
 70 313 l 2
 70 460 131 617 331 617 c 0
 478 617 545 520 555 457 c 1
 488 451 l 1
 479 500 428 567 331 567 c 0
 198 567 138 459 138 313 c 2
 138 287 l 2
 138 141 198 33 331 33 c 0
 428 33 479 100 488 149 c 1
 555 143 l 1
 545 80 478 -17 331 -17 c 0
 131 -17 70 140 70 287 c 2
EndSplineSet
EndChar

StartChar: Cdotaccent
Encoding: 266 266 205
Width: 755
GlyphClass: 2
Flags: W
AnchorPoint: "LatinBelow.mark" 410 0 basechar 0
LayerCount: 2
Fore
SplineSet
410 991 m 0
 447 991 475 967 475 930 c 0
 475 893 447 869 410 869 c 0
 373 869 345 893 345 930 c 0
 345 967 373 991 410 991 c 0
75 407 m 2
 75 599 158 797 413 797 c 0
 600 797 686 674 700 595 c 1
 627 588 l 1
 615 653 548 742 413 742 c 0
 229 742 149 597 149 407 c 2
 149 373 l 2
 149 183 229 38 413 38 c 0
 548 38 615 127 627 192 c 1
 700 185 l 1
 686 106 600 -17 413 -17 c 0
 158 -17 75 181 75 373 c 2
 75 407 l 2
EndSplineSet
EndChar

StartChar: cdotaccent
Encoding: 267 267 206
Width: 605
GlyphClass: 2
Flags: W
AnchorPoint: "LatinBelow.mark" 330 0 basechar 0
LayerCount: 2
Fore
SplineSet
330 841 m 0
 367 841 395 817 395 780 c 0
 395 743 367 719 330 719 c 0
 293 719 265 743 265 780 c 0
 265 817 293 841 330 841 c 0
70 287 m 2
 70 313 l 2
 70 460 131 617 331 617 c 0
 478 617 545 520 555 457 c 1
 488 451 l 1
 479 500 428 567 331 567 c 0
 198 567 138 459 138 313 c 2
 138 287 l 2
 138 141 198 33 331 33 c 0
 428 33 479 100 488 149 c 1
 555 143 l 1
 545 80 478 -17 331 -17 c 0
 131 -17 70 140 70 287 c 2
EndSplineSet
EndChar

StartChar: Ccaron
Encoding: 268 268 207
Width: 755
GlyphClass: 2
Flags: W
AnchorPoint: "LatinBelow.mark" 410 0 basechar 0
LayerCount: 2
Fore
SplineSet
590 996 m 1
 420 845 l 1
 400 845 l 1
 230 996 l 1
 253 1020 l 1
 410 905 l 1
 567 1020 l 1
 590 996 l 1
75 407 m 2
 75 599 158 797 413 797 c 0
 600 797 686 674 700 595 c 1
 627 588 l 1
 615 653 548 742 413 742 c 0
 229 742 149 597 149 407 c 2
 149 373 l 2
 149 183 229 38 413 38 c 0
 548 38 615 127 627 192 c 1
 700 185 l 1
 686 106 600 -17 413 -17 c 0
 158 -17 75 181 75 373 c 2
 75 407 l 2
EndSplineSet
EndChar

StartChar: ccaron
Encoding: 269 269 208
Width: 605
GlyphClass: 2
Flags: W
AnchorPoint: "LatinBelow.mark" 330 0 basechar 0
LayerCount: 2
Fore
SplineSet
510 846 m 1
 340 695 l 1
 320 695 l 1
 150 846 l 1
 173 870 l 1
 330 755 l 1
 487 870 l 1
 510 846 l 1
70 287 m 2
 70 313 l 2
 70 460 131 617 331 617 c 0
 478 617 545 520 555 457 c 1
 488 451 l 1
 479 500 428 567 331 567 c 0
 198 567 138 459 138 313 c 2
 138 287 l 2
 138 141 198 33 331 33 c 0
 428 33 479 100 488 149 c 1
 555 143 l 1
 545 80 478 -17 331 -17 c 0
 131 -17 70 140 70 287 c 2
EndSplineSet
EndChar

StartChar: Dcaron
Encoding: 270 270 209
Width: 770
GlyphClass: 2
Flags: W
AnchorPoint: "LatinBelow.mark" 320 0 basechar 0
LayerCount: 2
Fore
SplineSet
500 996 m 1
 330 845 l 1
 310 845 l 1
 140 996 l 1
 163 1020 l 1
 320 905 l 1
 477 1020 l 1
 500 996 l 1
175 48 m 1
 207 46 255 44 287 44 c 0
 537 44 624 188 624 372 c 2
 624 408 l 2
 624 592 537 736 287 736 c 0
 255 736 207 734 175 732 c 1
 175 48 l 1
105 780 m 1
 105 780 213 789 287 789 c 0
 592 789 695 601 695 408 c 2
 695 372 l 2
 695 179 592 -9 287 -9 c 0
 213 -9 105 0 105 0 c 1
 105 780 l 1
EndSplineSet
EndChar

StartChar: dcaron
Encoding: 271 271 210
Width: 890
GlyphClass: 2
Flags: W
AnchorPoint: "LatinBelow.mark" 360 0 basechar 0
AnchorPoint: "LatinAbove.mark" 525 180 basechar 0
LayerCount: 2
Fore
SplineSet
817 720 m 1
 807 712 793 708 778 708 c 0
 745 708 720 729 720 763 c 0
 720 800 743 825 782 825 c 0
 843 825 860 774 860 730 c 0
 860 640 796 582 747 560 c 1
 729 585 l 1
 767 603 815 652 817 720 c 1
70 287 m 2
 70 313 l 2
 70 458 133 612 318 612 c 0
 414 612 474 552 510 486 c 1
 510 810 l 1
 575 810 l 1
 575 132 l 2
 575 67 596 39 650 33 c 1
 633 -12 l 1
 581 -6 519 22 519 121 c 1
 515 120 l 1
 479 51 417 -12 318 -12 c 0
 133 -12 70 142 70 287 c 2
510 385 m 1
 490 466 433 562 325 562 c 0
 197 562 137 459 137 313 c 2
 137 287 l 2
 137 141 197 38 325 38 c 0
 433 38 490 134 510 215 c 1
 510 385 l 1
EndSplineSet
EndChar

StartChar: Dcroat
Encoding: 272 272 211
Width: 770
GlyphClass: 2
Flags: W
AnchorPoint: "LatinBelow.mark" 320 0 basechar 0
AnchorPoint: "LatinAbove.mark" 320 150 basechar 0
LayerCount: 2
Fore
SplineSet
15 369 m 1
 15 411 l 1
 105 411 l 1
 105 780 l 1
 105 780 213 789 287 789 c 0
 592 789 695 601 695 408 c 2
 695 372 l 2
 695 179 592 -9 287 -9 c 0
 213 -9 105 0 105 0 c 1
 105 369 l 1
 15 369 l 1
175 48 m 1
 207 46 255 44 287 44 c 0
 537 44 624 188 624 372 c 2
 624 408 l 2
 624 592 537 736 287 736 c 0
 255 736 207 734 175 732 c 1
 175 411 l 1
 395 411 l 1
 395 369 l 1
 175 369 l 1
 175 48 l 1
EndSplineSet
EndChar

StartChar: dcroat
Encoding: 273 273 212
Width: 680
GlyphClass: 2
Flags: W
AnchorPoint: "LatinBelow.mark" 360 0 basechar 0
AnchorPoint: "LatinAbove.mark" 525 180 basechar 0
LayerCount: 2
Fore
SplineSet
325 699 m 1
 325 741 l 1
 510 741 l 1
 510 810 l 1
 575 810 l 1
 575 741 l 1
 645 741 l 1
 645 699 l 1
 575 699 l 1
 575 132 l 2
 575 67 596 39 650 33 c 1
 633 -12 l 1
 581 -6 519 22 519 121 c 1
 515 120 l 1
 479 51 417 -12 318 -12 c 0
 133 -12 70 142 70 287 c 2
 70 313 l 2
 70 458 133 612 318 612 c 0
 414 612 474 552 510 486 c 1
 510 699 l 1
 325 699 l 1
510 385 m 1
 490 466 433 562 325 562 c 0
 197 562 137 459 137 313 c 2
 137 287 l 2
 137 141 197 38 325 38 c 0
 433 38 490 134 510 215 c 1
 510 385 l 1
EndSplineSet
EndChar

StartChar: Emacron
Encoding: 274 274 213
Width: 675
GlyphClass: 2
Flags: W
AnchorPoint: "LatinBelow.mark" 350 0 basechar 0
AnchorPoint: "LatinAbove.mark" 350 330 basechar 0
LayerCount: 2
Fore
SplineSet
170 907 m 1
 170 953 l 1
 530 953 l 1
 530 907 l 1
 170 907 l 1
105 0 m 1
 105 780 l 1
 590 780 l 1
 590 725 l 1
 176 725 l 1
 176 411 l 1
 558 411 l 1
 558 359 l 1
 176 359 l 1
 176 55 l 1
 605 55 l 1
 605 0 l 1
 105 0 l 1
EndSplineSet
EndChar

StartChar: emacron
Encoding: 275 275 214
Width: 640
GlyphClass: 2
Flags: W
AnchorPoint: "LatinBelow.mark" 330 0 basechar 0
AnchorPoint: "LatinAbove.mark" 330 180 basechar 0
LayerCount: 2
Fore
SplineSet
150 757 m 1
 150 803 l 1
 510 803 l 1
 510 757 l 1
 150 757 l 1
70 286 m 2
 70 314 l 2
 70 460 132 617 327 617 c 0
 486 617 570 501 570 364 c 0
 570 341 568 316 563 293 c 1
 135 293 l 1
 135 286 l 2
 135 140 193 32 327 32 c 0
 427 32 477 99 486 148 c 1
 551 142 l 1
 540 78 472 -17 327 -17 c 0
 130 -17 70 140 70 286 c 2
136 337 m 1
 506 337 l 1
 507 346 507 355 507 364 c 0
 507 492 436 569 327 569 c 0
 201 569 142 470 136 337 c 1
EndSplineSet
EndChar

StartChar: Ebreve
Encoding: 276 276 215
Width: 675
GlyphClass: 2
Flags: W
AnchorPoint: "LatinBelow.mark" 350 0 basechar 0
AnchorPoint: "LatinAbove.mark" 350 330 basechar 0
LayerCount: 2
Fore
SplineSet
170 989 m 1
 214 1005 l 1
 227 953 259 895 350 895 c 0
 441 895 473 953 486 1005 c 1
 530 989 l 1
 512 920 463 850 350 850 c 0
 237 850 188 920 170 989 c 1
105 0 m 1
 105 780 l 1
 590 780 l 1
 590 725 l 1
 176 725 l 1
 176 411 l 1
 558 411 l 1
 558 359 l 1
 176 359 l 1
 176 55 l 1
 605 55 l 1
 605 0 l 1
 105 0 l 1
EndSplineSet
EndChar

StartChar: ebreve
Encoding: 277 277 216
Width: 640
GlyphClass: 2
Flags: W
AnchorPoint: "LatinBelow.mark" 330 0 basechar 0
AnchorPoint: "LatinAbove.mark" 330 180 basechar 0
LayerCount: 2
Fore
SplineSet
150 839 m 1
 194 855 l 1
 207 803 239 745 330 745 c 0
 421 745 453 803 466 855 c 1
 510 839 l 1
 492 770 443 700 330 700 c 0
 217 700 168 770 150 839 c 1
70 286 m 2
 70 314 l 2
 70 460 132 617 327 617 c 0
 486 617 570 501 570 364 c 0
 570 341 568 316 563 293 c 1
 135 293 l 1
 135 286 l 2
 135 140 193 32 327 32 c 0
 427 32 477 99 486 148 c 1
 551 142 l 1
 540 78 472 -17 327 -17 c 0
 130 -17 70 140 70 286 c 2
136 337 m 1
 506 337 l 1
 507 346 507 355 507 364 c 0
 507 492 436 569 327 569 c 0
 201 569 142 470 136 337 c 1
EndSplineSet
EndChar

StartChar: Edotaccent
Encoding: 278 278 217
Width: 675
GlyphClass: 2
Flags: W
AnchorPoint: "LatinBelow.mark" 350 0 basechar 0
AnchorPoint: "LatinAbove.mark" 350 330 basechar 0
LayerCount: 2
Fore
SplineSet
350 991 m 0
 387 991 415 967 415 930 c 0
 415 893 387 869 350 869 c 0
 313 869 285 893 285 930 c 0
 285 967 313 991 350 991 c 0
105 0 m 1
 105 780 l 1
 590 780 l 1
 590 725 l 1
 176 725 l 1
 176 411 l 1
 558 411 l 1
 558 359 l 1
 176 359 l 1
 176 55 l 1
 605 55 l 1
 605 0 l 1
 105 0 l 1
EndSplineSet
EndChar

StartChar: edotaccent
Encoding: 279 279 218
Width: 640
GlyphClass: 2
Flags: W
AnchorPoint: "LatinBelow.mark" 330 0 basechar 0
AnchorPoint: "LatinAbove.mark" 330 180 basechar 0
LayerCount: 2
Fore
SplineSet
330 841 m 0
 367 841 395 817 395 780 c 0
 395 743 367 719 330 719 c 0
 293 719 265 743 265 780 c 0
 265 817 293 841 330 841 c 0
70 286 m 2
 70 314 l 2
 70 460 132 617 327 617 c 0
 486 617 570 501 570 364 c 0
 570 341 568 316 563 293 c 1
 135 293 l 1
 135 286 l 2
 135 140 193 32 327 32 c 0
 427 32 477 99 486 148 c 1
 551 142 l 1
 540 78 472 -17 327 -17 c 0
 130 -17 70 140 70 286 c 2
136 337 m 1
 506 337 l 1
 507 346 507 355 507 364 c 0
 507 492 436 569 327 569 c 0
 201 569 142 470 136 337 c 1
EndSplineSet
EndChar

StartChar: Eogonek
Encoding: 280 280 219
Width: 675
GlyphClass: 2
Flags: W
AnchorPoint: "LatinAbove.mark" 350 150 basechar 0
LayerCount: 2
Fore
SplineSet
105 0 m 1
 105 780 l 1
 590 780 l 1
 590 725 l 1
 176 725 l 1
 176 411 l 1
 558 411 l 1
 558 359 l 1
 176 359 l 1
 176 55 l 1
 605 55 l 1
 605 0 l 1
 570 0 l 1
 541 -35 518 -76 518 -138 c 0
 518 -188 545 -212 583 -212 c 0
 612 -212 634 -204 648 -196 c 1
 661 -231 l 1
 637 -244 611 -250 576 -250 c 0
 507 -250 471 -206 471 -143 c 0
 471 -80 496 -36 526 0 c 1
 105 0 l 1
EndSplineSet
EndChar

StartChar: eogonek
Encoding: 281 281 220
Width: 640
GlyphClass: 2
Flags: W
AnchorPoint: "LatinAbove.mark" 330 0 basechar 0
LayerCount: 2
Fore
SplineSet
136 337 m 1
 506 337 l 1
 507 346 507 355 507 364 c 0
 507 492 436 569 327 569 c 0
 201 569 142 470 136 337 c 1
70 286 m 2
 70 314 l 2
 70 460 132 617 327 617 c 0
 486 617 570 501 570 364 c 0
 570 341 568 316 563 293 c 1
 135 293 l 1
 135 286 l 2
 135 140 193 32 327 32 c 0
 427 32 477 99 486 148 c 1
 551 142 l 1
 543 98 509 39 442 7 c 1
 410 -29 383 -72 383 -138 c 0
 383 -188 410 -212 448 -212 c 0
 477 -212 499 -204 513 -196 c 1
 526 -231 l 1
 502 -244 476 -250 441 -250 c 0
 372 -250 336 -206 336 -143 c 0
 336 -87 356 -45 382 -12 c 1
 365 -15 347 -17 327 -17 c 0
 130 -17 70 140 70 286 c 2
EndSplineSet
EndChar

StartChar: Ecaron
Encoding: 282 282 221
Width: 675
GlyphClass: 2
Flags: W
AnchorPoint: "LatinBelow.mark" 350 0 basechar 0
AnchorPoint: "LatinAbove.mark" 350 330 basechar 0
LayerCount: 2
Fore
SplineSet
530 996 m 1
 360 845 l 1
 340 845 l 1
 170 996 l 1
 193 1020 l 1
 350 905 l 1
 507 1020 l 1
 530 996 l 1
105 0 m 1
 105 780 l 1
 590 780 l 1
 590 725 l 1
 176 725 l 1
 176 411 l 1
 558 411 l 1
 558 359 l 1
 176 359 l 1
 176 55 l 1
 605 55 l 1
 605 0 l 1
 105 0 l 1
EndSplineSet
EndChar

StartChar: ecaron
Encoding: 283 283 222
Width: 640
GlyphClass: 2
Flags: W
AnchorPoint: "LatinBelow.mark" 330 0 basechar 0
AnchorPoint: "LatinAbove.mark" 330 180 basechar 0
LayerCount: 2
Fore
SplineSet
510 846 m 1
 340 695 l 1
 320 695 l 1
 150 846 l 1
 173 870 l 1
 330 755 l 1
 487 870 l 1
 510 846 l 1
70 286 m 2
 70 314 l 2
 70 460 132 617 327 617 c 0
 486 617 570 501 570 364 c 0
 570 341 568 316 563 293 c 1
 135 293 l 1
 135 286 l 2
 135 140 193 32 327 32 c 0
 427 32 477 99 486 148 c 1
 551 142 l 1
 540 78 472 -17 327 -17 c 0
 130 -17 70 140 70 286 c 2
136 337 m 1
 506 337 l 1
 507 346 507 355 507 364 c 0
 507 492 436 569 327 569 c 0
 201 569 142 470 136 337 c 1
EndSplineSet
EndChar

StartChar: Gcircumflex
Encoding: 284 284 223
Width: 770
GlyphClass: 2
Flags: W
AnchorPoint: "LatinBelow.mark" 410 0 basechar 0
LayerCount: 2
Fore
SplineSet
230 859 m 1
 400 1010 l 1
 420 1010 l 1
 590 859 l 1
 567 835 l 1
 410 950 l 1
 253 835 l 1
 230 859 l 1
424 320 m 1
 424 371 l 1
 695 371 l 1
 695 139 l 1
 669 76 584 -17 413 -17 c 0
 158 -17 75 181 75 373 c 2
 75 407 l 2
 75 599 158 797 413 797 c 0
 600 797 686 674 700 595 c 1
 628 588 l 1
 616 653 548 743 413 743 c 0
 227 743 148 599 148 407 c 2
 148 373 l 2
 148 181 227 37 413 37 c 0
 541 37 602 93 630 143 c 1
 630 320 l 1
 424 320 l 1
EndSplineSet
EndChar

StartChar: gcircumflex
Encoding: 285 285 224
Width: 670
GlyphClass: 2
Flags: W
AnchorPoint: "LatinBelow.mark" 360 -180 basechar 0
LayerCount: 2
Fore
SplineSet
180 709 m 1
 350 860 l 1
 370 860 l 1
 540 709 l 1
 517 685 l 1
 360 800 l 1
 203 685 l 1
 180 709 l 1
70 315 m 0
 70 455 133 612 318 612 c 0
 416 612 476 548 512 479 c 1
 518 600 l 1
 575 600 l 1
 575 -36 l 2
 575 -149 486 -227 349 -227 c 0
 213 -227 139 -159 125 -112 c 1
 187 -95 l 1
 197 -127 248 -179 349 -179 c 0
 446 -179 512 -129 512 -36 c 2
 512 151 l 1
 477 82 416 18 318 18 c 0
 133 18 70 175 70 315 c 0
510 381 m 1
 490 463 433 562 325 562 c 0
 197 562 137 456 137 315 c 0
 137 174 197 68 325 68 c 0
 433 68 490 167 510 249 c 1
 510 381 l 1
EndSplineSet
MultipleSubs2: "Latin.g.decomp subtable" g.alt uni0302
EndChar

StartChar: Gbreve
Encoding: 286 286 225
Width: 770
GlyphClass: 2
Flags: W
AnchorPoint: "LatinBelow.mark" 410 0 basechar 0
LayerCount: 2
Fore
SplineSet
230 989 m 1
 274 1005 l 1
 287 953 319 895 410 895 c 0
 501 895 533 953 546 1005 c 1
 590 989 l 1
 572 920 523 850 410 850 c 0
 297 850 248 920 230 989 c 1
424 320 m 1
 424 371 l 1
 695 371 l 1
 695 139 l 1
 669 76 584 -17 413 -17 c 0
 158 -17 75 181 75 373 c 2
 75 407 l 2
 75 599 158 797 413 797 c 0
 600 797 686 674 700 595 c 1
 628 588 l 1
 616 653 548 743 413 743 c 0
 227 743 148 599 148 407 c 2
 148 373 l 2
 148 181 227 37 413 37 c 0
 541 37 602 93 630 143 c 1
 630 320 l 1
 424 320 l 1
EndSplineSet
EndChar

StartChar: gbreve
Encoding: 287 287 226
Width: 670
GlyphClass: 2
Flags: W
AnchorPoint: "LatinBelow.mark" 360 -180 basechar 0
LayerCount: 2
Fore
SplineSet
180 839 m 1
 224 855 l 1
 237 803 269 745 360 745 c 0
 451 745 483 803 496 855 c 1
 540 839 l 1
 522 770 473 700 360 700 c 0
 247 700 198 770 180 839 c 1
70 315 m 0
 70 455 133 612 318 612 c 0
 416 612 476 548 512 479 c 1
 518 600 l 1
 575 600 l 1
 575 -36 l 2
 575 -149 486 -227 349 -227 c 0
 213 -227 139 -159 125 -112 c 1
 187 -95 l 1
 197 -127 248 -179 349 -179 c 0
 446 -179 512 -129 512 -36 c 2
 512 151 l 1
 477 82 416 18 318 18 c 0
 133 18 70 175 70 315 c 0
510 381 m 1
 490 463 433 562 325 562 c 0
 197 562 137 456 137 315 c 0
 137 174 197 68 325 68 c 0
 433 68 490 167 510 249 c 1
 510 381 l 1
EndSplineSet
MultipleSubs2: "Latin.g.decomp subtable" g.alt uni0306
EndChar

StartChar: Gdotaccent
Encoding: 288 288 227
Width: 770
GlyphClass: 2
Flags: W
AnchorPoint: "LatinBelow.mark" 410 0 basechar 0
LayerCount: 2
Fore
SplineSet
410 991 m 0
 447 991 475 967 475 930 c 0
 475 893 447 869 410 869 c 0
 373 869 345 893 345 930 c 0
 345 967 373 991 410 991 c 0
424 320 m 1
 424 371 l 1
 695 371 l 1
 695 139 l 1
 669 76 584 -17 413 -17 c 0
 158 -17 75 181 75 373 c 2
 75 407 l 2
 75 599 158 797 413 797 c 0
 600 797 686 674 700 595 c 1
 628 588 l 1
 616 653 548 743 413 743 c 0
 227 743 148 599 148 407 c 2
 148 373 l 2
 148 181 227 37 413 37 c 0
 541 37 602 93 630 143 c 1
 630 320 l 1
 424 320 l 1
EndSplineSet
EndChar

StartChar: gdotaccent
Encoding: 289 289 228
Width: 670
GlyphClass: 2
Flags: W
AnchorPoint: "LatinBelow.mark" 360 -180 basechar 0
LayerCount: 2
Fore
SplineSet
360 841 m 0
 397 841 425 817 425 780 c 0
 425 743 397 719 360 719 c 0
 323 719 295 743 295 780 c 0
 295 817 323 841 360 841 c 0
70 315 m 0
 70 455 133 612 318 612 c 0
 416 612 476 548 512 479 c 1
 518 600 l 1
 575 600 l 1
 575 -36 l 2
 575 -149 486 -227 349 -227 c 0
 213 -227 139 -159 125 -112 c 1
 187 -95 l 1
 197 -127 248 -179 349 -179 c 0
 446 -179 512 -129 512 -36 c 2
 512 151 l 1
 477 82 416 18 318 18 c 0
 133 18 70 175 70 315 c 0
510 381 m 1
 490 463 433 562 325 562 c 0
 197 562 137 456 137 315 c 0
 137 174 197 68 325 68 c 0
 433 68 490 167 510 249 c 1
 510 381 l 1
EndSplineSet
MultipleSubs2: "Latin.g.decomp subtable" g.alt uni0307
EndChar

StartChar: uni0122
Encoding: 290 290 229
Width: 770
GlyphClass: 2
Flags: W
AnchorPoint: "LatinAbove.mark" 410 150 basechar 0
LayerCount: 2
Fore
SplineSet
432 -180 m 1
 422 -188 408 -192 393 -192 c 0
 360 -192 335 -171 335 -137 c 0
 335 -100 358 -75 397 -75 c 0
 458 -75 475 -126 475 -170 c 0
 475 -260 411 -318 362 -340 c 1
 344 -315 l 1
 382 -297 430 -248 432 -180 c 1
424 320 m 1
 424 371 l 1
 695 371 l 1
 695 139 l 1
 669 76 584 -17 413 -17 c 0
 158 -17 75 181 75 373 c 2
 75 407 l 2
 75 599 158 797 413 797 c 0
 600 797 686 674 700 595 c 1
 628 588 l 1
 616 653 548 743 413 743 c 0
 227 743 148 599 148 407 c 2
 148 373 l 2
 148 181 227 37 413 37 c 0
 541 37 602 93 630 143 c 1
 630 320 l 1
 424 320 l 1
EndSplineSet
EndChar

StartChar: uni0123
Encoding: 291 291 230
Width: 670
GlyphClass: 2
Flags: W
AnchorPoint: "LatinBelow.mark" 360 -180 basechar 0
LayerCount: 2
Fore
SplineSet
338 810 m 1
 348 818 362 822 377 822 c 0
 410 822 435 801 435 767 c 0
 435 730 412 705 373 705 c 0
 312 705 295 756 295 800 c 0
 295 890 359 948 408 970 c 1
 426 945 l 1
 388 927 340 878 338 810 c 1
70 315 m 0
 70 455 133 612 318 612 c 0
 416 612 476 548 512 479 c 1
 518 600 l 1
 575 600 l 1
 575 -36 l 2
 575 -149 486 -227 349 -227 c 0
 213 -227 139 -159 125 -112 c 1
 187 -95 l 1
 197 -127 248 -179 349 -179 c 0
 446 -179 512 -129 512 -36 c 2
 512 151 l 1
 477 82 416 18 318 18 c 0
 133 18 70 175 70 315 c 0
510 381 m 1
 490 463 433 562 325 562 c 0
 197 562 137 456 137 315 c 0
 137 174 197 68 325 68 c 0
 433 68 490 167 510 249 c 1
 510 381 l 1
EndSplineSet
MultipleSubs2: "Latin.g.decomp subtable" g.alt uni0312
EndChar

StartChar: Hcircumflex
Encoding: 292 292 231
Width: 790
GlyphClass: 2
Flags: W
AnchorPoint: "LatinBelow.mark" 395 0 basechar 0
LayerCount: 2
Fore
SplineSet
215 859 m 1
 385 1010 l 1
 405 1010 l 1
 575 859 l 1
 552 835 l 1
 395 950 l 1
 238 835 l 1
 215 859 l 1
105 0 m 1
 105 780 l 1
 176 780 l 1
 176 418 l 1
 614 418 l 1
 614 780 l 1
 685 780 l 1
 685 0 l 1
 614 0 l 1
 614 362 l 1
 176 362 l 1
 176 0 l 1
 105 0 l 1
EndSplineSet
EndChar

StartChar: hcircumflex
Encoding: 293 293 232
Width: 665
GlyphClass: 2
Flags: W
AnchorPoint: "LatinBelow.mark" 360 0 basechar 0
LayerCount: 2
Fore
SplineSet
-45 889 m 1
 125 1040 l 1
 145 1040 l 1
 315 889 l 1
 292 865 l 1
 135 980 l 1
 -22 865 l 1
 -45 889 l 1
100 0 m 1
 100 810 l 1
 165 810 l 1
 165 414 l 1
 205 512 283 612 408 612 c 0
 524 612 580 530 580 426 c 2
 580 0 l 1
 513 0 l 1
 513 424 l 2
 513 516 465 558 393 558 c 0
 271 558 185 418 167 305 c 1
 167 0 l 1
 100 0 l 1
EndSplineSet
EndChar

StartChar: Hbar
Encoding: 294 294 233
Width: 790
GlyphClass: 2
Flags: W
AnchorPoint: "LatinBelow.mark" 395 0 basechar 0
AnchorPoint: "LatinAbove.mark" 395 150 basechar 0
LayerCount: 2
Fore
SplineSet
35 639 m 1
 35 681 l 1
 105 681 l 1
 105 780 l 1
 176 780 l 1
 176 681 l 1
 614 681 l 1
 614 780 l 1
 685 780 l 1
 685 681 l 1
 755 681 l 1
 755 639 l 1
 685 639 l 1
 685 0 l 1
 614 0 l 1
 614 362 l 1
 176 362 l 1
 176 0 l 1
 105 0 l 1
 105 639 l 1
 35 639 l 1
614 639 m 1
 176 639 l 1
 176 418 l 1
 614 418 l 1
 614 639 l 1
EndSplineSet
EndChar

StartChar: hbar
Encoding: 295 295 234
Width: 665
GlyphClass: 2
Flags: W
AnchorPoint: "LatinBelow.mark" 360 0 basechar 0
LayerCount: 2
Fore
SplineSet
30 699 m 1
 30 741 l 1
 100 741 l 1
 100 810 l 1
 165 810 l 1
 165 741 l 1
 350 741 l 1
 350 699 l 1
 165 699 l 1
 165 414 l 1
 205 512 283 612 408 612 c 0
 524 612 580 530 580 426 c 2
 580 0 l 1
 513 0 l 1
 513 424 l 2
 513 516 465 558 393 558 c 0
 271 558 185 418 167 305 c 1
 167 0 l 1
 100 0 l 1
 100 699 l 1
 30 699 l 1
EndSplineSet
EndChar

StartChar: Itilde
Encoding: 296 296 235
Width: 320
GlyphClass: 2
Flags: W
AnchorPoint: "LatinBelow.mark" 160 0 basechar 0
AnchorPoint: "LatinAbove.mark" 160 330 basechar 0
LayerCount: 2
Fore
SplineSet
-20 887 m 1
 -3 933 23 1005 83 1005 c 0
 129 1005 156 974 178 951 c 0
 200 929 216 905 238 905 c 0
 272 905 293 970 303 997 c 1
 340 983 l 1
 324 936 296 865 237 865 c 0
 191 865 164 896 142 919 c 0
 120 941 104 965 82 965 c 0
 47 965 28 901 17 873 c 1
 -20 887 l 1
125 0 m 1
 125 780 l 1
 195 780 l 1
 195 0 l 1
 125 0 l 1
EndSplineSet
EndChar

StartChar: itilde
Encoding: 297 297 236
Width: 300
GlyphClass: 2
Flags: W
AnchorPoint: "LatinBelow.mark" 150 0 basechar 0
AnchorPoint: "LatinAbove.mark" 150 180 basechar 0
LayerCount: 2
Fore
SplineSet
-30 737 m 1
 -13 783 13 855 73 855 c 0
 119 855 146 824 168 801 c 0
 190 779 206 755 228 755 c 0
 262 755 283 820 293 847 c 1
 330 833 l 1
 314 786 286 715 227 715 c 0
 181 715 154 746 132 769 c 0
 110 791 94 815 72 815 c 0
 37 815 18 751 7 723 c 1
 -30 737 l 1
116 0 m 1
 116 600 l 1
 184 600 l 1
 184 0 l 1
 116 0 l 1
EndSplineSet
EndChar

StartChar: Imacron
Encoding: 298 298 237
Width: 320
GlyphClass: 2
Flags: W
AnchorPoint: "LatinBelow.mark" 160 0 basechar 0
AnchorPoint: "LatinAbove.mark" 160 330 basechar 0
LayerCount: 2
Fore
SplineSet
-20 907 m 1
 -20 953 l 1
 340 953 l 1
 340 907 l 1
 -20 907 l 1
125 0 m 1
 125 780 l 1
 195 780 l 1
 195 0 l 1
 125 0 l 1
EndSplineSet
EndChar

StartChar: imacron
Encoding: 299 299 238
Width: 300
GlyphClass: 2
Flags: W
AnchorPoint: "LatinBelow.mark" 150 0 basechar 0
AnchorPoint: "LatinAbove.mark" 150 180 basechar 0
LayerCount: 2
Fore
SplineSet
-30 757 m 1
 -30 803 l 1
 330 803 l 1
 330 757 l 1
 -30 757 l 1
116 0 m 1
 116 600 l 1
 184 600 l 1
 184 0 l 1
 116 0 l 1
EndSplineSet
EndChar

StartChar: Ibreve
Encoding: 300 300 239
Width: 320
GlyphClass: 2
Flags: W
LayerCount: 2
Fore
SplineSet
-20 989 m 1
 24 1005 l 1
 37 953 69 895 160 895 c 0
 251 895 283 953 296 1005 c 1
 340 989 l 1
 322 920 273 850 160 850 c 0
 47 850 -2 920 -20 989 c 1
125 0 m 1
 125 780 l 1
 195 780 l 1
 195 0 l 1
 125 0 l 1
EndSplineSet
EndChar

StartChar: ibreve
Encoding: 301 301 240
Width: 300
GlyphClass: 2
Flags: W
LayerCount: 2
Fore
SplineSet
-30 839 m 1
 14 855 l 1
 27 803 59 745 150 745 c 0
 241 745 273 803 286 855 c 1
 330 839 l 1
 312 770 263 700 150 700 c 0
 37 700 -12 770 -30 839 c 1
116 0 m 1
 116 600 l 1
 184 600 l 1
 184 0 l 1
 116 0 l 1
EndSplineSet
EndChar

StartChar: Iogonek
Encoding: 302 302 241
Width: 320
GlyphClass: 2
Flags: W
AnchorPoint: "LatinAbove.mark" 160 150 basechar 0
LayerCount: 2
Fore
SplineSet
125 0 m 1
 125 780 l 1
 195 780 l 1
 195 0 l 1
 190 0 l 1
 161 -35 138 -76 138 -138 c 0
 138 -188 165 -212 203 -212 c 0
 232 -212 254 -204 268 -196 c 1
 281 -231 l 1
 257 -244 231 -250 196 -250 c 0
 127 -250 91 -206 91 -143 c 0
 91 -80 116 -36 146 0 c 1
 125 0 l 1
EndSplineSet
EndChar

StartChar: iogonek
Encoding: 303 303 242
Width: 300
GlyphClass: 2
Flags: W
AnchorPoint: "LatinAbove.mark" 150 180 basechar 0
LayerCount: 2
Fore
SplineSet
150 841 m 0
 187 841 215 817 215 780 c 0
 215 743 187 719 150 719 c 0
 113 719 85 743 85 780 c 0
 85 817 113 841 150 841 c 0
116 0 m 1
 116 600 l 1
 184 600 l 1
 184 0 l 1
 180 0 l 1
 151 -35 128 -76 128 -138 c 0
 128 -188 155 -212 193 -212 c 0
 222 -212 244 -204 258 -196 c 1
 271 -231 l 1
 247 -244 221 -250 186 -250 c 0
 117 -250 81 -206 81 -143 c 0
 81 -80 106 -36 136 0 c 1
 116 0 l 1
EndSplineSet
EndChar

StartChar: Idotaccent
Encoding: 304 304 243
Width: 320
GlyphClass: 2
Flags: W
AnchorPoint: "LatinBelow.mark" 160 0 basechar 0
AnchorPoint: "LatinAbove.mark" 160 330 basechar 0
LayerCount: 2
Fore
SplineSet
160 991 m 0
 197 991 225 967 225 930 c 0
 225 893 197 869 160 869 c 0
 123 869 95 893 95 930 c 0
 95 967 123 991 160 991 c 0
125 0 m 1
 125 780 l 1
 195 780 l 1
 195 0 l 1
 125 0 l 1
EndSplineSet
EndChar

StartChar: dotlessi
Encoding: 305 305 244
Width: 300
GlyphClass: 2
Flags: W
AnchorPoint: "LatinOgonek.mark" 155 0 basechar 0
AnchorPoint: "LatinBelow.mark" 150 0 basechar 0
AnchorPoint: "LatinAbove.mark" 150 0 basechar 0
LayerCount: 2
Fore
SplineSet
116 0 m 1
 116 600 l 1
 184 600 l 1
 184 0 l 1
 116 0 l 1
EndSplineSet
EndChar

StartChar: Jcircumflex
Encoding: 308 308 245
Width: 520
GlyphClass: 2
Flags: W
AnchorPoint: "LatinBelow.mark" 230 0 basechar 0
LayerCount: 2
Fore
SplineSet
180 859 m 1
 350 1010 l 1
 370 1010 l 1
 540 859 l 1
 517 835 l 1
 360 950 l 1
 203 835 l 1
 180 859 l 1
35 132 m 1
 106 138 l 1
 116 76 157 36 225 36 c 0
 292 36 344 74 344 158 c 2
 344 780 l 1
 415 780 l 1
 415 158 l 2
 415 58 344 -17 225 -17 c 0
 107 -17 46 57 35 132 c 1
EndSplineSet
EndChar

StartChar: jcircumflex
Encoding: 309 309 246
Width: 310
GlyphClass: 2
Flags: W
AnchorPoint: "LatinBelow.mark" 150 -180 basechar 0
AnchorPoint: "LatinAbove.mark" 150 180 basechar 0
LayerCount: 2
Fore
SplineSet
-20 709 m 1
 150 860 l 1
 170 860 l 1
 340 709 l 1
 317 685 l 1
 160 800 l 1
 3 685 l 1
 -20 709 l 1
5 -178 m 1
 75 -151 127 -109 127 -24 c 2
 127 600 l 1
 193 600 l 1
 193 -27 l 2
 193 -132 116 -191 26 -222 c 1
 5 -178 l 1
EndSplineSet
EndChar

StartChar: uni0136
Encoding: 310 310 247
Width: 715
GlyphClass: 2
Flags: W
LayerCount: 2
Fore
SplineSet
382 -180 m 1
 372 -188 358 -192 343 -192 c 0
 310 -192 285 -171 285 -137 c 0
 285 -100 308 -75 347 -75 c 0
 408 -75 425 -126 425 -170 c 0
 425 -260 361 -318 312 -340 c 1
 294 -315 l 1
 332 -297 380 -248 382 -180 c 1
105 0 m 1
 105 780 l 1
 173 780 l 1
 173 350 l 1
 564 780 l 1
 642 774 l 1
 642 770 l 1
 343 454 l 1
 695 4 l 1
 695 0 l 1
 611 0 l 1
 298 407 l 1
 173 274 l 1
 173 0 l 1
 105 0 l 1
EndSplineSet
EndChar

StartChar: uni0137
Encoding: 311 311 248
Width: 605
GlyphClass: 2
Flags: W
AnchorPoint: "LatinAbove.mark" 135 180 basechar 0
LayerCount: 2
Fore
SplineSet
382 -180 m 1
 372 -188 358 -192 343 -192 c 0
 310 -192 285 -171 285 -137 c 0
 285 -100 308 -75 347 -75 c 0
 408 -75 425 -126 425 -170 c 0
 425 -260 361 -318 312 -340 c 1
 294 -315 l 1
 332 -297 380 -248 382 -180 c 1
110 0 m 1
 110 810 l 1
 174 810 l 1
 174 280 l 1
 473 600 l 1
 545 595 l 1
 545 592 l 1
 308 347 l 1
 585 3 l 1
 585 0 l 1
 508 0 l 1
 266 304 l 1
 174 208 l 1
 174 0 l 1
 110 0 l 1
EndSplineSet
EndChar

StartChar: kgreenlandic
Encoding: 312 312 249
Width: 610
GlyphClass: 2
Flags: W
AnchorPoint: "LatinBelow.mark" 360 0 basechar 0
AnchorPoint: "LatinAbove.mark" 330 0 basechar 0
LayerCount: 2
Fore
SplineSet
110 0 m 1
 110 600 l 1
 174 600 l 1
 174 280 l 1
 473 600 l 1
 545 595 l 1
 545 592 l 1
 308 347 l 1
 585 3 l 1
 585 0 l 1
 508 0 l 1
 266 304 l 1
 174 208 l 1
 174 0 l 1
 110 0 l 1
EndSplineSet
EndChar

StartChar: Lacute
Encoding: 313 313 250
Width: 570
GlyphClass: 2
Flags: W
AnchorPoint: "LatinBelow.mark" 320 0 basechar 0
LayerCount: 2
Fore
SplineSet
305 1002 m 1
 81 850 l 1
 60 879 l 1
 273 1050 l 1
 305 1002 l 1
105 0 m 1
 105 780 l 1
 176 780 l 1
 176 55 l 1
 530 55 l 1
 530 0 l 1
 105 0 l 1
EndSplineSet
EndChar

StartChar: lacute
Encoding: 314 314 251
Width: 315
GlyphClass: 2
Flags: W
AnchorPoint: "LatinBelow.mark" 190 0 basechar 0
LayerCount: 2
Fore
SplineSet
285 1032 m 1
 61 880 l 1
 40 909 l 1
 253 1080 l 1
 285 1032 l 1
110 117 m 2
 110 810 l 1
 177 810 l 1
 177 122 l 2
 177 58 225 40 295 34 c 1
 281 -12 l 1
 205 -6 110 16 110 117 c 2
EndSplineSet
EndChar

StartChar: uni013B
Encoding: 315 315 252
Width: 570
GlyphClass: 2
Flags: W
AnchorPoint: "LatinAbove.mark" 160 150 basechar 0
LayerCount: 2
Fore
SplineSet
342 -180 m 1
 332 -188 318 -192 303 -192 c 0
 270 -192 245 -171 245 -137 c 0
 245 -100 268 -75 307 -75 c 0
 368 -75 385 -126 385 -170 c 0
 385 -260 321 -318 272 -340 c 1
 254 -315 l 1
 292 -297 340 -248 342 -180 c 1
105 0 m 1
 105 780 l 1
 176 780 l 1
 176 55 l 1
 530 55 l 1
 530 0 l 1
 105 0 l 1
EndSplineSet
EndChar

StartChar: uni013C
Encoding: 316 316 253
Width: 315
GlyphClass: 2
Flags: W
AnchorPoint: "LatinAbove.mark" 140 180 basechar 0
LayerCount: 2
Fore
SplineSet
212 -180 m 1
 202 -188 188 -192 173 -192 c 0
 140 -192 115 -171 115 -137 c 0
 115 -100 138 -75 177 -75 c 0
 238 -75 255 -126 255 -170 c 0
 255 -260 191 -318 142 -340 c 1
 124 -315 l 1
 162 -297 210 -248 212 -180 c 1
110 117 m 2
 110 810 l 1
 177 810 l 1
 177 122 l 2
 177 58 225 40 295 34 c 1
 281 -12 l 1
 205 -6 110 16 110 117 c 2
EndSplineSet
EndChar

StartChar: Lcaron
Encoding: 317 317 254
Width: 570
GlyphClass: 2
Flags: W
LayerCount: 2
Fore
SplineSet
467 720 m 1
 457 712 443 708 428 708 c 0
 395 708 370 729 370 763 c 0
 370 800 393 825 432 825 c 0
 493 825 510 774 510 730 c 0
 510 640 446 582 397 560 c 1
 379 585 l 1
 417 603 465 652 467 720 c 1
105 0 m 1
 105 780 l 1
 176 780 l 1
 176 55 l 1
 530 55 l 1
 530 0 l 1
 105 0 l 1
EndSplineSet
EndChar

StartChar: lcaron
Encoding: 318 318 255
Width: 525
GlyphClass: 2
Flags: W
LayerCount: 2
Fore
SplineSet
452 720 m 1
 442 712 428 708 413 708 c 0
 380 708 355 729 355 763 c 0
 355 800 378 825 417 825 c 0
 478 825 495 774 495 730 c 0
 495 640 431 582 382 560 c 1
 364 585 l 1
 402 603 450 652 452 720 c 1
110 117 m 2
 110 810 l 1
 177 810 l 1
 177 122 l 2
 177 58 225 40 295 34 c 1
 281 -12 l 1
 205 -6 110 16 110 117 c 2
EndSplineSet
EndChar

StartChar: Ldot
Encoding: 319 319 256
Width: 570
GlyphClass: 2
Flags: W
LayerCount: 2
Fore
SplineSet
435 421 m 0
 472 421 500 397 500 360 c 0
 500 323 472 299 435 299 c 0
 398 299 370 323 370 360 c 0
 370 397 398 421 435 421 c 0
105 0 m 1
 105 780 l 1
 176 780 l 1
 176 55 l 1
 530 55 l 1
 530 0 l 1
 105 0 l 1
EndSplineSet
EndChar

StartChar: ldot
Encoding: 320 320 257
Width: 510
GlyphClass: 2
Flags: W
LayerCount: 2
Fore
SplineSet
385 421 m 0
 422 421 450 397 450 360 c 0
 450 323 422 299 385 299 c 0
 348 299 320 323 320 360 c 0
 320 397 348 421 385 421 c 0
110 117 m 2
 110 810 l 1
 177 810 l 1
 177 122 l 2
 177 58 225 40 295 34 c 1
 281 -12 l 1
 205 -6 110 16 110 117 c 2
EndSplineSet
EndChar

StartChar: Lslash
Encoding: 321 321 258
Width: 580
GlyphClass: 2
Flags: W
LayerCount: 2
Fore
SplineSet
186 419 m 1
 340 519 l 1
 345 471 l 1
 186 368 l 1
 186 55 l 1
 540 55 l 1
 540 0 l 1
 115 0 l 1
 115 322 l 1
 20 261 l 1
 15 309 l 1
 115 374 l 1
 115 780 l 1
 186 780 l 1
 186 419 l 1
EndSplineSet
EndChar

StartChar: lslash
Encoding: 322 322 259
Width: 360
GlyphClass: 2
Flags: W
AnchorPoint: "LatinBelow.mark" 190 0 basechar 0
LayerCount: 2
Fore
SplineSet
187 417 m 1
 345 519 l 1
 350 471 l 1
 187 366 l 1
 187 122 l 2
 187 58 235 40 305 34 c 1
 291 -12 l 1
 215 -6 120 16 120 117 c 2
 120 322 l 1
 25 261 l 1
 20 309 l 1
 120 374 l 1
 120 810 l 1
 187 810 l 1
 187 417 l 1
EndSplineSet
EndChar

StartChar: Nacute
Encoding: 323 323 260
Width: 790
GlyphClass: 2
Flags: W
AnchorPoint: "LatinBelow.mark" 395 0 basechar 0
LayerCount: 2
Fore
SplineSet
540 1002 m 1
 316 850 l 1
 295 879 l 1
 508 1050 l 1
 540 1002 l 1
105 0 m 1
 105 773 l 1
 166 780 l 1
 616 113 l 1
 616 780 l 1
 685 780 l 1
 685 0 l 1
 624 0 l 1
 174 667 l 1
 174 0 l 1
 105 0 l 1
EndSplineSet
EndChar

StartChar: nacute
Encoding: 324 324 261
Width: 655
GlyphClass: 2
Flags: W
AnchorPoint: "LatinBelow.mark" 360 0 basechar 0
LayerCount: 2
Fore
SplineSet
475 852 m 1
 251 700 l 1
 230 729 l 1
 443 900 l 1
 475 852 l 1
100 0 m 1
 100 420 l 1
 90 597 l 1
 150 603 l 1
 167 421 l 1
 207 517 283 612 402 612 c 0
 515 612 570 530 570 426 c 2
 570 0 l 1
 503 0 l 1
 503 424 l 2
 503 516 455 558 387 558 c 0
 268 558 184 418 167 305 c 1
 167 0 l 1
 100 0 l 1
EndSplineSet
EndChar

StartChar: uni0145
Encoding: 325 325 262
Width: 790
GlyphClass: 2
Flags: W
AnchorPoint: "LatinAbove.mark" 395 150 basechar 0
LayerCount: 2
Fore
SplineSet
417 -180 m 1
 407 -188 393 -192 378 -192 c 0
 345 -192 320 -171 320 -137 c 0
 320 -100 343 -75 382 -75 c 0
 443 -75 460 -126 460 -170 c 0
 460 -260 396 -318 347 -340 c 1
 329 -315 l 1
 367 -297 415 -248 417 -180 c 1
105 0 m 1
 105 773 l 1
 166 780 l 1
 616 113 l 1
 616 780 l 1
 685 780 l 1
 685 0 l 1
 624 0 l 1
 174 667 l 1
 174 0 l 1
 105 0 l 1
EndSplineSet
EndChar

StartChar: uni0146
Encoding: 326 326 263
Width: 655
GlyphClass: 2
Flags: W
AnchorPoint: "LatinAbove.mark" 330 0 basechar 0
LayerCount: 2
Fore
SplineSet
382 -180 m 1
 372 -188 358 -192 343 -192 c 0
 310 -192 285 -171 285 -137 c 0
 285 -100 308 -75 347 -75 c 0
 408 -75 425 -126 425 -170 c 0
 425 -260 361 -318 312 -340 c 1
 294 -315 l 1
 332 -297 380 -248 382 -180 c 1
100 0 m 1
 100 420 l 1
 90 597 l 1
 150 603 l 1
 167 421 l 1
 207 517 283 612 402 612 c 0
 515 612 570 530 570 426 c 2
 570 0 l 1
 503 0 l 1
 503 424 l 2
 503 516 455 558 387 558 c 0
 268 558 184 418 167 305 c 1
 167 0 l 1
 100 0 l 1
EndSplineSet
EndChar

StartChar: Ncaron
Encoding: 327 327 264
Width: 790
GlyphClass: 2
Flags: W
AnchorPoint: "LatinBelow.mark" 395 0 basechar 0
LayerCount: 2
Fore
SplineSet
575 996 m 1
 405 845 l 1
 385 845 l 1
 215 996 l 1
 238 1020 l 1
 395 905 l 1
 552 1020 l 1
 575 996 l 1
105 0 m 1
 105 773 l 1
 166 780 l 1
 616 113 l 1
 616 780 l 1
 685 780 l 1
 685 0 l 1
 624 0 l 1
 174 667 l 1
 174 0 l 1
 105 0 l 1
EndSplineSet
EndChar

StartChar: ncaron
Encoding: 328 328 265
Width: 655
GlyphClass: 2
Flags: W
AnchorPoint: "LatinBelow.mark" 360 0 basechar 0
LayerCount: 2
Fore
SplineSet
510 846 m 1
 340 695 l 1
 320 695 l 1
 150 846 l 1
 173 870 l 1
 330 755 l 1
 487 870 l 1
 510 846 l 1
100 0 m 1
 100 420 l 1
 90 597 l 1
 150 603 l 1
 167 421 l 1
 207 517 283 612 402 612 c 0
 515 612 570 530 570 426 c 2
 570 0 l 1
 503 0 l 1
 503 424 l 2
 503 516 455 558 387 558 c 0
 268 558 184 418 167 305 c 1
 167 0 l 1
 100 0 l 1
EndSplineSet
EndChar

StartChar: napostrophe
Encoding: 329 329 266
Width: 865
GlyphClass: 2
Flags: W
LayerCount: 2
Fore
SplineSet
310 0 m 1
 310 420 l 1
 300 597 l 1
 360 603 l 1
 377 421 l 1
 417 517 493 612 612 612 c 0
 725 612 780 530 780 426 c 2
 780 0 l 1
 713 0 l 1
 713 424 l 2
 713 516 665 558 597 558 c 0
 478 558 394 418 377 305 c 1
 377 0 l 1
 310 0 l 1
40 797 m 0
 40 834 66 861 105 861 c 0
 161 861 185 814 185 759 c 0
 185 662 123 593 62 550 c 1
 40 580 l 1
 90 616 133 670 137 746 c 1
 127 741 115 738 103 738 c 0
 67 738 40 760 40 797 c 0
EndSplineSet
EndChar

StartChar: Omacron
Encoding: 332 332 267
Width: 820
GlyphClass: 2
Flags: W
AnchorPoint: "LatinBelow.mark" 410 0 basechar 0
AnchorPoint: "LatinAbove.mark" 410 330 basechar 0
LayerCount: 2
Fore
SplineSet
230 907 m 1
 230 953 l 1
 590 953 l 1
 590 907 l 1
 230 907 l 1
75 372 m 2
 75 408 l 2
 75 599 156 797 410 797 c 0
 664 797 745 599 745 408 c 2
 745 372 l 2
 745 181 664 -17 410 -17 c 0
 156 -17 75 181 75 372 c 2
410 37 m 0
 595 37 672 183 672 372 c 2
 672 408 l 2
 672 597 595 743 410 743 c 0
 225 743 148 597 148 408 c 2
 148 372 l 2
 148 183 225 37 410 37 c 0
EndSplineSet
EndChar

StartChar: omacron
Encoding: 333 333 268
Width: 660
GlyphClass: 2
Flags: W
AnchorPoint: "LatinBelow.mark" 330 0 basechar 0
AnchorPoint: "LatinAbove.mark" 330 180 basechar 0
LayerCount: 2
Fore
SplineSet
150 757 m 1
 150 803 l 1
 510 803 l 1
 510 757 l 1
 150 757 l 1
70 286 m 2
 70 314 l 2
 70 460 130 617 330 617 c 0
 530 617 590 460 590 314 c 2
 590 286 l 2
 590 140 530 -17 330 -17 c 0
 130 -17 70 140 70 286 c 2
330 33 m 0
 464 33 523 140 523 286 c 2
 523 314 l 2
 523 460 464 567 330 567 c 0
 196 567 137 460 137 314 c 2
 137 286 l 2
 137 140 196 33 330 33 c 0
EndSplineSet
EndChar

StartChar: Obreve
Encoding: 334 334 269
Width: 820
GlyphClass: 2
Flags: W
AnchorPoint: "LatinBelow.mark" 410 0 basechar 0
AnchorPoint: "LatinAbove.mark" 410 330 basechar 0
LayerCount: 2
Fore
SplineSet
230 989 m 1
 274 1005 l 1
 287 953 319 895 410 895 c 0
 501 895 533 953 546 1005 c 1
 590 989 l 1
 572 920 523 850 410 850 c 0
 297 850 248 920 230 989 c 1
75 372 m 2
 75 408 l 2
 75 599 156 797 410 797 c 0
 664 797 745 599 745 408 c 2
 745 372 l 2
 745 181 664 -17 410 -17 c 0
 156 -17 75 181 75 372 c 2
410 37 m 0
 595 37 672 183 672 372 c 2
 672 408 l 2
 672 597 595 743 410 743 c 0
 225 743 148 597 148 408 c 2
 148 372 l 2
 148 183 225 37 410 37 c 0
EndSplineSet
EndChar

StartChar: obreve
Encoding: 335 335 270
Width: 660
GlyphClass: 2
Flags: W
AnchorPoint: "LatinBelow.mark" 330 0 basechar 0
AnchorPoint: "LatinAbove.mark" 330 180 basechar 0
LayerCount: 2
Fore
SplineSet
150 839 m 1
 194 855 l 1
 207 803 239 745 330 745 c 0
 421 745 453 803 466 855 c 1
 510 839 l 1
 492 770 443 700 330 700 c 0
 217 700 168 770 150 839 c 1
70 286 m 2
 70 314 l 2
 70 460 130 617 330 617 c 0
 530 617 590 460 590 314 c 2
 590 286 l 2
 590 140 530 -17 330 -17 c 0
 130 -17 70 140 70 286 c 2
330 33 m 0
 464 33 523 140 523 286 c 2
 523 314 l 2
 523 460 464 567 330 567 c 0
 196 567 137 460 137 314 c 2
 137 286 l 2
 137 140 196 33 330 33 c 0
EndSplineSet
EndChar

StartChar: Ohungarumlaut
Encoding: 336 336 271
Width: 820
GlyphClass: 2
Flags: W
AnchorPoint: "LatinBelow.mark" 410 0 basechar 0
AnchorPoint: "LatinAbove.mark" 410 330 basechar 0
LayerCount: 2
Fore
SplineSet
260 871 m 1
 382 1060 l 1
 425 1028 l 1
 287 850 l 1
 260 871 l 1
455 871 m 1
 577 1060 l 1
 620 1028 l 1
 482 850 l 1
 455 871 l 1
75 372 m 2
 75 408 l 2
 75 599 156 797 410 797 c 0
 664 797 745 599 745 408 c 2
 745 372 l 2
 745 181 664 -17 410 -17 c 0
 156 -17 75 181 75 372 c 2
410 37 m 0
 595 37 672 183 672 372 c 2
 672 408 l 2
 672 597 595 743 410 743 c 0
 225 743 148 597 148 408 c 2
 148 372 l 2
 148 183 225 37 410 37 c 0
EndSplineSet
EndChar

StartChar: ohungarumlaut
Encoding: 337 337 272
Width: 660
GlyphClass: 2
Flags: W
AnchorPoint: "LatinBelow.mark" 330 0 basechar 0
AnchorPoint: "LatinAbove.mark" 330 180 basechar 0
LayerCount: 2
Fore
SplineSet
180 721 m 1
 302 910 l 1
 345 878 l 1
 207 700 l 1
 180 721 l 1
375 721 m 1
 497 910 l 1
 540 878 l 1
 402 700 l 1
 375 721 l 1
70 286 m 2
 70 314 l 2
 70 460 130 617 330 617 c 0
 530 617 590 460 590 314 c 2
 590 286 l 2
 590 140 530 -17 330 -17 c 0
 130 -17 70 140 70 286 c 2
330 33 m 0
 464 33 523 140 523 286 c 2
 523 314 l 2
 523 460 464 567 330 567 c 0
 196 567 137 460 137 314 c 2
 137 286 l 2
 137 140 196 33 330 33 c 0
EndSplineSet
EndChar

StartChar: OE
Encoding: 338 338 273
Width: 980
GlyphClass: 2
Flags: W
AnchorPoint: "LatinBelow.mark" 510 0 basechar 0
AnchorPoint: "LatinAbove.mark" 510 150 basechar 0
LayerCount: 2
Fore
SplineSet
75 372 m 2
 75 408 l 2
 75 599 156 797 410 797 c 0
 455 797 495 791 530 780 c 1
 895 780 l 1
 895 725 l 1
 541 725 l 1
 541 411 l 1
 863 411 l 1
 863 359 l 1
 541 359 l 1
 541 55 l 1
 910 55 l 1
 910 0 l 1
 530 0 l 1
 495 -11 455 -17 410 -17 c 0
 156 -17 75 181 75 372 c 2
470 736 m 1
 452 741 432 743 410 743 c 0
 225 743 148 597 148 408 c 2
 148 372 l 2
 148 183 225 37 410 37 c 0
 432 37 452 39 470 44 c 1
 470 736 l 1
EndSplineSet
EndChar

StartChar: oe
Encoding: 339 339 274
Width: 960
GlyphClass: 2
Flags: W
AnchorPoint: "LatinBelow.mark" 480 0 basechar 0
AnchorPoint: "LatinAbove.mark" 480 0 basechar 0
LayerCount: 2
Fore
SplineSet
70 286 m 2
 70 314 l 2
 70 457 117 617 290 617 c 0
 389 617 444 561 471 486 c 1
 503 562 563 617 664 617 c 0
 816 617 890 502 890 364 c 0
 890 342 886 316 883 293 c 1
 499 293 l 1
 499 286 l 2
 499 140 551 31 664 31 c 0
 756 31 801 98 809 148 c 1
 874 142 l 1
 864 79 798 -17 664 -17 c 0
 562 -17 503 38 471 114 c 1
 444 39 389 -17 290 -17 c 0
 117 -17 70 143 70 286 c 2
290 567 m 0
 185 567 137 463 137 314 c 2
 137 286 l 2
 137 137 185 33 290 33 c 0
 392 33 437 137 437 286 c 2
 437 314 l 2
 437 463 392 567 290 567 c 0
499 337 m 1
 825 337 l 1
 826 346 827 354 827 363 c 0
 827 489 768 569 664 569 c 0
 560 569 505 471 499 337 c 1
EndSplineSet
EndChar

StartChar: Racute
Encoding: 340 340 275
Width: 730
GlyphClass: 2
Flags: W
AnchorPoint: "LatinBelow.mark" 360 0 basechar 0
LayerCount: 2
Fore
SplineSet
505 1002 m 1
 281 850 l 1
 260 879 l 1
 473 1050 l 1
 505 1002 l 1
174 394 m 1
 215 392 279 390 343 390 c 0
 480 390 585 442 585 564 c 0
 585 686 480 737 343 737 c 0
 279 737 215 735 174 733 c 1
 174 394 l 1
329 338 m 1
 273 338 217 341 174 343 c 1
 174 0 l 1
 105 0 l 1
 105 347 l 1
 105 780 l 1
 142 783 246 789 349 789 c 0
 523 789 655 712 655 564 c 0
 655 432 550 356 405 341 c 1
 685 4 l 1
 685 0 l 1
 604 0 l 1
 329 338 l 1
EndSplineSet
EndChar

StartChar: racute
Encoding: 341 341 276
Width: 435
GlyphClass: 2
Flags: W
AnchorPoint: "LatinBelow.mark" 170 0 basechar 0
LayerCount: 2
Fore
SplineSet
385 852 m 1
 161 700 l 1
 140 729 l 1
 353 900 l 1
 385 852 l 1
85 596 m 1
 142 603 l 1
 175 442 l 1
 198 528 248 612 350 612 c 0
 377 612 401 607 420 598 c 1
 394 542 l 1
 379 549 361 553 340 553 c 0
 241 553 199 439 187 338 c 1
 187 0 l 1
 120 0 l 1
 120 420 l 1
 85 596 l 1
EndSplineSet
EndChar

StartChar: uni0156
Encoding: 342 342 277
Width: 730
GlyphClass: 2
Flags: W
AnchorPoint: "LatinAbove.mark" 360 150 basechar 0
LayerCount: 2
Fore
SplineSet
382 -180 m 1
 372 -188 358 -192 343 -192 c 0
 310 -192 285 -171 285 -137 c 0
 285 -100 308 -75 347 -75 c 0
 408 -75 425 -126 425 -170 c 0
 425 -260 361 -318 312 -340 c 1
 294 -315 l 1
 332 -297 380 -248 382 -180 c 1
174 394 m 1
 215 392 279 390 343 390 c 0
 480 390 585 442 585 564 c 0
 585 686 480 737 343 737 c 0
 279 737 215 735 174 733 c 1
 174 394 l 1
329 338 m 1
 273 338 217 341 174 343 c 1
 174 0 l 1
 105 0 l 1
 105 347 l 1
 105 780 l 1
 142 783 246 789 349 789 c 0
 523 789 655 712 655 564 c 0
 655 432 550 356 405 341 c 1
 685 4 l 1
 685 0 l 1
 604 0 l 1
 329 338 l 1
EndSplineSet
EndChar

StartChar: uni0157
Encoding: 343 343 278
Width: 435
GlyphClass: 2
Flags: W
AnchorPoint: "LatinAbove.mark" 240 0 basechar 0
LayerCount: 2
Fore
SplineSet
192 -180 m 1
 182 -188 168 -192 153 -192 c 0
 120 -192 95 -171 95 -137 c 0
 95 -100 118 -75 157 -75 c 0
 218 -75 235 -126 235 -170 c 0
 235 -260 171 -318 122 -340 c 1
 104 -315 l 1
 142 -297 190 -248 192 -180 c 1
85 596 m 1
 142 603 l 1
 175 442 l 1
 198 528 248 612 350 612 c 0
 377 612 401 607 420 598 c 1
 394 542 l 1
 379 549 361 553 340 553 c 0
 241 553 199 439 187 338 c 1
 187 0 l 1
 120 0 l 1
 120 420 l 1
 85 596 l 1
EndSplineSet
EndChar

StartChar: Rcaron
Encoding: 344 344 279
Width: 730
GlyphClass: 2
Flags: W
AnchorPoint: "LatinBelow.mark" 360 0 basechar 0
LayerCount: 2
Fore
SplineSet
540 996 m 1
 370 845 l 1
 350 845 l 1
 180 996 l 1
 203 1020 l 1
 360 905 l 1
 517 1020 l 1
 540 996 l 1
174 394 m 1
 215 392 279 390 343 390 c 0
 480 390 585 442 585 564 c 0
 585 686 480 737 343 737 c 0
 279 737 215 735 174 733 c 1
 174 394 l 1
329 338 m 1
 273 338 217 341 174 343 c 1
 174 0 l 1
 105 0 l 1
 105 347 l 1
 105 780 l 1
 142 783 246 789 349 789 c 0
 523 789 655 712 655 564 c 0
 655 432 550 356 405 341 c 1
 685 4 l 1
 685 0 l 1
 604 0 l 1
 329 338 l 1
EndSplineSet
EndChar

StartChar: rcaron
Encoding: 345 345 280
Width: 435
GlyphClass: 2
Flags: W
AnchorPoint: "LatinBelow.mark" 170 0 basechar 0
LayerCount: 2
Fore
SplineSet
420 846 m 1
 250 695 l 1
 230 695 l 1
 60 846 l 1
 83 870 l 1
 240 755 l 1
 397 870 l 1
 420 846 l 1
85 596 m 1
 142 603 l 1
 175 442 l 1
 198 528 248 612 350 612 c 0
 377 612 401 607 420 598 c 1
 394 542 l 1
 379 549 361 553 340 553 c 0
 241 553 199 439 187 338 c 1
 187 0 l 1
 120 0 l 1
 120 420 l 1
 85 596 l 1
EndSplineSet
EndChar

StartChar: Sacute
Encoding: 346 346 281
Width: 710
GlyphClass: 2
Flags: W
AnchorPoint: "LatinBelow.mark" 355 0 basechar 0
LayerCount: 2
Fore
SplineSet
500 1002 m 1
 276 850 l 1
 255 879 l 1
 468 1050 l 1
 500 1002 l 1
70 175 m 1
 139 184 l 1
 150 119 218 36 356 36 c 0
 498 36 572 99 572 194 c 0
 572 283 505 321 453 336 c 0
 395 352 307 381 247 403 c 0
 179 428 90 482 90 588 c 0
 90 710 196 797 356 797 c 0
 522 797 606 687 620 609 c 1
 550 600 l 1
 538 665 474 744 356 744 c 0
 234 744 159 684 159 591 c 0
 159 515 222 481 278 460 c 0
 336 439 421 411 477 395 c 0
 552 373 640 314 640 196 c 0
 640 73 536 -17 356 -17 c 0
 172 -17 85 96 70 175 c 1
EndSplineSet
EndChar

StartChar: sacute
Encoding: 347 347 282
Width: 570
GlyphClass: 2
Flags: W
AnchorPoint: "LatinBelow.mark" 285 0 basechar 0
LayerCount: 2
Fore
SplineSet
430 852 m 1
 206 700 l 1
 185 729 l 1
 398 900 l 1
 430 852 l 1
60 134 m 1
 125 142 l 1
 133 92 184 32 287 32 c 0
 390 32 446 78 446 149 c 0
 446 214 395 245 357 256 c 0
 312 270 246 291 201 307 c 0
 147 326 76 366 76 452 c 0
 76 547 158 617 285 617 c 0
 418 617 483 531 494 469 c 1
 429 461 l 1
 420 510 375 568 285 568 c 0
 195 568 140 524 140 454 c 0
 140 398 188 369 228 356 c 0
 272 341 340 320 382 307 c 0
 442 289 510 246 510 151 c 0
 510 54 425 -17 285 -17 c 0
 139 -17 71 71 60 134 c 1
EndSplineSet
EndChar

StartChar: Scircumflex
Encoding: 348 348 283
Width: 710
GlyphClass: 2
Flags: W
AnchorPoint: "LatinBelow.mark" 355 0 basechar 0
LayerCount: 2
Fore
SplineSet
175 859 m 1
 345 1010 l 1
 365 1010 l 1
 535 859 l 1
 512 835 l 1
 355 950 l 1
 198 835 l 1
 175 859 l 1
70 175 m 1
 139 184 l 1
 150 119 218 36 356 36 c 0
 498 36 572 99 572 194 c 0
 572 283 505 321 453 336 c 0
 395 352 307 381 247 403 c 0
 179 428 90 482 90 588 c 0
 90 710 196 797 356 797 c 0
 522 797 606 687 620 609 c 1
 550 600 l 1
 538 665 474 744 356 744 c 0
 234 744 159 684 159 591 c 0
 159 515 222 481 278 460 c 0
 336 439 421 411 477 395 c 0
 552 373 640 314 640 196 c 0
 640 73 536 -17 356 -17 c 0
 172 -17 85 96 70 175 c 1
EndSplineSet
EndChar

StartChar: scircumflex
Encoding: 349 349 284
Width: 570
GlyphClass: 2
Flags: W
AnchorPoint: "LatinBelow.mark" 285 0 basechar 0
LayerCount: 2
Fore
SplineSet
105 709 m 1
 275 860 l 1
 295 860 l 1
 465 709 l 1
 442 685 l 1
 285 800 l 1
 128 685 l 1
 105 709 l 1
60 134 m 1
 125 142 l 1
 133 92 184 32 287 32 c 0
 390 32 446 78 446 149 c 0
 446 214 395 245 357 256 c 0
 312 270 246 291 201 307 c 0
 147 326 76 366 76 452 c 0
 76 547 158 617 285 617 c 0
 418 617 483 531 494 469 c 1
 429 461 l 1
 420 510 375 568 285 568 c 0
 195 568 140 524 140 454 c 0
 140 398 188 369 228 356 c 0
 272 341 340 320 382 307 c 0
 442 289 510 246 510 151 c 0
 510 54 425 -17 285 -17 c 0
 139 -17 71 71 60 134 c 1
EndSplineSet
EndChar

StartChar: Scedilla
Encoding: 350 350 285
Width: 710
GlyphClass: 2
Flags: W
AnchorPoint: "LatinAbove.mark" 355 150 basechar 0
LayerCount: 2
Fore
SplineSet
295 -291 m 1
 357 -275 448 -246 448 -175 c 0
 448 -149 430 -124 367 -124 c 0
 349 -124 328 -126 317 -128 c 1
 295 -106 l 1
 345 -17 l 1
 169 -13 85 98 70 175 c 1
 139 184 l 1
 150 119 218 36 356 36 c 0
 498 36 572 99 572 194 c 0
 572 283 505 321 453 336 c 0
 395 352 307 381 247 403 c 0
 179 428 90 482 90 588 c 0
 90 710 196 797 356 797 c 0
 522 797 606 687 620 609 c 1
 550 600 l 1
 538 665 474 744 356 744 c 0
 234 744 159 684 159 591 c 0
 159 515 222 481 278 460 c 0
 336 439 421 411 477 395 c 0
 552 373 640 314 640 196 c 0
 640 80 547 -6 386 -16 c 1
 345 -91 l 1
 354 -90 365 -90 375 -90 c 0
 452 -90 495 -122 495 -175 c 0
 495 -281 360 -310 307 -325 c 1
 295 -291 l 1
EndSplineSet
Substitution2: "Latin.st.cedilla subtable" uni0218
EndChar

StartChar: scedilla
Encoding: 351 351 286
Width: 570
GlyphClass: 2
Flags: W
AnchorPoint: "LatinAbove.mark" 285 0 basechar 0
LayerCount: 2
Fore
SplineSet
225 -291 m 1
 287 -275 378 -246 378 -175 c 0
 378 -149 360 -124 297 -124 c 0
 279 -124 258 -126 247 -128 c 1
 225 -106 l 1
 275 -17 l 1
 136 -13 71 72 60 134 c 1
 125 142 l 1
 133 92 184 32 287 32 c 0
 390 32 446 78 446 149 c 0
 446 214 395 245 357 256 c 0
 312 270 246 291 201 307 c 0
 147 326 76 366 76 452 c 0
 76 547 158 617 285 617 c 0
 418 617 483 531 494 469 c 1
 429 461 l 1
 420 510 375 568 285 568 c 0
 195 568 140 524 140 454 c 0
 140 398 188 369 228 356 c 0
 272 341 340 320 382 307 c 0
 442 289 510 246 510 151 c 0
 510 62 438 -6 317 -16 c 1
 275 -91 l 1
 284 -90 295 -90 305 -90 c 0
 382 -90 425 -122 425 -175 c 0
 425 -281 290 -310 237 -325 c 1
 225 -291 l 1
EndSplineSet
Substitution2: "Latin.st.cedilla subtable" uni0219
EndChar

StartChar: Scaron
Encoding: 352 352 287
Width: 710
GlyphClass: 2
Flags: W
AnchorPoint: "LatinBelow.mark" 355 0 basechar 0
LayerCount: 2
Fore
SplineSet
535 996 m 1
 365 845 l 1
 345 845 l 1
 175 996 l 1
 198 1020 l 1
 355 905 l 1
 512 1020 l 1
 535 996 l 1
70 175 m 1
 139 184 l 1
 150 119 218 36 356 36 c 0
 498 36 572 99 572 194 c 0
 572 283 505 321 453 336 c 0
 395 352 307 381 247 403 c 0
 179 428 90 482 90 588 c 0
 90 710 196 797 356 797 c 0
 522 797 606 687 620 609 c 1
 550 600 l 1
 538 665 474 744 356 744 c 0
 234 744 159 684 159 591 c 0
 159 515 222 481 278 460 c 0
 336 439 421 411 477 395 c 0
 552 373 640 314 640 196 c 0
 640 73 536 -17 356 -17 c 0
 172 -17 85 96 70 175 c 1
EndSplineSet
EndChar

StartChar: scaron
Encoding: 353 353 288
Width: 570
GlyphClass: 2
Flags: W
AnchorPoint: "LatinBelow.mark" 285 0 basechar 0
LayerCount: 2
Fore
SplineSet
465 846 m 1
 295 695 l 1
 275 695 l 1
 105 846 l 1
 128 870 l 1
 285 755 l 1
 442 870 l 1
 465 846 l 1
60 134 m 1
 125 142 l 1
 133 92 184 32 287 32 c 0
 390 32 446 78 446 149 c 0
 446 214 395 245 357 256 c 0
 312 270 246 291 201 307 c 0
 147 326 76 366 76 452 c 0
 76 547 158 617 285 617 c 0
 418 617 483 531 494 469 c 1
 429 461 l 1
 420 510 375 568 285 568 c 0
 195 568 140 524 140 454 c 0
 140 398 188 369 228 356 c 0
 272 341 340 320 382 307 c 0
 442 289 510 246 510 151 c 0
 510 54 425 -17 285 -17 c 0
 139 -17 71 71 60 134 c 1
EndSplineSet
EndChar

StartChar: uni0162
Encoding: 354 354 289
Width: 620
GlyphClass: 2
Flags: W
AnchorPoint: "LatinAbove.mark" 310 150 basechar 0
LayerCount: 2
Fore
SplineSet
235 -291 m 1
 297 -275 388 -246 388 -175 c 0
 388 -149 370 -124 307 -124 c 0
 289 -124 268 -126 257 -128 c 1
 235 -106 l 1
 294 0 l 1
 275 0 l 1
 275 726 l 1
 45 726 l 1
 45 780 l 1
 575 780 l 1
 575 726 l 1
 345 726 l 1
 345 0 l 1
 335 0 l 1
 285 -91 l 1
 294 -90 305 -90 315 -90 c 0
 392 -90 435 -122 435 -175 c 0
 435 -281 300 -310 247 -325 c 1
 235 -291 l 1
EndSplineSet
Substitution2: "Latin.st.cedilla subtable" uni021A
EndChar

StartChar: uni0163
Encoding: 355 355 290
Width: 415
GlyphClass: 2
Flags: W
AnchorPoint: "LatinAbove.mark" 180 120 basechar 0
LayerCount: 2
Fore
SplineSet
185 -291 m 1
 247 -275 338 -246 338 -175 c 0
 338 -149 320 -124 257 -124 c 0
 239 -124 218 -126 207 -128 c 1
 185 -106 l 1
 239 -10 l 1
 178 -1 140 36 140 115 c 2
 140 556 l 1
 40 556 l 1
 40 600 l 1
 142 600 l 1
 142 730 l 1
 206 735 l 1
 206 600 l 1
 370 600 l 1
 370 556 l 1
 207 556 l 1
 207 123 l 2
 207 55 230 37 276 37 c 0
 323 37 368 54 384 65 c 1
 400 20 l 1
 376 5 331 -10 279 -12 c 1
 235 -91 l 1
 244 -90 255 -90 265 -90 c 0
 342 -90 385 -122 385 -175 c 0
 385 -281 250 -310 197 -325 c 1
 185 -291 l 1
EndSplineSet
Substitution2: "Latin.st.cedilla subtable" uni021B
EndChar

StartChar: Tcaron
Encoding: 356 356 291
Width: 620
GlyphClass: 2
Flags: W
AnchorPoint: "LatinBelow.mark" 310 0 basechar 0
LayerCount: 2
Fore
SplineSet
490 996 m 1
 320 845 l 1
 300 845 l 1
 130 996 l 1
 153 1020 l 1
 310 905 l 1
 467 1020 l 1
 490 996 l 1
45 726 m 1
 45 780 l 1
 575 780 l 1
 575 726 l 1
 345 726 l 1
 345 0 l 1
 275 0 l 1
 275 726 l 1
 45 726 l 1
EndSplineSet
EndChar

StartChar: tcaron
Encoding: 357 357 292
Width: 625
GlyphClass: 2
Flags: W
LayerCount: 2
Fore
SplineSet
552 720 m 1
 542 712 528 708 513 708 c 0
 480 708 455 729 455 763 c 0
 455 800 478 825 517 825 c 0
 578 825 595 774 595 730 c 0
 595 640 531 582 482 560 c 1
 464 585 l 1
 502 603 550 652 552 720 c 1
40 556 m 1
 40 600 l 1
 142 600 l 1
 142 730 l 1
 206 735 l 1
 206 600 l 1
 370 600 l 1
 370 556 l 1
 207 556 l 1
 207 123 l 2
 207 55 230 37 276 37 c 0
 323 37 368 54 384 65 c 1
 400 20 l 1
 375 4 325 -12 269 -12 c 0
 191 -12 140 24 140 115 c 2
 140 556 l 1
 40 556 l 1
EndSplineSet
EndChar

StartChar: Utilde
Encoding: 360 360 293
Width: 770
GlyphClass: 2
Flags: W
AnchorPoint: "LatinBelow.mark" 385 0 basechar 0
AnchorPoint: "LatinAbove.mark" 385 330 basechar 0
LayerCount: 2
Fore
SplineSet
205 887 m 1
 222 933 248 1005 308 1005 c 0
 354 1005 381 974 403 951 c 0
 425 929 441 905 463 905 c 0
 497 905 518 970 528 997 c 1
 565 983 l 1
 549 936 521 865 462 865 c 0
 416 865 389 896 367 919 c 0
 345 941 329 965 307 965 c 0
 272 965 253 901 242 873 c 1
 205 887 l 1
95 232 m 2
 95 780 l 1
 166 780 l 1
 166 232 l 2
 166 108 255 37 385 37 c 0
 515 37 604 108 604 232 c 2
 604 780 l 1
 675 780 l 1
 675 232 l 2
 675 86 560 -17 385 -17 c 0
 210 -17 95 86 95 232 c 2
EndSplineSet
EndChar

StartChar: utilde
Encoding: 361 361 294
Width: 620
GlyphClass: 2
Flags: W
AnchorPoint: "LatinBelow.mark" 310 0 basechar 0
AnchorPoint: "LatinAbove.mark" 310 180 basechar 0
LayerCount: 2
Fore
SplineSet
130 737 m 1
 147 783 173 855 233 855 c 0
 279 855 306 824 328 801 c 0
 350 779 366 755 388 755 c 0
 422 755 443 820 453 847 c 1
 490 833 l 1
 474 786 446 715 387 715 c 0
 341 715 314 746 292 769 c 0
 270 791 254 815 232 815 c 0
 197 815 178 751 167 723 c 1
 130 737 l 1
80 181 m 2
 80 600 l 1
 147 600 l 1
 147 181 l 2
 147 86 214 33 310 33 c 0
 406 33 473 86 473 181 c 2
 473 600 l 1
 540 600 l 1
 540 181 l 2
 540 66 450 -17 310 -17 c 0
 170 -17 80 66 80 181 c 2
EndSplineSet
EndChar

StartChar: Umacron
Encoding: 362 362 295
Width: 770
GlyphClass: 2
Flags: W
AnchorPoint: "LatinBelow.mark" 385 0 basechar 0
AnchorPoint: "LatinAbove.mark" 385 330 basechar 0
LayerCount: 2
Fore
SplineSet
205 907 m 1
 205 953 l 1
 565 953 l 1
 565 907 l 1
 205 907 l 1
95 232 m 2
 95 780 l 1
 166 780 l 1
 166 232 l 2
 166 108 255 37 385 37 c 0
 515 37 604 108 604 232 c 2
 604 780 l 1
 675 780 l 1
 675 232 l 2
 675 86 560 -17 385 -17 c 0
 210 -17 95 86 95 232 c 2
EndSplineSet
EndChar

StartChar: umacron
Encoding: 363 363 296
Width: 620
GlyphClass: 2
Flags: W
AnchorPoint: "LatinBelow.mark" 310 0 basechar 0
AnchorPoint: "LatinAbove.mark" 310 180 basechar 0
LayerCount: 2
Fore
SplineSet
130 757 m 1
 130 803 l 1
 490 803 l 1
 490 757 l 1
 130 757 l 1
80 181 m 2
 80 600 l 1
 147 600 l 1
 147 181 l 2
 147 86 214 33 310 33 c 0
 406 33 473 86 473 181 c 2
 473 600 l 1
 540 600 l 1
 540 181 l 2
 540 66 450 -17 310 -17 c 0
 170 -17 80 66 80 181 c 2
EndSplineSet
EndChar

StartChar: Ubreve
Encoding: 364 364 297
Width: 770
GlyphClass: 2
Flags: W
AnchorPoint: "LatinBelow.mark" 385 0 basechar 0
AnchorPoint: "LatinAbove.mark" 385 330 basechar 0
LayerCount: 2
Fore
SplineSet
205 989 m 1
 249 1005 l 1
 262 953 294 895 385 895 c 0
 476 895 508 953 521 1005 c 1
 565 989 l 1
 547 920 498 850 385 850 c 0
 272 850 223 920 205 989 c 1
95 232 m 2
 95 780 l 1
 166 780 l 1
 166 232 l 2
 166 108 255 37 385 37 c 0
 515 37 604 108 604 232 c 2
 604 780 l 1
 675 780 l 1
 675 232 l 2
 675 86 560 -17 385 -17 c 0
 210 -17 95 86 95 232 c 2
EndSplineSet
EndChar

StartChar: ubreve
Encoding: 365 365 298
Width: 620
GlyphClass: 2
Flags: W
AnchorPoint: "LatinBelow.mark" 310 0 basechar 0
AnchorPoint: "LatinAbove.mark" 310 180 basechar 0
LayerCount: 2
Fore
SplineSet
130 839 m 1
 174 855 l 1
 187 803 219 745 310 745 c 0
 401 745 433 803 446 855 c 1
 490 839 l 1
 472 770 423 700 310 700 c 0
 197 700 148 770 130 839 c 1
80 181 m 2
 80 600 l 1
 147 600 l 1
 147 181 l 2
 147 86 214 33 310 33 c 0
 406 33 473 86 473 181 c 2
 473 600 l 1
 540 600 l 1
 540 181 l 2
 540 66 450 -17 310 -17 c 0
 170 -17 80 66 80 181 c 2
EndSplineSet
EndChar

StartChar: Uring
Encoding: 366 366 299
Width: 770
GlyphClass: 2
Flags: W
AnchorPoint: "LatinBelow.mark" 385 0 basechar 0
AnchorPoint: "LatinAbove.mark" 385 330 basechar 0
LayerCount: 2
Fore
SplineSet
385 812 m 0
 320 812 275 854 275 915 c 0
 275 976 320 1018 385 1018 c 0
 450 1018 495 976 495 915 c 0
 495 854 450 812 385 812 c 0
385 846 m 0
 428 846 456 875 456 915 c 0
 456 955 428 984 385 984 c 0
 342 984 314 955 314 915 c 0
 314 875 342 846 385 846 c 0
95 232 m 2
 95 780 l 1
 166 780 l 1
 166 232 l 2
 166 108 255 37 385 37 c 0
 515 37 604 108 604 232 c 2
 604 780 l 1
 675 780 l 1
 675 232 l 2
 675 86 560 -17 385 -17 c 0
 210 -17 95 86 95 232 c 2
EndSplineSet
EndChar

StartChar: uring
Encoding: 367 367 300
Width: 620
GlyphClass: 2
Flags: W
AnchorPoint: "LatinBelow.mark" 310 0 basechar 0
AnchorPoint: "LatinAbove.mark" 310 180 basechar 0
LayerCount: 2
Fore
SplineSet
310 662 m 0
 245 662 200 704 200 765 c 0
 200 826 245 868 310 868 c 0
 375 868 420 826 420 765 c 0
 420 704 375 662 310 662 c 0
310 696 m 0
 353 696 381 725 381 765 c 0
 381 805 353 834 310 834 c 0
 267 834 239 805 239 765 c 0
 239 725 267 696 310 696 c 0
80 181 m 2
 80 600 l 1
 147 600 l 1
 147 181 l 2
 147 86 214 33 310 33 c 0
 406 33 473 86 473 181 c 2
 473 600 l 1
 540 600 l 1
 540 181 l 2
 540 66 450 -17 310 -17 c 0
 170 -17 80 66 80 181 c 2
EndSplineSet
EndChar

StartChar: Uhungarumlaut
Encoding: 368 368 301
Width: 770
GlyphClass: 2
Flags: W
AnchorPoint: "LatinBelow.mark" 385 0 basechar 0
AnchorPoint: "LatinAbove.mark" 385 330 basechar 0
LayerCount: 2
Fore
SplineSet
235 871 m 1
 357 1060 l 1
 400 1028 l 1
 262 850 l 1
 235 871 l 1
430 871 m 1
 552 1060 l 1
 595 1028 l 1
 457 850 l 1
 430 871 l 1
95 232 m 2
 95 780 l 1
 166 780 l 1
 166 232 l 2
 166 108 255 37 385 37 c 0
 515 37 604 108 604 232 c 2
 604 780 l 1
 675 780 l 1
 675 232 l 2
 675 86 560 -17 385 -17 c 0
 210 -17 95 86 95 232 c 2
EndSplineSet
EndChar

StartChar: uhungarumlaut
Encoding: 369 369 302
Width: 620
GlyphClass: 2
Flags: W
AnchorPoint: "LatinBelow.mark" 310 0 basechar 0
AnchorPoint: "LatinAbove.mark" 310 180 basechar 0
LayerCount: 2
Fore
SplineSet
160 721 m 1
 282 910 l 1
 325 878 l 1
 187 700 l 1
 160 721 l 1
355 721 m 1
 477 910 l 1
 520 878 l 1
 382 700 l 1
 355 721 l 1
80 181 m 2
 80 600 l 1
 147 600 l 1
 147 181 l 2
 147 86 214 33 310 33 c 0
 406 33 473 86 473 181 c 2
 473 600 l 1
 540 600 l 1
 540 181 l 2
 540 66 450 -17 310 -17 c 0
 170 -17 80 66 80 181 c 2
EndSplineSet
EndChar

StartChar: Uogonek
Encoding: 370 370 303
Width: 770
GlyphClass: 2
Flags: W
AnchorPoint: "LatinAbove.mark" 385 150 basechar 0
LayerCount: 2
Fore
SplineSet
95 232 m 2
 95 780 l 1
 166 780 l 1
 166 232 l 2
 166 108 255 37 385 37 c 0
 515 37 604 108 604 232 c 2
 604 780 l 1
 675 780 l 1
 675 232 l 2
 675 124 612 39 508 3 c 1
 478 -32 453 -75 453 -138 c 0
 453 -188 480 -212 518 -212 c 0
 547 -212 569 -204 583 -196 c 1
 596 -231 l 1
 572 -244 546 -250 511 -250 c 0
 442 -250 406 -206 406 -143 c 0
 406 -87 426 -46 452 -12 c 1
 431 -16 408 -17 385 -17 c 0
 210 -17 95 86 95 232 c 2
EndSplineSet
EndChar

StartChar: uogonek
Encoding: 371 371 304
Width: 620
GlyphClass: 2
Flags: W
AnchorPoint: "LatinAbove.mark" 310 0 basechar 0
LayerCount: 2
Fore
SplineSet
80 181 m 2
 80 600 l 1
 147 600 l 1
 147 181 l 2
 147 86 214 33 310 33 c 0
 406 33 473 86 473 181 c 2
 473 600 l 1
 540 600 l 1
 540 181 l 2
 540 94 489 25 403 -3 c 1
 375 -37 353 -78 353 -138 c 0
 353 -188 380 -212 418 -212 c 0
 447 -212 469 -204 483 -196 c 1
 496 -231 l 1
 472 -244 446 -250 411 -250 c 0
 342 -250 306 -206 306 -143 c 0
 306 -88 325 -48 350 -15 c 1
 337 -17 324 -17 310 -17 c 0
 170 -17 80 66 80 181 c 2
EndSplineSet
EndChar

StartChar: Wcircumflex
Encoding: 372 372 305
Width: 1060
GlyphClass: 2
Flags: W
AnchorPoint: "LatinBelow.mark" 530 0 basechar 0
LayerCount: 2
Fore
SplineSet
350 859 m 1
 520 1010 l 1
 540 1010 l 1
 710 859 l 1
 687 835 l 1
 530 950 l 1
 373 835 l 1
 350 859 l 1
1020 769 m 1
 788 0 l 1
 725 0 l 1
 530 659 l 1
 335 0 l 1
 272 0 l 1
 40 769 l 1
 40 773 l 1
 118 780 l 1
 308 96 l 1
 500 760 l 1
 560 760 l 1
 752 96 l 1
 942 780 l 1
 1020 773 l 1
 1020 769 l 1
EndSplineSet
EndChar

StartChar: wcircumflex
Encoding: 373 373 306
Width: 830
GlyphClass: 2
Flags: W
AnchorPoint: "LatinBelow.mark" 415 0 basechar 0
LayerCount: 2
Fore
SplineSet
235 709 m 1
 405 860 l 1
 425 860 l 1
 595 709 l 1
 572 685 l 1
 415 800 l 1
 258 685 l 1
 235 709 l 1
795 590 m 1
 617 0 l 1
 559 0 l 1
 415 490 l 1
 271 0 l 1
 213 0 l 1
 35 590 l 1
 35 594 l 1
 106 600 l 1
 246 93 l 1
 387 585 l 1
 443 585 l 1
 584 93 l 1
 724 600 l 1
 795 594 l 1
 795 590 l 1
EndSplineSet
EndChar

StartChar: Ycircumflex
Encoding: 374 374 307
Width: 670
GlyphClass: 2
Flags: W
AnchorPoint: "LatinBelow.mark" 335 0 basechar 0
AnchorPoint: "LatinAbove.mark" 345 330 basechar 0
LayerCount: 2
Fore
SplineSet
155 859 m 1
 325 1010 l 1
 345 1010 l 1
 515 859 l 1
 492 835 l 1
 335 950 l 1
 178 835 l 1
 155 859 l 1
25 769 m 1
 25 774 l 1
 104 780 l 1
 335 373 l 1
 566 780 l 1
 645 774 l 1
 645 769 l 1
 370 304 l 1
 370 0 l 1
 300 0 l 1
 300 304 l 1
 25 769 l 1
EndSplineSet
EndChar

StartChar: ycircumflex
Encoding: 375 375 308
Width: 600
GlyphClass: 2
Flags: W
AnchorPoint: "LatinBelow.mark" 300 -180 basechar 0
AnchorPoint: "LatinAbove.mark" 300 180 basechar 0
LayerCount: 2
Fore
SplineSet
120 709 m 1
 290 860 l 1
 310 860 l 1
 480 709 l 1
 457 685 l 1
 300 800 l 1
 143 685 l 1
 120 709 l 1
30 591 m 1
 30 595 l 1
 102 600 l 1
 300 74 l 1
 498 600 l 1
 570 595 l 1
 570 591 l 1
 316 -34 l 2
 282 -110 235 -227 139 -227 c 0
 92 -227 62 -204 40 -185 c 1
 74 -143 l 1
 92 -161 110 -180 138 -180 c 0
 189 -180 225 -101 260 -21 c 2
 271 3 l 1
 30 591 l 1
EndSplineSet
EndChar

StartChar: Ydieresis
Encoding: 376 376 309
Width: 670
GlyphClass: 2
Flags: W
AnchorPoint: "LatinBelow.mark" 335 0 basechar 0
AnchorPoint: "LatinAbove.mark" 345 330 basechar 0
LayerCount: 2
Fore
SplineSet
391 930 m 0
 391 966 418 988 453 988 c 0
 488 988 515 966 515 930 c 0
 515 894 488 872 453 872 c 0
 418 872 391 894 391 930 c 0
155 930 m 0
 155 966 182 988 217 988 c 0
 252 988 279 966 279 930 c 0
 279 894 252 872 217 872 c 0
 182 872 155 894 155 930 c 0
25 769 m 1
 25 774 l 1
 104 780 l 1
 335 373 l 1
 566 780 l 1
 645 774 l 1
 645 769 l 1
 370 304 l 1
 370 0 l 1
 300 0 l 1
 300 304 l 1
 25 769 l 1
EndSplineSet
EndChar

StartChar: Zacute
Encoding: 377 377 310
Width: 670
GlyphClass: 2
Flags: W
AnchorPoint: "LatinBelow.mark" 335 0 basechar 0
LayerCount: 2
Fore
SplineSet
480 1002 m 1
 256 850 l 1
 235 879 l 1
 448 1050 l 1
 480 1002 l 1
50 41 m 1
 515 724 l 1
 72 724 l 1
 72 780 l 1
 604 780 l 1
 610 739 l 1
 145 56 l 1
 620 56 l 1
 620 0 l 1
 55 0 l 1
 50 41 l 1
EndSplineSet
EndChar

StartChar: zacute
Encoding: 378 378 311
Width: 530
GlyphClass: 2
Flags: W
AnchorPoint: "LatinBelow.mark" 265 0 basechar 0
LayerCount: 2
Fore
SplineSet
410 852 m 1
 186 700 l 1
 165 729 l 1
 378 900 l 1
 410 852 l 1
45 36 m 1
 389 551 l 1
 63 551 l 1
 63 600 l 1
 473 600 l 1
 478 564 l 1
 134 49 l 1
 485 49 l 1
 485 0 l 1
 49 0 l 1
 45 36 l 1
EndSplineSet
EndChar

StartChar: Zdotaccent
Encoding: 379 379 312
Width: 670
GlyphClass: 2
Flags: W
AnchorPoint: "LatinBelow.mark" 335 0 basechar 0
LayerCount: 2
Fore
SplineSet
335 991 m 0
 372 991 400 967 400 930 c 0
 400 893 372 869 335 869 c 0
 298 869 270 893 270 930 c 0
 270 967 298 991 335 991 c 0
50 41 m 1
 515 724 l 1
 72 724 l 1
 72 780 l 1
 604 780 l 1
 610 739 l 1
 145 56 l 1
 620 56 l 1
 620 0 l 1
 55 0 l 1
 50 41 l 1
EndSplineSet
EndChar

StartChar: zdotaccent
Encoding: 380 380 313
Width: 530
GlyphClass: 2
Flags: W
AnchorPoint: "LatinBelow.mark" 265 0 basechar 0
LayerCount: 2
Fore
SplineSet
265 841 m 0
 302 841 330 817 330 780 c 0
 330 743 302 719 265 719 c 0
 228 719 200 743 200 780 c 0
 200 817 228 841 265 841 c 0
45 36 m 1
 389 551 l 1
 63 551 l 1
 63 600 l 1
 473 600 l 1
 478 564 l 1
 134 49 l 1
 485 49 l 1
 485 0 l 1
 49 0 l 1
 45 36 l 1
EndSplineSet
EndChar

StartChar: Zcaron
Encoding: 381 381 314
Width: 670
GlyphClass: 2
Flags: W
AnchorPoint: "LatinBelow.mark" 335 0 basechar 0
LayerCount: 2
Fore
SplineSet
515 996 m 1
 345 845 l 1
 325 845 l 1
 155 996 l 1
 178 1020 l 1
 335 905 l 1
 492 1020 l 1
 515 996 l 1
50 41 m 1
 515 724 l 1
 72 724 l 1
 72 780 l 1
 604 780 l 1
 610 739 l 1
 145 56 l 1
 620 56 l 1
 620 0 l 1
 55 0 l 1
 50 41 l 1
EndSplineSet
EndChar

StartChar: zcaron
Encoding: 382 382 315
Width: 530
GlyphClass: 2
Flags: W
AnchorPoint: "LatinBelow.mark" 265 0 basechar 0
LayerCount: 2
Fore
SplineSet
445 846 m 1
 275 695 l 1
 255 695 l 1
 85 846 l 1
 108 870 l 1
 265 755 l 1
 422 870 l 1
 445 846 l 1
45 36 m 1
 389 551 l 1
 63 551 l 1
 63 600 l 1
 473 600 l 1
 478 564 l 1
 134 49 l 1
 485 49 l 1
 485 0 l 1
 49 0 l 1
 45 36 l 1
EndSplineSet
EndChar

StartChar: uni018F
Encoding: 399 399 316
Width: 780
GlyphClass: 2
Flags: W
AnchorPoint: "LatinBelow.mark" 375 0 basechar 0
AnchorPoint: "LatinAbove.mark" 375 150 basechar 0
LayerCount: 2
Fore
SplineSet
705 408 m 2
 705 372 l 2
 705 183 627 -17 375 -17 c 0
 166 -17 65 128 65 306 c 0
 65 336 68 368 74 399 c 1
 637 399 l 1
 637 408 l 2
 637 597 560 744 375 744 c 0
 238 744 169 653 157 588 c 1
 88 594 l 1
 102 674 189 797 375 797 c 0
 627 797 705 597 705 408 c 2
637 351 m 1
 136 351 l 1
 134 335 133 320 133 306 c 0
 133 138 221 35 375 35 c 0
 553 35 631 172 637 351 c 1
EndSplineSet
EndChar

StartChar: florin
Encoding: 402 402 317
Width: 400
GlyphClass: 2
Flags: W
AnchorPoint: "LatinBelow.mark" 180 0 basechar 0
AnchorPoint: "LatinAbove.mark" 270 180 basechar 0
LayerCount: 2
Fore
SplineSet
40 556 m 1
 40 600 l 1
 140 600 l 1
 140 688 l 2
 140 748 176 827 283 827 c 0
 358 827 401 795 415 785 c 1
 384 748 l 1
 371 757 340 779 287 779 c 0
 231 779 205 737 205 688 c 2
 205 600 l 1
 370 600 l 1
 370 556 l 1
 207 556 l 1
 207 -27 l 2
 207 -132 130 -191 40 -222 c 1
 19 -178 l 1
 89 -151 140 -109 140 -24 c 2
 140 556 l 1
 40 556 l 1
EndSplineSet
EndChar

StartChar: Ohorn
Encoding: 416 416 318
Width: 820
GlyphClass: 3
Flags: W
AnchorPoint: "LatinBelow.mark" 410 0 basechar 0
AnchorPoint: "LatinAbove.mark" 410 150 basechar 0
LayerCount: 2
Fore
SplineSet
75 372 m 2
 75 408 l 2
 75 599 156 797 410 797 c 0
 507 797 579 768 631 721 c 1
 658 733 695 764 695 821 c 0
 695 851 682 872 670 886 c 1
 713 911 l 1
 731 892 745 861 745 822 c 0
 745 755 699 713 656 695 c 1
 720 620 745 513 745 408 c 2
 745 372 l 2
 745 181 664 -17 410 -17 c 0
 156 -17 75 181 75 372 c 2
410 37 m 0
 595 37 672 183 672 372 c 2
 672 408 l 2
 672 597 595 743 410 743 c 0
 225 743 148 597 148 408 c 2
 148 372 l 2
 148 183 225 37 410 37 c 0
EndSplineSet
Ligature2: "Latin.horn subtable" O uni031B
Ligature2: "Latin.horn subtable" O uni200D uni031B
EndChar

StartChar: ohorn
Encoding: 417 417 319
Width: 660
GlyphClass: 3
Flags: W
AnchorPoint: "LatinBelow.mark" 330 0 basechar 0
AnchorPoint: "LatinAbove.mark" 330 0 basechar 0
LayerCount: 2
Fore
SplineSet
70 286 m 2
 70 314 l 2
 70 460 130 617 330 617 c 0
 415 617 474 588 515 545 c 1
 541 559 570 590 570 641 c 0
 570 671 557 692 545 706 c 1
 588 731 l 1
 606 712 620 681 620 642 c 0
 620 578 578 537 537 518 c 1
 576 461 590 386 590 314 c 2
 590 286 l 2
 590 140 530 -17 330 -17 c 0
 130 -17 70 140 70 286 c 2
330 33 m 0
 464 33 523 140 523 286 c 2
 523 314 l 2
 523 460 464 567 330 567 c 0
 196 567 137 460 137 314 c 2
 137 286 l 2
 137 140 196 33 330 33 c 0
EndSplineSet
Ligature2: "Latin.horn subtable" o uni031B
Ligature2: "Latin.horn subtable" o uni200D uni031B
EndChar

StartChar: Uhorn
Encoding: 431 431 320
Width: 780
GlyphClass: 3
Flags: W
AnchorPoint: "LatinBelow.mark" 385 0 basechar 0
AnchorPoint: "LatinAbove.mark" 385 150 basechar 0
LayerCount: 2
Fore
SplineSet
95 232 m 2
 95 780 l 1
 166 780 l 1
 166 232 l 2
 166 108 255 37 385 37 c 0
 515 37 604 108 604 232 c 2
 604 730 l 1
 618 730 l 1
 646 724 l 1
 673 737 705 767 705 821 c 0
 705 851 692 872 680 886 c 1
 723 911 l 1
 741 892 755 861 755 822 c 0
 755 759 715 719 675 699 c 1
 675 232 l 2
 675 86 560 -17 385 -17 c 0
 210 -17 95 86 95 232 c 2
EndSplineSet
Ligature2: "Latin.horn subtable" U uni031B
Ligature2: "Latin.horn subtable" U uni200D uni031B
EndChar

StartChar: uhorn
Encoding: 432 432 321
Width: 635
GlyphClass: 3
Flags: W
AnchorPoint: "LatinBelow.mark" 310 0 basechar 0
AnchorPoint: "LatinAbove.mark" 310 0 basechar 0
LayerCount: 2
Fore
SplineSet
80 181 m 2
 80 600 l 1
 147 600 l 1
 147 181 l 2
 147 86 214 33 310 33 c 0
 406 33 473 86 473 181 c 2
 473 550 l 1
 487 550 l 1
 512 544 l 1
 539 557 570 588 570 641 c 0
 570 671 557 692 545 706 c 1
 588 731 l 1
 606 712 620 681 620 642 c 0
 620 579 580 539 540 519 c 1
 540 181 l 2
 540 66 450 -17 310 -17 c 0
 170 -17 80 66 80 181 c 2
EndSplineSet
Ligature2: "Latin.horn subtable" u uni031B
Ligature2: "Latin.horn subtable" u uni200D uni031B
EndChar

StartChar: uni01CD
Encoding: 461 461 322
Width: 750
GlyphClass: 2
Flags: W
AnchorPoint: "LatinBelow.mark" 375 0 basechar 0
AnchorPoint: "LatinAbove.mark" 375 330 basechar 0
LayerCount: 2
Fore
SplineSet
555 996 m 1
 385 845 l 1
 365 845 l 1
 195 996 l 1
 218 1020 l 1
 375 905 l 1
 532 1020 l 1
 555 996 l 1
720 0 m 1
 640 0 l 1
 570 184 l 1
 180 184 l 1
 110 0 l 1
 30 0 l 1
 30 5 l 1
 344 780 l 1
 406 780 l 1
 720 5 l 1
 720 0 l 1
550 236 m 1
 375 698 l 1
 200 236 l 1
 550 236 l 1
EndSplineSet
EndChar

StartChar: uni01CE
Encoding: 462 462 323
Width: 625
GlyphClass: 2
Flags: W
AnchorPoint: "LatinBelow.mark" 330 0 basechar 0
AnchorPoint: "LatinAbove.mark" 310 180 basechar 0
LayerCount: 2
Fore
SplineSet
490 846 m 1
 320 695 l 1
 300 695 l 1
 130 846 l 1
 153 870 l 1
 310 755 l 1
 467 870 l 1
 490 846 l 1
70 171 m 0
 70 249 132 316 250 316 c 0
 331 316 408 309 460 302 c 1
 460 425 l 2
 460 519 394 567 300 567 c 0
 208 567 154 513 142 433 c 1
 75 438 l 1
 88 531 162 617 300 617 c 0
 436 617 525 539 525 425 c 2
 525 132 l 2
 525 67 546 39 600 33 c 1
 583 -12 l 1
 535 -6 477 19 470 103 c 1
 436 43 377 -12 277 -12 c 0
 154 -12 70 56 70 171 c 0
463 259 m 1
 417 265 343 275 253 275 c 0
 184 275 135 236 135 171 c 0
 135 77 202 31 283 31 c 0
 396 31 446 126 463 204 c 1
 463 259 l 1
EndSplineSet
MultipleSubs2: "Latin.a.decomp subtable" uni0251 uni030C
EndChar

StartChar: uni01CF
Encoding: 463 463 324
Width: 320
GlyphClass: 2
Flags: W
AnchorPoint: "LatinBelow.mark" 160 0 basechar 0
AnchorPoint: "LatinAbove.mark" 160 330 basechar 0
LayerCount: 2
Fore
SplineSet
340 996 m 1
 170 845 l 1
 150 845 l 1
 -20 996 l 1
 3 1020 l 1
 160 905 l 1
 317 1020 l 1
 340 996 l 1
125 0 m 1
 125 780 l 1
 195 780 l 1
 195 0 l 1
 125 0 l 1
EndSplineSet
EndChar

StartChar: uni01D0
Encoding: 464 464 325
Width: 300
GlyphClass: 2
Flags: W
AnchorPoint: "LatinBelow.mark" 150 0 basechar 0
AnchorPoint: "LatinAbove.mark" 150 180 basechar 0
LayerCount: 2
Fore
SplineSet
330 846 m 1
 160 695 l 1
 140 695 l 1
 -30 846 l 1
 -7 870 l 1
 150 755 l 1
 307 870 l 1
 330 846 l 1
116 0 m 1
 116 600 l 1
 184 600 l 1
 184 0 l 1
 116 0 l 1
EndSplineSet
EndChar

StartChar: uni01D1
Encoding: 465 465 326
Width: 820
GlyphClass: 2
Flags: W
AnchorPoint: "LatinBelow.mark" 410 0 basechar 0
AnchorPoint: "LatinAbove.mark" 410 330 basechar 0
LayerCount: 2
Fore
SplineSet
590 996 m 1
 420 845 l 1
 400 845 l 1
 230 996 l 1
 253 1020 l 1
 410 905 l 1
 567 1020 l 1
 590 996 l 1
75 372 m 2
 75 408 l 2
 75 599 156 797 410 797 c 0
 664 797 745 599 745 408 c 2
 745 372 l 2
 745 181 664 -17 410 -17 c 0
 156 -17 75 181 75 372 c 2
410 37 m 0
 595 37 672 183 672 372 c 2
 672 408 l 2
 672 597 595 743 410 743 c 0
 225 743 148 597 148 408 c 2
 148 372 l 2
 148 183 225 37 410 37 c 0
EndSplineSet
EndChar

StartChar: uni01D2
Encoding: 466 466 327
Width: 660
GlyphClass: 2
Flags: W
AnchorPoint: "LatinBelow.mark" 330 0 basechar 0
AnchorPoint: "LatinAbove.mark" 330 180 basechar 0
LayerCount: 2
Fore
SplineSet
510 846 m 1
 340 695 l 1
 320 695 l 1
 150 846 l 1
 173 870 l 1
 330 755 l 1
 487 870 l 1
 510 846 l 1
70 286 m 2
 70 314 l 2
 70 460 130 617 330 617 c 0
 530 617 590 460 590 314 c 2
 590 286 l 2
 590 140 530 -17 330 -17 c 0
 130 -17 70 140 70 286 c 2
330 33 m 0
 464 33 523 140 523 286 c 2
 523 314 l 2
 523 460 464 567 330 567 c 0
 196 567 137 460 137 314 c 2
 137 286 l 2
 137 140 196 33 330 33 c 0
EndSplineSet
EndChar

StartChar: uni01D3
Encoding: 467 467 328
Width: 770
GlyphClass: 2
Flags: W
AnchorPoint: "LatinBelow.mark" 385 0 basechar 0
AnchorPoint: "LatinAbove.mark" 385 330 basechar 0
LayerCount: 2
Fore
SplineSet
565 996 m 1
 395 845 l 1
 375 845 l 1
 205 996 l 1
 228 1020 l 1
 385 905 l 1
 542 1020 l 1
 565 996 l 1
95 232 m 2
 95 780 l 1
 166 780 l 1
 166 232 l 2
 166 108 255 37 385 37 c 0
 515 37 604 108 604 232 c 2
 604 780 l 1
 675 780 l 1
 675 232 l 2
 675 86 560 -17 385 -17 c 0
 210 -17 95 86 95 232 c 2
EndSplineSet
EndChar

StartChar: uni01D4
Encoding: 468 468 329
Width: 620
GlyphClass: 2
Flags: W
AnchorPoint: "LatinBelow.mark" 310 0 basechar 0
AnchorPoint: "LatinAbove.mark" 310 180 basechar 0
LayerCount: 2
Fore
SplineSet
490 846 m 1
 320 695 l 1
 300 695 l 1
 130 846 l 1
 153 870 l 1
 310 755 l 1
 467 870 l 1
 490 846 l 1
80 181 m 2
 80 600 l 1
 147 600 l 1
 147 181 l 2
 147 86 214 33 310 33 c 0
 406 33 473 86 473 181 c 2
 473 600 l 1
 540 600 l 1
 540 181 l 2
 540 66 450 -17 310 -17 c 0
 170 -17 80 66 80 181 c 2
EndSplineSet
EndChar

StartChar: uni01D5
Encoding: 469 469 330
Width: 770
GlyphClass: 2
Flags: W
AnchorPoint: "LatinBelow.mark" 385 0 basechar 0
LayerCount: 2
Fore
SplineSet
205 1087 m 1
 205 1133 l 1
 565 1133 l 1
 565 1087 l 1
 205 1087 l 1
441 930 m 0
 441 966 468 988 503 988 c 0
 538 988 565 966 565 930 c 0
 565 894 538 872 503 872 c 0
 468 872 441 894 441 930 c 0
205 930 m 0
 205 966 232 988 267 988 c 0
 302 988 329 966 329 930 c 0
 329 894 302 872 267 872 c 0
 232 872 205 894 205 930 c 0
95 232 m 2
 95 780 l 1
 166 780 l 1
 166 232 l 2
 166 108 255 37 385 37 c 0
 515 37 604 108 604 232 c 2
 604 780 l 1
 675 780 l 1
 675 232 l 2
 675 86 560 -17 385 -17 c 0
 210 -17 95 86 95 232 c 2
EndSplineSet
EndChar

StartChar: uni01D6
Encoding: 470 470 331
Width: 620
GlyphClass: 2
Flags: W
AnchorPoint: "LatinBelow.mark" 310 0 basechar 0
LayerCount: 2
Fore
SplineSet
130 937 m 1
 130 983 l 1
 490 983 l 1
 490 937 l 1
 130 937 l 1
366 780 m 0
 366 816 393 838 428 838 c 0
 463 838 490 816 490 780 c 0
 490 744 463 722 428 722 c 0
 393 722 366 744 366 780 c 0
130 780 m 0
 130 816 157 838 192 838 c 0
 227 838 254 816 254 780 c 0
 254 744 227 722 192 722 c 0
 157 722 130 744 130 780 c 0
80 181 m 2
 80 600 l 1
 147 600 l 1
 147 181 l 2
 147 86 214 33 310 33 c 0
 406 33 473 86 473 181 c 2
 473 600 l 1
 540 600 l 1
 540 181 l 2
 540 66 450 -17 310 -17 c 0
 170 -17 80 66 80 181 c 2
EndSplineSet
EndChar

StartChar: uni01D7
Encoding: 471 471 332
Width: 770
GlyphClass: 2
Flags: W
AnchorPoint: "LatinBelow.mark" 385 0 basechar 0
LayerCount: 2
Fore
SplineSet
530 1182 m 1
 306 1030 l 1
 285 1059 l 1
 498 1230 l 1
 530 1182 l 1
441 930 m 0
 441 966 468 988 503 988 c 0
 538 988 565 966 565 930 c 0
 565 894 538 872 503 872 c 0
 468 872 441 894 441 930 c 0
205 930 m 0
 205 966 232 988 267 988 c 0
 302 988 329 966 329 930 c 0
 329 894 302 872 267 872 c 0
 232 872 205 894 205 930 c 0
95 232 m 2
 95 780 l 1
 166 780 l 1
 166 232 l 2
 166 108 255 37 385 37 c 0
 515 37 604 108 604 232 c 2
 604 780 l 1
 675 780 l 1
 675 232 l 2
 675 86 560 -17 385 -17 c 0
 210 -17 95 86 95 232 c 2
EndSplineSet
EndChar

StartChar: uni01D8
Encoding: 472 472 333
Width: 620
GlyphClass: 2
Flags: W
AnchorPoint: "LatinBelow.mark" 310 0 basechar 0
LayerCount: 2
Fore
SplineSet
455 1032 m 1
 231 880 l 1
 210 909 l 1
 423 1080 l 1
 455 1032 l 1
366 780 m 0
 366 816 393 838 428 838 c 0
 463 838 490 816 490 780 c 0
 490 744 463 722 428 722 c 0
 393 722 366 744 366 780 c 0
130 780 m 0
 130 816 157 838 192 838 c 0
 227 838 254 816 254 780 c 0
 254 744 227 722 192 722 c 0
 157 722 130 744 130 780 c 0
80 181 m 2
 80 600 l 1
 147 600 l 1
 147 181 l 2
 147 86 214 33 310 33 c 0
 406 33 473 86 473 181 c 2
 473 600 l 1
 540 600 l 1
 540 181 l 2
 540 66 450 -17 310 -17 c 0
 170 -17 80 66 80 181 c 2
EndSplineSet
EndChar

StartChar: uni01D9
Encoding: 473 473 334
Width: 770
GlyphClass: 2
Flags: W
AnchorPoint: "LatinBelow.mark" 385 0 basechar 0
LayerCount: 2
Fore
SplineSet
565 1176 m 1
 395 1025 l 1
 375 1025 l 1
 205 1176 l 1
 228 1200 l 1
 385 1085 l 1
 542 1200 l 1
 565 1176 l 1
441 930 m 0
 441 966 468 988 503 988 c 0
 538 988 565 966 565 930 c 0
 565 894 538 872 503 872 c 0
 468 872 441 894 441 930 c 0
205 930 m 0
 205 966 232 988 267 988 c 0
 302 988 329 966 329 930 c 0
 329 894 302 872 267 872 c 0
 232 872 205 894 205 930 c 0
95 232 m 2
 95 780 l 1
 166 780 l 1
 166 232 l 2
 166 108 255 37 385 37 c 0
 515 37 604 108 604 232 c 2
 604 780 l 1
 675 780 l 1
 675 232 l 2
 675 86 560 -17 385 -17 c 0
 210 -17 95 86 95 232 c 2
EndSplineSet
EndChar

StartChar: uni01DA
Encoding: 474 474 335
Width: 620
GlyphClass: 2
Flags: W
AnchorPoint: "LatinBelow.mark" 310 0 basechar 0
LayerCount: 2
Fore
SplineSet
490 1026 m 1
 320 875 l 1
 300 875 l 1
 130 1026 l 1
 153 1050 l 1
 310 935 l 1
 467 1050 l 1
 490 1026 l 1
366 780 m 0
 366 816 393 838 428 838 c 0
 463 838 490 816 490 780 c 0
 490 744 463 722 428 722 c 0
 393 722 366 744 366 780 c 0
130 780 m 0
 130 816 157 838 192 838 c 0
 227 838 254 816 254 780 c 0
 254 744 227 722 192 722 c 0
 157 722 130 744 130 780 c 0
80 181 m 2
 80 600 l 1
 147 600 l 1
 147 181 l 2
 147 86 214 33 310 33 c 0
 406 33 473 86 473 181 c 2
 473 600 l 1
 540 600 l 1
 540 181 l 2
 540 66 450 -17 310 -17 c 0
 170 -17 80 66 80 181 c 2
EndSplineSet
EndChar

StartChar: uni01DB
Encoding: 475 475 336
Width: 770
GlyphClass: 2
Flags: W
AnchorPoint: "LatinBelow.mark" 385 0 basechar 0
LayerCount: 2
Fore
SplineSet
240 1182 m 1
 272 1230 l 1
 485 1059 l 1
 464 1030 l 1
 240 1182 l 1
441 930 m 0
 441 966 468 988 503 988 c 0
 538 988 565 966 565 930 c 0
 565 894 538 872 503 872 c 0
 468 872 441 894 441 930 c 0
205 930 m 0
 205 966 232 988 267 988 c 0
 302 988 329 966 329 930 c 0
 329 894 302 872 267 872 c 0
 232 872 205 894 205 930 c 0
95 232 m 2
 95 780 l 1
 166 780 l 1
 166 232 l 2
 166 108 255 37 385 37 c 0
 515 37 604 108 604 232 c 2
 604 780 l 1
 675 780 l 1
 675 232 l 2
 675 86 560 -17 385 -17 c 0
 210 -17 95 86 95 232 c 2
EndSplineSet
EndChar

StartChar: uni01DC
Encoding: 476 476 337
Width: 620
GlyphClass: 2
Flags: W
AnchorPoint: "LatinBelow.mark" 310 0 basechar 0
LayerCount: 2
Fore
SplineSet
165 1032 m 1
 197 1080 l 1
 410 909 l 1
 389 880 l 1
 165 1032 l 1
366 780 m 0
 366 816 393 838 428 838 c 0
 463 838 490 816 490 780 c 0
 490 744 463 722 428 722 c 0
 393 722 366 744 366 780 c 0
130 780 m 0
 130 816 157 838 192 838 c 0
 227 838 254 816 254 780 c 0
 254 744 227 722 192 722 c 0
 157 722 130 744 130 780 c 0
80 181 m 2
 80 600 l 1
 147 600 l 1
 147 181 l 2
 147 86 214 33 310 33 c 0
 406 33 473 86 473 181 c 2
 473 600 l 1
 540 600 l 1
 540 181 l 2
 540 66 450 -17 310 -17 c 0
 170 -17 80 66 80 181 c 2
EndSplineSet
EndChar

StartChar: Gcaron
Encoding: 486 486 338
Width: 770
GlyphClass: 2
Flags: W
AnchorPoint: "LatinBelow.mark" 410 0 basechar 0
LayerCount: 2
Fore
SplineSet
590 996 m 1
 420 845 l 1
 400 845 l 1
 230 996 l 1
 253 1020 l 1
 410 905 l 1
 567 1020 l 1
 590 996 l 1
424 320 m 1
 424 371 l 1
 695 371 l 1
 695 139 l 1
 669 76 584 -17 413 -17 c 0
 158 -17 75 181 75 373 c 2
 75 407 l 2
 75 599 158 797 413 797 c 0
 600 797 686 674 700 595 c 1
 628 588 l 1
 616 653 548 743 413 743 c 0
 227 743 148 599 148 407 c 2
 148 373 l 2
 148 181 227 37 413 37 c 0
 541 37 602 93 630 143 c 1
 630 320 l 1
 424 320 l 1
EndSplineSet
EndChar

StartChar: gcaron
Encoding: 487 487 339
Width: 670
GlyphClass: 2
Flags: W
AnchorPoint: "LatinBelow.mark" 360 -180 basechar 0
LayerCount: 2
Fore
SplineSet
540 846 m 1
 370 695 l 1
 350 695 l 1
 180 846 l 1
 203 870 l 1
 360 755 l 1
 517 870 l 1
 540 846 l 1
70 315 m 0
 70 455 133 612 318 612 c 0
 416 612 476 548 512 479 c 1
 518 600 l 1
 575 600 l 1
 575 -36 l 2
 575 -149 486 -227 349 -227 c 0
 213 -227 139 -159 125 -112 c 1
 187 -95 l 1
 197 -127 248 -179 349 -179 c 0
 446 -179 512 -129 512 -36 c 2
 512 151 l 1
 477 82 416 18 318 18 c 0
 133 18 70 175 70 315 c 0
510 381 m 1
 490 463 433 562 325 562 c 0
 197 562 137 456 137 315 c 0
 137 174 197 68 325 68 c 0
 433 68 490 167 510 249 c 1
 510 381 l 1
EndSplineSet
MultipleSubs2: "Latin.g.decomp subtable" g.alt uni030C
EndChar

StartChar: uni01EA
Encoding: 490 490 340
Width: 820
GlyphClass: 2
Flags: W
AnchorPoint: "LatinAbove.mark" 410 150 basechar 0
LayerCount: 2
Fore
SplineSet
410 37 m 0
 595 37 672 183 672 372 c 2
 672 408 l 2
 672 597 595 743 410 743 c 0
 225 743 148 597 148 408 c 2
 148 372 l 2
 148 183 225 37 410 37 c 0
75 372 m 2
 75 408 l 2
 75 599 156 797 410 797 c 0
 664 797 745 599 745 408 c 2
 745 372 l 2
 745 205 683 33 499 -8 c 1
 473 -41 453 -81 453 -138 c 0
 453 -188 480 -212 518 -212 c 0
 547 -212 569 -204 583 -196 c 1
 596 -231 l 1
 572 -244 546 -250 511 -250 c 0
 442 -250 406 -206 406 -143 c 0
 406 -89 425 -48 449 -15 c 1
 436 -16 424 -17 410 -17 c 0
 156 -17 75 181 75 372 c 2
EndSplineSet
EndChar

StartChar: uni01EB
Encoding: 491 491 341
Width: 660
GlyphClass: 2
Flags: W
AnchorPoint: "LatinAbove.mark" 330 0 basechar 0
LayerCount: 2
Fore
SplineSet
330 33 m 0
 464 33 523 140 523 286 c 2
 523 314 l 2
 523 460 464 567 330 567 c 0
 196 567 137 460 137 314 c 2
 137 286 l 2
 137 140 196 33 330 33 c 0
70 286 m 2
 70 314 l 2
 70 460 130 617 330 617 c 0
 530 617 590 460 590 314 c 2
 590 286 l 2
 590 166 549 37 422 -4 c 1
 394 -38 373 -78 373 -138 c 0
 373 -188 400 -212 438 -212 c 0
 467 -212 489 -204 503 -196 c 1
 516 -231 l 1
 492 -244 466 -250 431 -250 c 0
 362 -250 326 -206 326 -143 c 0
 326 -88 345 -48 370 -15 c 1
 357 -16 344 -17 330 -17 c 0
 130 -17 70 140 70 286 c 2
EndSplineSet
EndChar

StartChar: uni0218
Encoding: 536 536 342
Width: 710
GlyphClass: 2
Flags: W
AnchorPoint: "LatinAbove.mark" 355 150 basechar 0
LayerCount: 2
Fore
SplineSet
377 -180 m 1
 367 -188 353 -192 338 -192 c 0
 305 -192 280 -171 280 -137 c 0
 280 -100 303 -75 342 -75 c 0
 403 -75 420 -126 420 -170 c 0
 420 -260 356 -318 307 -340 c 1
 289 -315 l 1
 327 -297 375 -248 377 -180 c 1
70 175 m 1
 139 184 l 1
 150 119 218 36 356 36 c 0
 498 36 572 99 572 194 c 0
 572 283 505 321 453 336 c 0
 395 352 307 381 247 403 c 0
 179 428 90 482 90 588 c 0
 90 710 196 797 356 797 c 0
 522 797 606 687 620 609 c 1
 550 600 l 1
 538 665 474 744 356 744 c 0
 234 744 159 684 159 591 c 0
 159 515 222 481 278 460 c 0
 336 439 421 411 477 395 c 0
 552 373 640 314 640 196 c 0
 640 73 536 -17 356 -17 c 0
 172 -17 85 96 70 175 c 1
EndSplineSet
EndChar

StartChar: uni0219
Encoding: 537 537 343
Width: 570
GlyphClass: 2
Flags: W
AnchorPoint: "LatinAbove.mark" 285 0 basechar 0
LayerCount: 2
Fore
SplineSet
307 -180 m 1
 297 -188 283 -192 268 -192 c 0
 235 -192 210 -171 210 -137 c 0
 210 -100 233 -75 272 -75 c 0
 333 -75 350 -126 350 -170 c 0
 350 -260 286 -318 237 -340 c 1
 219 -315 l 1
 257 -297 305 -248 307 -180 c 1
60 134 m 1
 125 142 l 1
 133 92 184 32 287 32 c 0
 390 32 446 78 446 149 c 0
 446 214 395 245 357 256 c 0
 312 270 246 291 201 307 c 0
 147 326 76 366 76 452 c 0
 76 547 158 617 285 617 c 0
 418 617 483 531 494 469 c 1
 429 461 l 1
 420 510 375 568 285 568 c 0
 195 568 140 524 140 454 c 0
 140 398 188 369 228 356 c 0
 272 341 340 320 382 307 c 0
 442 289 510 246 510 151 c 0
 510 54 425 -17 285 -17 c 0
 139 -17 71 71 60 134 c 1
EndSplineSet
EndChar

StartChar: uni021A
Encoding: 538 538 344
Width: 620
GlyphClass: 2
Flags: W
AnchorPoint: "LatinAbove.mark" 310 150 basechar 0
LayerCount: 2
Fore
SplineSet
332 -180 m 1
 322 -188 308 -192 293 -192 c 0
 260 -192 235 -171 235 -137 c 0
 235 -100 258 -75 297 -75 c 0
 358 -75 375 -126 375 -170 c 0
 375 -260 311 -318 262 -340 c 1
 244 -315 l 1
 282 -297 330 -248 332 -180 c 1
45 726 m 1
 45 780 l 1
 575 780 l 1
 575 726 l 1
 345 726 l 1
 345 0 l 1
 275 0 l 1
 275 726 l 1
 45 726 l 1
EndSplineSet
EndChar

StartChar: uni021B
Encoding: 539 539 345
Width: 415
GlyphClass: 2
Flags: W
AnchorPoint: "LatinAbove.mark" 180 120 basechar 0
LayerCount: 2
Fore
SplineSet
302 -180 m 1
 292 -188 278 -192 263 -192 c 0
 230 -192 205 -171 205 -137 c 0
 205 -100 228 -75 267 -75 c 0
 328 -75 345 -126 345 -170 c 0
 345 -260 281 -318 232 -340 c 1
 214 -315 l 1
 252 -297 300 -248 302 -180 c 1
40 556 m 1
 40 600 l 1
 142 600 l 1
 142 730 l 1
 206 735 l 1
 206 600 l 1
 370 600 l 1
 370 556 l 1
 207 556 l 1
 207 123 l 2
 207 55 230 37 276 37 c 0
 323 37 368 54 384 65 c 1
 400 20 l 1
 375 4 325 -12 269 -12 c 0
 191 -12 140 24 140 115 c 2
 140 556 l 1
 40 556 l 1
EndSplineSet
EndChar

StartChar: uni0237
Encoding: 567 567 346
Width: 310
GlyphClass: 2
Flags: W
AnchorPoint: "LatinBelow.mark" 150 -180 basechar 0
AnchorPoint: "LatinAbove.mark" 160 0 basechar 0
LayerCount: 2
Fore
SplineSet
5 -178 m 1
 75 -151 127 -109 127 -24 c 2
 127 600 l 1
 193 600 l 1
 193 -27 l 2
 193 -132 116 -191 26 -222 c 1
 5 -178 l 1
EndSplineSet
EndChar

StartChar: uni0251
Encoding: 593 593 347
Width: 675
GlyphClass: 2
Flags: W
AnchorPoint: "LatinOgonek.mark" 565 0 basechar 0
AnchorPoint: "LatinBelow.mark" 360 0 basechar 0
AnchorPoint: "LatinAbove.mark" 360 0 basechar 0
LayerCount: 2
Fore
SplineSet
70 287 m 2
 70 313 l 2
 70 458 133 612 318 612 c 0
 416 612 477 550 512 482 c 1
 518 600 l 1
 575 600 l 1
 575 132 l 2
 575 67 596 39 650 33 c 1
 633 -12 l 1
 581 -6 519 22 519 121 c 1
 515 120 l 1
 479 51 417 -12 318 -12 c 0
 133 -12 70 142 70 287 c 2
510 385 m 1
 490 466 433 562 325 562 c 0
 197 562 137 459 137 313 c 2
 137 287 l 2
 137 141 197 38 325 38 c 0
 433 38 490 134 510 215 c 1
 510 385 l 1
EndSplineSet
EndChar

StartChar: uni0259
Encoding: 601 601 348
Width: 640
GlyphClass: 2
Flags: W
AnchorPoint: "LatinBelow.mark" 320 0 basechar 0
AnchorPoint: "LatinAbove.mark" 320 0 basechar 0
LayerCount: 2
Fore
SplineSet
570 314 m 2
 570 286 l 2
 570 140 508 -17 313 -17 c 0
 154 -17 70 99 70 236 c 0
 70 259 72 284 77 307 c 1
 505 307 l 1
 505 314 l 2
 505 460 447 568 313 568 c 0
 213 568 163 501 154 452 c 1
 89 458 l 1
 100 522 168 617 313 617 c 0
 510 617 570 460 570 314 c 2
504 263 m 1
 134 263 l 1
 133 254 133 245 133 236 c 0
 133 108 204 31 313 31 c 0
 439 31 498 130 504 263 c 1
EndSplineSet
EndChar

StartChar: uni0261
Encoding: 609 609 349
Width: 670
GlyphClass: 2
Flags: W
AnchorPoint: "LatinBelow.mark" 360 -180 basechar 0
AnchorPoint: "LatinAbove.mark" 360 0 basechar 0
LayerCount: 2
Fore
SplineSet
70 315 m 0
 70 455 133 612 318 612 c 0
 416 612 476 548 512 479 c 1
 518 600 l 1
 575 600 l 1
 575 -36 l 2
 575 -149 486 -227 349 -227 c 0
 213 -227 139 -159 125 -112 c 1
 187 -95 l 1
 197 -127 248 -179 349 -179 c 0
 446 -179 512 -129 512 -36 c 2
 512 151 l 1
 477 82 416 18 318 18 c 0
 133 18 70 175 70 315 c 0
510 381 m 1
 490 463 433 562 325 562 c 0
 197 562 137 456 137 315 c 0
 137 174 197 68 325 68 c 0
 433 68 490 167 510 249 c 1
 510 381 l 1
EndSplineSet
EndChar

StartChar: uni02BB
Encoding: 699 699 350
Width: 240
GlyphClass: 2
Flags: W
LayerCount: 2
Fore
SplineSet
185 653 m 0
 185 616 159 589 120 589 c 0
 64 589 40 636 40 691 c 0
 40 788 102 857 163 900 c 1
 185 870 l 1
 135 834 92 780 88 704 c 1
 98 709 110 712 122 712 c 0
 158 712 185 690 185 653 c 0
EndSplineSet
EndChar

StartChar: uni02BC
Encoding: 700 700 351
Width: 240
GlyphClass: 2
Flags: W
LayerCount: 2
Fore
SplineSet
40 797 m 0
 40 834 66 861 105 861 c 0
 161 861 185 814 185 759 c 0
 185 662 123 593 62 550 c 1
 40 580 l 1
 90 616 133 670 137 746 c 1
 127 741 115 738 103 738 c 0
 67 738 40 760 40 797 c 0
EndSplineSet
EndChar

StartChar: uni02BD
Encoding: 701 701 352
Width: 240
GlyphClass: 2
Flags: W
LayerCount: 2
Fore
SplineSet
185 797 m 0
 185 760 158 738 122 738 c 0
 110 738 98 741 88 746 c 1
 92 670 135 616 185 580 c 1
 163 550 l 1
 102 593 40 662 40 759 c 0
 40 814 64 861 120 861 c 0
 159 861 185 834 185 797 c 0
EndSplineSet
EndChar

StartChar: uni02BE
Encoding: 702 702 353
Width: 180
GlyphClass: 2
Flags: W
LayerCount: 2
Fore
SplineSet
135 765 m 0
 135 704 90 662 25 662 c 1
 25 696 l 1
 68 696 96 725 96 765 c 0
 96 805 68 834 25 834 c 1
 25 868 l 1
 90 868 135 826 135 765 c 0
EndSplineSet
EndChar

StartChar: uni02BF
Encoding: 703 703 354
Width: 180
GlyphClass: 2
Flags: W
LayerCount: 2
Fore
SplineSet
45 765 m 0
 45 826 90 868 155 868 c 1
 155 834 l 1
 112 834 84 805 84 765 c 0
 84 725 112 696 155 696 c 1
 155 662 l 1
 90 662 45 704 45 765 c 0
EndSplineSet
EndChar

StartChar: circumflex
Encoding: 710 710 355
Width: 510
GlyphClass: 2
Flags: W
LayerCount: 2
Fore
SplineSet
75 709 m 1
 245 860 l 1
 265 860 l 1
 435 709 l 1
 412 685 l 1
 255 800 l 1
 98 685 l 1
 75 709 l 1
EndSplineSet
EndChar

StartChar: caron
Encoding: 711 711 356
Width: 510
GlyphClass: 2
Flags: W
LayerCount: 2
Fore
SplineSet
435 846 m 1
 265 695 l 1
 245 695 l 1
 75 846 l 1
 98 870 l 1
 255 755 l 1
 412 870 l 1
 435 846 l 1
EndSplineSet
EndChar

StartChar: uni02C8
Encoding: 712 712 357
Width: 210
GlyphClass: 2
Flags: W
LayerCount: 2
Fore
SplineSet
81 685 m 1
 81 890 l 1
 129 890 l 1
 129 685 l 1
 81 685 l 1
EndSplineSet
EndChar

StartChar: uni02C9
Encoding: 713 713 358
Width: 510
GlyphClass: 2
Flags: W
LayerCount: 2
Fore
SplineSet
75 757 m 1
 75 803 l 1
 435 803 l 1
 435 757 l 1
 75 757 l 1
EndSplineSet
EndChar

StartChar: uni02CA
Encoding: 714 714 359
Width: 330
GlyphClass: 2
Flags: W
LayerCount: 2
Fore
SplineSet
295 852 m 1
 71 700 l 1
 50 729 l 1
 263 900 l 1
 295 852 l 1
EndSplineSet
EndChar

StartChar: uni02CB
Encoding: 715 715 360
Width: 330
GlyphClass: 2
Flags: W
LayerCount: 2
Fore
SplineSet
35 852 m 1
 67 900 l 1
 280 729 l 1
 259 700 l 1
 35 852 l 1
EndSplineSet
EndChar

StartChar: uni02CC
Encoding: 716 716 361
Width: 210
GlyphClass: 2
Flags: W
LayerCount: 2
Fore
SplineSet
81 -290 m 1
 81 -85 l 1
 129 -85 l 1
 129 -290 l 1
 81 -290 l 1
EndSplineSet
EndChar

StartChar: uni02D7
Encoding: 727 727 362
Width: 330
GlyphClass: 2
Flags: W
LayerCount: 2
Fore
SplineSet
30 386 m 1
 300 386 l 1
 300 334 l 1
 30 334 l 1
 30 386 l 1
EndSplineSet
EndChar

StartChar: breve
Encoding: 728 728 363
Width: 510
GlyphClass: 2
Flags: W
LayerCount: 2
Fore
SplineSet
75 839 m 1
 119 855 l 1
 132 803 164 745 255 745 c 0
 346 745 378 803 391 855 c 1
 435 839 l 1
 417 770 368 700 255 700 c 0
 142 700 93 770 75 839 c 1
EndSplineSet
EndChar

StartChar: dotaccent
Encoding: 729 729 364
Width: 330
GlyphClass: 2
Flags: W
LayerCount: 2
Fore
SplineSet
165 841 m 0
 202 841 230 817 230 780 c 0
 230 743 202 719 165 719 c 0
 128 719 100 743 100 780 c 0
 100 817 128 841 165 841 c 0
EndSplineSet
EndChar

StartChar: ring
Encoding: 730 730 365
Width: 330
GlyphClass: 2
Flags: W
LayerCount: 2
Fore
SplineSet
165 662 m 0
 100 662 55 704 55 765 c 0
 55 826 100 868 165 868 c 0
 230 868 275 826 275 765 c 0
 275 704 230 662 165 662 c 0
165 696 m 0
 208 696 236 725 236 765 c 0
 236 805 208 834 165 834 c 0
 122 834 94 805 94 765 c 0
 94 725 122 696 165 696 c 0
EndSplineSet
EndChar

StartChar: ogonek
Encoding: 731 731 366
Width: 330
GlyphClass: 2
Flags: W
LayerCount: 2
Fore
SplineSet
91 -143 m 0
 91 -59 136 -8 177 33 c 1
 201 12 l 1
 167 -25 138 -69 138 -138 c 0
 138 -188 165 -212 203 -212 c 0
 232 -212 254 -204 268 -196 c 1
 281 -231 l 1
 257 -244 231 -250 196 -250 c 0
 127 -250 91 -206 91 -143 c 0
EndSplineSet
EndChar

StartChar: tilde
Encoding: 732 732 367
Width: 510
GlyphClass: 2
Flags: W
LayerCount: 2
Fore
SplineSet
75 737 m 1
 92 783 118 855 178 855 c 0
 224 855 251 824 273 801 c 0
 295 779 311 755 333 755 c 0
 367 755 388 820 398 847 c 1
 435 833 l 1
 419 786 391 715 332 715 c 0
 286 715 259 746 237 769 c 0
 215 791 199 815 177 815 c 0
 142 815 123 751 112 723 c 1
 75 737 l 1
EndSplineSet
EndChar

StartChar: hungarumlaut
Encoding: 733 733 368
Width: 510
GlyphClass: 2
Flags: W
LayerCount: 2
Fore
SplineSet
75 721 m 1
 197 910 l 1
 240 878 l 1
 102 700 l 1
 75 721 l 1
270 721 m 1
 392 910 l 1
 435 878 l 1
 297 700 l 1
 270 721 l 1
EndSplineSet
EndChar

StartChar: uni0300
Encoding: 768 768 369
Width: 0
GlyphClass: 4
Flags: W
AnchorPoint: "LatinAbove.mkmk" 0 180 basemark 0
AnchorPoint: "LatinAbove.mkmk" 0 0 mark 0
AnchorPoint: "LatinAbove.mark" 0 0 mark 0
LayerCount: 2
Fore
SplineSet
-145 852 m 1
 -113 900 l 1
 100 729 l 1
 79 700 l 1
 -145 852 l 1
EndSplineSet
EndChar

StartChar: uni0301
Encoding: 769 769 370
Width: 0
GlyphClass: 4
Flags: W
AnchorPoint: "LatinAbove.mkmk" 0 180 basemark 0
AnchorPoint: "LatinAbove.mkmk" 0 0 mark 0
AnchorPoint: "LatinAbove.mark" 0 0 mark 0
LayerCount: 2
Fore
SplineSet
145 852 m 1
 -79 700 l 1
 -100 729 l 1
 113 900 l 1
 145 852 l 1
EndSplineSet
EndChar

StartChar: uni0302
Encoding: 770 770 371
Width: 0
GlyphClass: 4
Flags: W
AnchorPoint: "LatinAbove.mkmk" 0 180 basemark 0
AnchorPoint: "LatinAbove.mkmk" 0 0 mark 0
AnchorPoint: "LatinAbove.mark" 0 0 mark 0
LayerCount: 2
Fore
SplineSet
-180 709 m 1
 -10 860 l 1
 10 860 l 1
 180 709 l 1
 157 685 l 1
 0 800 l 1
 -157 685 l 1
 -180 709 l 1
EndSplineSet
EndChar

StartChar: uni0303
Encoding: 771 771 372
Width: 0
GlyphClass: 4
Flags: W
AnchorPoint: "LatinAbove.mkmk" 0 180 basemark 0
AnchorPoint: "LatinAbove.mkmk" 0 0 mark 0
AnchorPoint: "LatinAbove.mark" 0 0 mark 0
LayerCount: 2
Fore
SplineSet
-180 737 m 1
 -163 783 -137 855 -77 855 c 0
 -31 855 -4 824 18 801 c 0
 40 779 56 755 78 755 c 0
 112 755 133 820 143 847 c 1
 180 833 l 1
 164 786 136 715 77 715 c 0
 31 715 4 746 -18 769 c 0
 -40 791 -56 815 -78 815 c 0
 -113 815 -132 751 -143 723 c 1
 -180 737 l 1
EndSplineSet
EndChar

StartChar: uni0304
Encoding: 772 772 373
Width: 0
GlyphClass: 4
Flags: W
AnchorPoint: "LatinAbove.mkmk" 0 180 basemark 0
AnchorPoint: "LatinAbove.mkmk" 0 0 mark 0
AnchorPoint: "LatinAbove.mark" 0 0 mark 0
LayerCount: 2
Fore
SplineSet
-180 757 m 1
 -180 803 l 1
 180 803 l 1
 180 757 l 1
 -180 757 l 1
EndSplineSet
EndChar

StartChar: uni0305
Encoding: 773 773 374
Width: 0
GlyphClass: 4
Flags: W
AnchorPoint: "LatinAbove.mkmk" 0 180 basemark 0
AnchorPoint: "LatinAbove.mkmk" 0 0 mark 0
AnchorPoint: "LatinAbove.mark" 0 0 mark 0
LayerCount: 2
Fore
SplineSet
-270 757 m 1
 -270 803 l 1
 270 803 l 1
 270 757 l 1
 -270 757 l 1
EndSplineSet
EndChar

StartChar: uni0306
Encoding: 774 774 375
Width: 0
GlyphClass: 4
Flags: W
AnchorPoint: "LatinAbove.mkmk" 0 180 basemark 0
AnchorPoint: "LatinAbove.mkmk" 0 0 mark 0
AnchorPoint: "LatinAbove.mark" 0 0 mark 0
LayerCount: 2
Fore
SplineSet
-180 839 m 1
 -136 855 l 1
 -123 803 -91 745 0 745 c 0
 91 745 123 803 136 855 c 1
 180 839 l 1
 162 770 113 700 0 700 c 0
 -113 700 -162 770 -180 839 c 1
EndSplineSet
EndChar

StartChar: uni0307
Encoding: 775 775 376
Width: 0
GlyphClass: 4
Flags: W
AnchorPoint: "LatinAbove.mkmk" 0 180 basemark 0
AnchorPoint: "LatinAbove.mkmk" 0 0 mark 0
AnchorPoint: "LatinAbove.mark" 0 0 mark 0
LayerCount: 2
Fore
SplineSet
0 841 m 0
 37 841 65 817 65 780 c 0
 65 743 37 719 0 719 c 0
 -37 719 -65 743 -65 780 c 0
 -65 817 -37 841 0 841 c 0
EndSplineSet
EndChar

